var fontJSON =
{"glyphs":{"0":{"ha":624,"x_min":18,"x_max":594,"o":"m 442 831 q 471 824 442 843 l 475 819 q 535 743 513 793 q 565 644 554 699 q 578 549 574 601 q 579 536 579 540 q 547 174 594 351 q 479 -4 521 69 q 453 -46 465 -26 q 418 -87 436 -69 q 372 -124 396 -110 q 313 -150 343 -143 q 240 -151 276 -160 q 178 -125 207 -144 q 133 -85 154 -108 q 117 -62 125 -75 q 101 -40 108 -51 q 61 50 78 0 q 49 96 54 72 q 43 118 46 106 l 38 140 q 19 321 21 228 q 33 499 19 406 q 38 514 35 513 l 42 507 q 40 485 42 497 l 38 467 l 36 450 l 33 417 q 31 347 31 356 q 31 358 31 349 q 32 372 31 367 q 32 379 32 375 q 33 388 32 383 q 33 396 33 392 q 36 418 35 407 q 39 442 38 428 q 43 450 42 450 q 92 690 54 565 q 97 703 94 701 l 99 694 l 96 679 q 51 451 61 560 q 54 217 39 326 q 72 542 39 371 q 78 557 75 556 q 81 556 79 558 q 82 543 82 551 q 115 682 94 613 q 111 683 113 682 q 101 711 101 692 q 118 760 101 735 q 169 814 140 790 q 181 822 174 818 q 181 823 181 822 q 181 825 181 824 q 210 868 201 871 l 214 861 q 214 857 214 860 q 217 860 215 858 q 226 867 221 864 q 243 876 236 874 q 292 886 264 886 q 372 872 332 889 q 442 831 410 858 m 214 850 q 214 842 214 846 q 235 850 225 847 q 214 850 218 847 m 128 686 q 123 664 128 685 q 117 633 118 643 q 154 756 132 693 q 142 739 147 747 q 135 715 140 733 q 128 686 131 697 m 114 360 q 114 357 114 360 q 114 353 114 354 q 114 339 114 351 q 114 321 114 326 q 117 254 115 265 q 125 189 118 240 q 128 172 126 183 q 132 157 131 160 l 135 142 q 139 125 136 132 q 185 7 156 54 q 222 -37 201 -21 q 267 -58 244 -57 q 315 -46 290 -61 q 360 -8 339 -33 q 372 8 365 -1 q 383 25 379 18 q 404 61 394 42 q 372 8 390 33 q 332 -35 353 -18 q 285 -57 308 -53 q 242 -49 263 -60 q 203 -14 221 -37 q 187 10 194 -3 q 172 38 179 24 q 136 154 149 88 l 131 186 q 130 195 131 190 q 128 206 129 200 q 126 217 128 213 l 125 232 l 124 247 q 123 261 124 250 q 122 279 122 272 q 121 342 121 336 q 122 351 121 344 q 122 363 122 357 q 122 372 122 368 l 125 403 q 143 526 131 471 q 157 586 146 540 q 161 603 158 592 q 164 617 164 615 q 174 646 172 642 q 179 656 176 657 q 178 635 182 653 q 135 415 144 522 q 143 394 139 415 q 147 349 147 375 q 153 225 146 293 l 157 194 q 159 185 158 190 q 161 174 160 179 q 163 164 163 168 q 176 104 167 139 q 197 50 185 75 q 209 26 203 38 q 224 4 215 14 q 253 -25 238 -17 q 281 -31 267 -32 q 317 -14 299 -28 q 351 24 335 0 q 408 131 385 69 q 443 253 429 185 q 454 315 451 288 q 461 379 460 347 q 460 533 467 456 q 429 676 451 622 q 397 732 417 708 q 350 772 375 758 q 299 789 325 788 q 247 779 274 790 q 219 765 224 768 q 203 760 208 760 q 197 767 197 761 q 206 782 199 774 q 217 793 207 788 q 225 799 219 796 q 232 803 228 801 q 239 806 238 806 q 285 819 263 817 q 333 815 308 822 q 419 763 381 803 q 350 814 389 797 q 267 825 308 833 q 204 800 235 819 q 196 774 200 786 q 157 647 171 703 q 151 628 154 640 q 149 614 149 617 q 140 582 143 592 l 135 550 l 129 517 q 114 386 117 443 l 114 369 q 114 360 114 367 m 288 -140 q 350 -121 319 -137 q 303 -137 326 -133 q 249 -137 276 -142 q 199 -119 222 -133 q 132 -56 161 -97 q 126 -56 131 -57 q 165 -97 144 -81 q 190 -117 175 -107 q 219 -131 204 -125 q 288 -140 253 -144 m 522 574 q 528 431 529 501 q 483 151 524 288 q 463 92 474 119 q 454 64 461 79 q 421 -1 439 28 q 372 -61 399 -36 q 304 -101 340 -92 q 222 -93 261 -114 q 163 -42 190 -76 q 125 24 142 -14 q 83 163 99 83 q 65 314 68 242 q 71 465 63 389 q 67 251 57 356 l 69 225 l 74 197 q 75 186 74 196 q 78 171 76 176 l 83 144 q 114 39 94 89 q 139 -11 125 13 q 172 -57 154 -37 q 219 -94 194 -82 q 249 -106 235 -101 q 257 -107 249 -106 q 265 -107 260 -107 q 272 -107 271 -107 l 281 -107 q 289 -107 285 -107 q 296 -106 296 -106 q 311 -101 310 -101 q 339 -89 324 -97 q 385 -51 364 -74 q 419 -7 404 -32 q 447 40 435 15 q 490 151 472 90 q 518 267 507 208 q 532 501 539 385 q 519 608 528 561 q 488 714 508 669 q 522 574 513 657 z "},"1":{"ha":283,"x_min":64,"x_max":208,"o":"m 183 764 q 200 751 192 767 q 207 715 208 736 q 203 633 206 678 q 203 628 203 631 q 197 354 203 590 q 196 -4 192 118 q 194 -11 196 -10 q 186 -4 190 -14 q 186 1 186 -1 q 185 16 186 7 q 185 31 185 25 q 184 46 185 38 q 183 61 183 54 q 182 19 183 58 q 181 15 182 17 q 178 15 179 14 q 178 3 178 13 q 179 -12 179 -7 l 182 -40 l 183 -68 l 186 -94 q 185 -101 186 -100 q 179 -96 182 -103 l 178 -92 q 165 119 169 14 q 164 44 164 78 q 164 26 164 39 q 164 8 164 14 l 164 -11 q 164 -29 164 -17 q 162 -37 165 -37 q 156 -31 158 -37 q 160 -81 157 -53 q 163 -129 163 -107 q 163 -136 164 -135 q 156 -131 158 -139 q 156 -128 156 -129 q 144 -78 150 -106 q 149 -125 146 -101 q 150 -150 149 -133 q 151 -172 151 -167 q 142 -199 154 -201 q 119 -164 126 -196 q 118 -157 118 -161 q 100 358 94 22 q 101 381 101 367 q 101 400 101 394 q 94 -96 90 78 q 93 -101 94 -101 q 88 -97 90 -104 l 86 -93 q 85 19 85 -14 q 73 30 79 19 q 67 51 67 40 q 74 344 64 154 q 83 558 83 533 q 83 634 83 583 q 83 710 83 685 q 81 857 82 836 q 88 885 81 879 q 104 878 96 890 q 108 869 107 875 l 108 864 q 110 856 110 860 q 119 750 114 824 q 115 926 121 881 q 117 947 114 940 q 128 950 121 953 q 147 918 143 944 q 153 851 151 889 q 171 854 158 869 q 179 826 178 843 q 183 764 182 799 m 149 201 q 150 400 147 307 q 153 615 153 532 q 151 714 154 647 q 148 577 151 665 q 143 451 144 489 l 143 424 q 146 410 146 418 q 146 278 147 368 q 144 144 144 189 q 146 133 146 139 q 146 120 146 126 q 146 110 146 114 q 149 75 147 97 q 153 6 149 69 q 149 201 149 92 m 182 240 l 182 324 q 181 315 182 321 q 181 307 181 310 q 179 272 181 294 q 178 242 178 249 q 182 240 179 242 z "},"2":{"ha":690,"x_min":68,"x_max":621,"o":"m 581 121 q 621 133 621 150 q 574 75 618 111 q 429 -31 490 10 q 392 -54 410 -43 q 350 -78 367 -69 q 326 -87 338 -83 q 313 -92 319 -90 q 297 -96 306 -94 q 232 -87 260 -101 q 197 -57 211 -78 q 179 -14 185 -39 q 176 6 178 -6 q 175 24 175 14 q 174 57 174 38 q 190 189 174 117 q 267 435 214 301 q 293 500 279 468 q 194 224 226 344 q 169 75 172 140 q 168 36 168 56 q 168 17 168 32 q 171 -6 169 6 l 172 -11 l 174 -17 q 178 -31 175 -25 q 189 -57 182 -44 q 229 -94 204 -82 q 276 -106 250 -106 q 303 -104 289 -106 q 315 -101 310 -103 q 325 -99 319 -100 q 392 -68 351 -90 q 499 -3 443 -39 q 508 1 506 3 q 497 -12 513 -3 q 415 -64 454 -40 q 372 -87 386 -81 q 317 -110 343 -103 q 286 -125 318 -118 q 253 -128 269 -129 q 218 -118 235 -126 q 217 -117 218 -118 q 215 -117 215 -117 q 176 -85 193 -106 q 153 -40 161 -67 q 149 -28 151 -36 q 147 -21 147 -25 l 146 -17 q 143 1 144 -7 q 140 33 142 15 q 150 151 139 89 q 176 258 158 197 q 210 363 190 310 q 292 560 240 444 q 374 750 358 707 q 392 815 385 785 l 392 822 q 393 828 393 825 q 390 838 393 833 q 379 842 386 842 q 367 840 374 843 l 360 839 q 356 837 360 838 q 351 836 353 836 q 335 829 343 833 q 300 811 318 822 q 181 708 228 768 q 149 679 158 681 q 142 683 144 678 q 143 699 140 689 q 147 710 143 703 q 153 718 150 714 q 160 729 157 725 q 285 844 208 794 q 171 756 218 807 q 126 700 147 731 q 124 696 125 699 q 120 690 122 693 q 117 685 118 688 q 113 678 117 683 q 108 669 110 672 q 101 656 104 661 q 99 642 99 649 q 103 617 99 635 q 103 611 104 613 q 97 610 101 610 q 88 614 92 611 q 76 624 81 617 q 69 643 71 633 q 72 666 68 654 q 85 693 76 678 q 100 718 90 704 q 133 764 115 742 q 115 765 115 751 q 144 814 118 786 q 229 886 182 854 q 240 911 221 890 q 301 949 264 936 q 319 956 311 953 q 329 957 328 957 l 333 958 l 340 960 q 399 967 375 968 q 453 953 428 965 q 493 918 478 940 q 507 893 503 906 q 513 878 510 885 q 514 822 518 853 q 512 815 513 819 q 511 808 511 811 q 510 801 511 806 q 508 794 508 797 l 507 790 l 507 789 l 507 788 l 506 783 l 504 776 q 486 713 497 746 q 440 596 469 665 q 424 560 433 582 q 407 520 415 539 q 392 486 399 501 q 347 378 365 425 q 310 268 325 319 q 281 158 292 210 q 268 53 268 99 q 268 26 268 43 q 269 17 269 19 q 269 14 269 15 q 269 11 269 13 l 271 11 l 271 10 q 275 -1 271 3 q 281 -3 278 -3 q 285 -3 282 -3 l 286 -3 q 288 -3 288 -3 q 326 14 304 1 q 338 15 338 19 q 324 1 336 7 q 304 -8 313 -4 q 296 -11 300 -10 q 289 -12 290 -12 q 271 -11 278 -14 l 271 -10 l 271 -11 q 283 -15 275 -14 q 290 -15 286 -15 l 292 -15 l 294 -14 q 301 -12 299 -14 q 307 -14 307 -12 q 344 6 321 -8 q 383 29 367 19 q 458 81 417 51 q 468 85 467 86 q 457 71 472 81 q 353 1 399 29 q 301 -25 321 -18 q 296 -26 299 -25 q 290 -28 293 -26 q 281 -29 285 -29 q 264 -25 271 -29 q 246 -3 251 -19 q 244 3 244 0 q 243 13 243 7 q 242 24 242 17 l 240 35 l 240 24 q 242 13 240 17 q 243 3 242 7 q 244 -4 243 0 q 261 -29 249 -22 q 285 -35 271 -35 q 297 -32 290 -33 q 313 -28 304 -31 q 375 4 331 -21 q 388 8 386 11 q 381 -1 389 6 q 517 92 431 29 q 526 96 525 99 q 518 82 529 93 q 450 28 485 54 q 581 121 496 58 m 283 222 q 322 353 299 285 q 314 329 315 335 q 279 226 294 275 q 283 222 282 225 m 310 -42 q 329 -32 319 -37 q 310 -40 319 -37 q 300 -43 304 -43 q 292 -46 296 -44 q 256 -42 269 -49 q 235 -22 242 -36 q 231 -8 232 -15 q 228 -2 229 -6 q 226 7 228 1 q 225 22 225 14 q 224 40 224 36 q 224 75 224 58 q 246 214 226 135 q 338 482 275 333 q 373 565 349 510 q 408 647 397 619 q 442 733 428 694 q 454 779 450 760 q 460 801 456 785 q 465 829 465 828 q 465 860 467 847 q 454 888 463 876 q 426 908 444 901 q 392 914 411 914 q 356 908 376 914 q 340 904 349 907 q 325 899 333 903 q 340 904 333 901 q 356 908 349 907 q 390 913 376 913 q 425 906 410 913 q 451 886 442 900 q 461 840 464 868 q 458 815 461 828 l 456 804 q 454 799 454 801 l 453 793 q 428 714 443 754 q 365 565 413 672 l 346 521 q 340 500 346 513 q 264 292 289 367 q 236 185 247 236 q 221 76 222 125 q 221 42 219 60 q 224 7 221 21 q 225 -1 225 0 q 228 -8 225 -3 q 233 -22 229 -17 q 254 -43 240 -37 q 292 -46 269 -51 q 300 -44 296 -46 q 310 -42 304 -43 z "},"3":{"ha":767,"x_min":68,"x_max":700,"o":"m 86 649 q 76 646 82 639 q 69 674 68 654 q 85 724 71 699 q 129 785 100 749 q 181 839 154 814 q 158 833 158 824 q 161 839 158 836 q 207 896 169 864 q 264 938 233 918 q 279 947 274 944 l 288 953 q 297 958 294 957 q 322 971 300 960 q 331 976 326 974 q 340 980 335 978 q 349 983 346 982 q 356 994 344 985 q 371 1004 360 999 q 392 1015 379 1010 q 393 1016 392 1015 q 394 1017 394 1017 l 397 1017 l 399 1018 q 404 1019 400 1018 q 417 1022 410 1021 q 424 1024 419 1022 q 431 1025 431 1025 q 444 1025 439 1025 q 471 1018 460 1024 q 499 1001 486 1013 q 510 989 504 996 q 518 975 514 982 q 526 949 524 961 q 526 919 528 944 l 524 903 l 524 899 q 524 897 524 899 l 522 894 l 518 885 q 513 873 517 881 q 507 858 510 865 q 501 846 504 851 l 482 807 q 463 775 476 796 q 450 754 456 763 q 444 743 447 749 q 399 671 431 721 q 351 594 367 621 q 313 524 325 551 q 308 513 311 519 q 306 506 306 507 q 297 488 300 493 l 294 478 l 293 474 q 293 474 293 474 l 293 472 l 303 472 l 313 471 q 356 468 331 469 q 447 463 422 465 q 496 456 472 460 l 508 453 l 521 450 q 547 443 535 447 q 601 419 576 433 q 653 378 631 403 q 686 318 676 351 q 697 256 697 288 q 675 143 699 201 q 651 99 665 121 q 626 57 639 74 q 497 -86 572 -25 q 418 -140 460 -117 q 322 -181 367 -171 q 303 -179 303 -183 q 336 -167 310 -175 q 407 -136 369 -157 q 468 -96 440 -117 q 447 -110 463 -99 q 438 -115 447 -110 q 425 -122 429 -121 q 381 -146 401 -137 q 369 -147 369 -150 q 301 -168 333 -164 q 263 -169 281 -171 q 224 -161 243 -167 q 188 -143 204 -154 q 158 -112 171 -131 q 140 -76 147 -97 q 135 -39 136 -58 q 138 -25 135 -25 q 143 -50 140 -31 q 151 -85 146 -68 q 171 -117 158 -103 q 232 -156 194 -144 q 267 -161 249 -161 l 275 -162 l 285 -162 q 301 -160 293 -161 q 365 -140 332 -156 q 419 -110 390 -129 q 471 -75 447 -93 q 517 -33 496 -54 q 558 13 539 -11 q 428 -99 501 -53 q 350 -139 383 -126 q 260 -153 301 -157 q 246 -149 250 -151 q 242 -146 242 -147 q 260 -143 243 -143 q 204 -124 228 -140 q 168 -78 178 -106 q 158 -21 158 -54 q 164 33 160 4 q 169 46 167 46 q 171 26 172 42 q 171 -31 169 -8 q 185 -82 174 -61 q 174 -35 175 -62 q 176 17 174 -14 q 199 115 182 68 q 221 157 210 147 q 231 153 229 164 q 218 68 233 136 q 210 4 211 36 q 211 -51 207 -33 q 219 -69 214 -62 q 233 -82 224 -76 q 278 -94 253 -94 q 331 -82 301 -94 q 386 -51 354 -72 q 488 32 442 -17 q 565 139 533 81 q 593 197 583 169 q 603 254 604 228 q 588 306 601 285 q 546 340 574 326 q 486 360 521 353 q 419 368 456 365 q 371 371 403 369 q 329 374 339 372 q 463 363 442 365 q 494 357 482 360 q 524 349 510 353 q 572 321 554 338 q 587 302 581 313 q 596 279 593 292 q 597 225 603 253 q 578 171 593 200 q 547 115 567 146 q 467 21 513 64 q 367 -53 419 -24 q 315 -76 339 -69 q 292 -82 303 -81 q 281 -82 286 -82 q 269 -82 276 -82 q 238 -68 249 -79 q 231 -59 233 -64 q 226 -46 228 -54 q 231 -39 228 -39 q 235 -49 233 -42 q 238 -56 236 -53 q 243 -62 240 -60 q 269 -74 253 -71 q 278 -74 274 -74 q 286 -74 282 -74 q 307 -69 296 -72 q 351 -51 326 -64 q 363 -33 349 -47 q 396 -4 378 -18 q 485 79 444 32 q 522 128 506 103 q 538 154 532 143 q 553 181 544 165 q 569 229 565 207 q 572 251 572 240 q 569 271 572 261 q 564 288 568 281 q 554 301 560 296 q 515 324 540 314 q 488 331 503 328 q 458 338 474 335 q 393 344 432 342 q 372 345 383 344 q 347 347 360 346 q 325 349 333 347 q 289 351 306 350 l 278 353 q 264 356 271 354 q 235 363 247 357 q 190 393 207 372 q 169 443 172 414 q 176 500 167 469 q 181 514 179 510 l 183 522 q 185 526 185 524 q 187 531 186 529 q 188 535 188 533 q 190 540 189 538 q 258 671 214 599 q 303 742 274 694 q 346 811 332 789 q 351 819 347 813 q 356 829 354 825 l 361 838 l 364 842 l 364 843 q 369 853 368 850 q 374 864 372 858 q 375 874 376 869 q 372 878 375 876 q 367 879 369 879 q 356 875 361 878 q 347 871 351 874 l 344 869 l 342 868 l 338 865 q 218 775 271 829 q 172 738 182 739 q 165 742 167 736 q 172 761 165 749 q 181 776 172 767 q 185 781 182 778 q 189 786 189 785 q 200 799 196 793 q 242 838 215 814 q 286 872 265 858 q 308 888 293 878 l 321 896 q 331 901 322 896 q 369 922 347 911 q 360 918 367 921 q 353 915 354 915 l 336 907 l 328 903 q 319 899 321 899 q 299 886 300 888 q 221 831 257 861 q 153 764 185 800 q 101 688 114 717 q 94 671 97 679 q 90 657 92 663 q 86 649 88 651 m 560 424 q 507 439 538 432 q 547 426 532 432 q 590 408 572 418 q 631 378 613 396 q 661 336 649 360 q 678 288 674 313 q 682 285 679 289 q 660 346 676 318 q 614 394 642 375 q 560 424 590 413 m 421 807 q 343 685 403 778 q 269 561 292 607 q 256 529 258 538 q 251 523 254 529 q 249 514 249 517 l 242 497 q 238 483 238 488 q 233 469 235 475 q 238 440 232 453 q 256 424 243 429 q 281 418 265 419 q 285 419 282 418 q 290 419 288 419 q 307 418 299 419 q 371 416 317 418 q 454 411 425 414 q 529 396 497 406 q 601 360 574 382 q 628 326 617 346 q 643 289 639 308 q 643 208 653 250 q 617 136 636 175 q 579 72 599 103 q 475 -46 535 6 q 413 -93 444 -72 q 342 -131 374 -118 q 393 -107 365 -122 q 439 -76 421 -90 q 461 -60 440 -75 q 482 -42 481 -43 q 524 -3 501 -26 q 560 39 540 14 q 592 86 578 64 q 621 135 610 113 q 642 188 635 163 q 640 308 663 253 q 604 360 629 339 q 551 390 583 379 q 496 407 528 400 q 439 414 471 411 q 377 419 418 417 q 331 421 336 421 q 301 424 315 422 q 294 424 297 424 l 288 425 q 278 426 282 425 q 257 432 265 428 q 243 447 247 438 q 242 468 240 456 q 246 488 242 476 l 256 514 l 267 540 q 294 593 278 564 q 320 640 310 622 q 355 694 331 657 q 386 742 379 731 q 414 789 399 763 l 429 815 l 444 844 q 449 855 446 850 q 454 866 451 860 q 458 875 457 872 q 460 878 458 876 q 461 882 461 881 l 463 890 l 468 904 q 472 931 472 918 q 464 958 474 947 q 472 940 471 950 q 471 922 474 932 q 469 913 471 918 q 467 908 468 911 q 467 903 467 904 l 460 885 q 456 875 460 882 l 451 865 q 449 859 450 863 q 445 852 447 856 q 442 846 443 849 q 421 807 421 808 z "},"4":{"ha":574,"x_min":54,"x_max":504,"o":"m 68 297 q 64 331 65 319 q 64 589 56 413 q 86 892 68 778 q 101 919 90 921 q 113 908 110 919 q 115 899 115 906 l 114 893 q 114 885 114 889 q 110 778 110 838 q 138 953 119 875 q 158 972 144 983 q 165 936 171 961 q 154 872 160 907 q 172 871 164 889 q 178 844 178 860 q 175 785 176 815 q 190 771 183 786 q 193 736 196 756 q 185 658 189 696 q 185 653 185 656 q 182 575 183 617 q 179 499 181 529 q 186 351 178 414 q 189 333 188 340 q 192 317 190 322 q 198 288 194 300 q 207 268 201 276 q 217 256 211 261 q 222 253 219 254 q 225 251 224 251 q 247 253 233 250 q 263 256 251 253 q 278 261 263 256 q 311 274 296 267 q 317 274 315 275 q 335 572 333 533 q 333 856 336 722 q 346 885 332 886 q 357 875 353 883 q 361 868 360 874 l 361 863 q 361 854 361 858 q 371 753 367 799 q 372 795 371 767 q 372 838 372 824 q 372 879 372 851 q 372 922 372 907 q 383 944 372 944 q 403 918 399 943 l 403 911 q 404 849 404 879 q 424 849 411 867 q 431 825 429 839 q 435 767 433 801 q 451 753 443 768 q 458 719 460 739 q 454 643 457 682 q 454 638 454 640 q 443 285 454 532 q 475 307 458 294 q 503 307 503 325 q 479 269 503 288 q 440 243 460 256 q 440 221 440 228 q 439 214 446 221 q 435 38 435 111 q 428 32 433 26 q 425 43 425 36 q 425 100 425 50 q 421 61 421 61 q 420 57 421 58 q 418 57 419 56 q 418 -47 418 -6 q 414 -51 419 -58 q 411 -44 411 -49 q 410 156 410 32 q 404 86 408 135 q 401 15 403 61 q 398 8 401 8 q 393 14 394 8 q 394 -33 393 -3 q 394 -79 394 -33 q 389 -83 394 -90 q 386 -78 386 -82 q 379 -29 383 -61 q 379 -51 379 -36 q 379 -74 379 -67 q 381 -119 379 -97 q 369 -143 381 -144 q 349 -112 354 -142 q 347 -103 347 -107 q 343 167 340 13 q 338 165 340 165 q 328 -44 331 40 q 322 -49 328 -54 q 321 -40 321 -44 q 322 13 322 0 l 324 65 q 314 75 319 65 q 308 96 308 85 q 310 140 308 115 q 296 133 303 136 q 254 125 272 128 q 201 126 226 122 q 174 136 186 129 q 149 149 161 142 q 113 183 128 163 q 75 261 88 215 q 68 297 71 278 m 396 272 q 396 293 396 288 q 393 290 394 292 q 392 271 393 283 q 394 272 393 271 q 396 272 394 272 m 346 254 q 346 264 346 263 q 343 263 346 264 q 343 253 343 260 l 344 253 q 346 254 344 253 m 339 174 q 343 176 343 176 q 344 188 343 179 q 339 185 339 186 q 339 174 339 185 m 392 49 q 394 189 393 179 q 392 188 393 189 q 390 188 390 188 q 390 183 390 186 q 390 181 390 181 q 392 49 390 138 m 394 197 q 394 214 394 201 q 392 213 393 213 q 390 211 390 211 q 390 206 390 208 q 390 201 390 204 q 390 196 390 197 q 394 197 392 196 m 425 274 q 429 276 429 275 l 429 282 q 428 281 429 282 q 426 279 426 281 l 425 274 m 431 349 q 431 342 431 347 q 429 333 431 338 l 426 292 q 429 293 426 292 l 431 349 m 394 471 l 393 444 q 396 432 396 439 q 393 300 397 386 q 396 301 394 300 q 400 422 397 363 q 406 625 404 540 q 404 719 406 657 q 394 471 403 679 m 351 422 q 344 271 349 368 q 344 272 344 272 q 346 272 346 272 q 349 333 347 294 q 350 383 350 372 q 351 422 351 390 m 310 263 q 258 244 283 251 q 296 253 279 249 q 300 251 300 254 q 315 257 307 254 q 317 267 317 264 q 310 263 314 264 m 304 244 q 219 225 243 219 q 246 222 231 221 q 278 229 256 224 q 315 240 296 233 q 315 244 315 242 q 315 249 315 247 q 304 244 310 246 m 183 290 q 169 363 176 315 q 171 347 171 356 q 175 318 172 338 q 181 290 178 301 q 183 290 182 290 m 124 482 q 124 454 124 474 q 128 442 126 449 q 142 314 133 360 q 158 254 147 276 q 196 211 172 225 q 224 204 210 204 q 256 207 238 203 q 314 229 282 215 q 274 215 293 221 q 229 207 247 207 q 193 218 210 207 q 165 249 176 231 q 140 336 150 276 q 132 431 133 382 q 135 642 129 488 q 137 672 136 654 q 138 708 138 690 q 139 739 139 725 q 129 610 133 678 q 124 482 124 531 m 86 386 q 83 428 85 408 q 94 303 85 363 q 113 236 101 263 q 132 201 121 217 q 163 174 146 185 q 203 154 181 160 q 246 151 222 149 q 283 157 263 153 q 311 165 297 161 q 311 175 311 168 q 303 172 303 172 q 269 161 283 165 q 231 157 249 157 q 186 165 207 157 q 150 189 167 174 q 125 221 135 203 q 108 254 115 236 q 93 322 100 281 q 86 386 89 353 z "},"5":{"ha":782,"x_min":65,"x_max":746,"o":"m 207 828 q 399 907 289 872 q 497 935 450 924 q 603 954 554 949 q 608 950 608 954 q 600 944 607 944 q 560 938 579 942 q 588 939 564 938 q 592 936 590 938 q 665 942 632 942 q 668 936 674 942 q 664 933 667 933 q 526 914 603 935 q 622 924 569 921 q 628 920 628 924 q 625 915 628 917 q 688 915 658 919 q 690 910 694 915 q 686 908 689 908 q 671 906 681 907 q 654 903 663 904 q 713 897 685 903 q 725 879 732 893 q 700 867 717 867 q 554 851 638 871 q 479 832 521 844 q 403 807 436 819 q 399 806 401 807 l 396 806 l 396 804 q 453 822 422 813 q 526 840 494 833 q 667 851 607 857 q 669 846 672 850 q 665 844 668 843 q 604 843 638 846 q 601 832 606 838 q 589 825 596 826 q 517 810 557 819 q 443 792 478 801 q 386 775 413 783 q 381 762 383 771 q 376 749 378 753 q 394 751 392 775 q 386 699 396 733 q 351 593 372 651 q 358 567 361 594 q 357 554 358 561 q 356 546 357 550 q 356 542 356 546 l 356 540 l 354 540 l 354 539 l 357 538 q 356 538 356 538 q 356 535 354 536 q 356 536 356 536 q 357 538 357 536 l 357 538 l 360 539 l 368 543 l 385 551 q 419 568 406 561 q 499 596 461 588 q 521 601 510 599 q 544 604 532 603 q 597 604 572 607 q 656 585 629 599 q 704 542 685 569 q 732 490 721 519 q 742 442 739 468 q 744 396 744 419 l 744 375 l 743 356 q 731 275 739 315 q 682 126 715 204 q 650 57 665 86 q 608 -12 631 18 q 582 -46 597 -29 q 550 -76 567 -64 q 542 -83 550 -76 q 533 -90 538 -87 q 513 -104 522 -99 q 463 -124 488 -118 q 399 -121 429 -131 q 346 -87 368 -111 q 328 -65 336 -78 q 315 -42 321 -54 q 303 7 307 -19 q 307 22 304 21 q 315 -6 311 17 q 326 -42 319 -25 q 347 -75 335 -60 q 354 -83 350 -78 l 358 -86 q 363 -90 360 -87 q 382 -103 372 -97 q 425 -115 401 -114 q 368 -92 393 -112 q 357 -82 363 -87 q 347 -71 353 -78 q 333 -49 339 -61 q 332 -37 331 -39 q 318 24 321 -11 q 318 51 317 35 q 319 79 318 58 q 343 185 324 129 q 349 194 346 194 q 347 174 354 193 q 326 75 331 121 l 325 63 l 325 49 q 326 22 325 36 q 339 -33 328 -8 q 354 -60 344 -47 q 365 -72 358 -65 q 378 -82 371 -78 q 408 -97 393 -93 q 442 -100 425 -101 q 460 -97 450 -100 q 475 -93 468 -96 q 501 -79 488 -87 q 524 -64 514 -72 q 544 -46 533 -56 q 531 -58 542 -49 q 515 -69 517 -68 q 479 -89 497 -82 q 458 -94 468 -93 q 436 -97 447 -97 q 392 -85 411 -97 q 342 -19 356 -64 q 333 54 332 11 q 335 63 333 60 q 337 67 336 67 q 338 68 338 68 q 343 56 340 68 q 357 146 343 99 q 388 231 368 186 q 396 235 396 249 l 393 222 q 368 133 376 172 q 433 289 385 199 q 465 319 460 338 q 467 317 465 318 q 447 244 469 293 q 425 193 435 219 q 408 143 415 169 q 396 93 400 118 q 393 42 393 68 q 399 -1 393 15 q 407 -17 403 -10 q 413 -24 410 -21 q 417 -28 415 -26 q 443 -32 429 -36 q 481 -12 461 -28 q 546 65 517 15 q 594 164 569 103 q 647 378 642 279 q 647 383 647 381 q 648 390 647 386 q 649 394 649 393 q 649 411 649 401 q 644 444 647 429 q 647 394 649 422 q 643 342 647 371 q 619 239 636 292 q 581 139 604 192 q 529 49 556 83 q 499 11 514 26 q 481 -4 489 1 q 463 -17 471 -12 q 447 -24 454 -22 q 435 -25 440 -25 q 418 -17 425 -25 q 407 10 410 -7 q 406 50 404 26 q 424 142 407 92 q 431 147 429 154 l 429 132 q 418 92 424 117 q 414 51 414 67 q 414 15 413 32 q 418 3 415 8 q 419 -3 419 -1 q 422 -7 421 -4 q 426 -4 424 -6 q 428 -4 428 -4 q 430 -4 429 -4 q 431 -3 431 -4 q 432 -3 431 -3 q 435 1 433 -1 l 435 0 q 436 0 435 0 q 446 4 440 1 q 453 8 450 7 q 461 14 457 11 q 468 21 465 17 q 476 28 471 22 q 532 103 506 54 q 576 197 553 142 q 608 296 597 250 q 622 396 621 347 q 619 440 624 422 q 607 469 615 460 q 588 483 600 479 q 550 485 571 488 q 526 481 543 485 l 515 478 l 504 474 q 456 454 482 467 q 426 439 446 450 l 411 432 l 388 419 q 372 412 382 417 q 361 407 363 407 q 336 396 354 404 l 324 392 l 317 389 q 311 388 311 388 l 299 385 q 288 383 290 383 l 278 383 l 272 383 q 268 383 271 383 q 249 386 257 383 q 229 396 238 390 q 215 413 221 403 q 209 429 211 419 q 206 447 207 439 q 206 469 204 458 l 207 476 l 208 482 q 211 496 208 485 q 229 550 218 519 l 246 596 l 268 660 q 283 701 274 674 q 297 742 293 729 q 147 647 217 700 q 129 644 136 639 q 124 658 122 649 q 126 664 124 663 l 129 667 q 132 671 131 669 q 181 715 161 699 q 92 653 135 686 q 71 657 75 640 q 78 682 65 671 q 94 694 81 683 q 111 708 107 706 q 101 712 104 707 q 99 724 97 717 q 108 739 101 732 q 140 765 121 751 q 138 783 133 771 q 154 801 143 796 q 179 814 174 811 l 204 826 q 207 828 206 826 m 238 788 q 183 756 214 776 q 331 824 244 790 q 347 831 343 842 l 350 832 q 357 838 351 836 q 378 847 367 842 q 379 850 379 847 q 361 843 365 844 q 238 788 294 819 m 715 275 q 675 153 701 218 q 678 149 676 153 q 721 306 710 232 q 715 275 718 288 m 376 492 q 346 476 358 482 q 315 463 332 469 q 300 460 307 460 q 285 465 289 460 q 281 472 282 468 q 282 479 281 475 q 285 496 283 488 q 294 528 288 510 q 281 483 285 501 q 278 472 278 475 q 281 461 278 467 q 290 456 283 457 q 301 456 294 454 q 324 463 307 456 q 344 471 335 467 q 365 481 354 475 l 388 492 q 499 539 458 526 l 513 543 l 528 546 q 560 550 543 549 q 624 538 596 551 q 667 497 651 525 q 681 475 675 490 q 693 411 692 449 q 692 349 694 383 q 667 228 686 290 q 622 113 650 175 q 563 6 593 49 q 518 -43 542 -22 q 461 -78 489 -68 q 425 -81 442 -83 q 390 -68 407 -79 q 365 -43 376 -58 q 350 -12 356 -29 q 374 -56 357 -37 q 417 -82 392 -76 q 443 -83 429 -85 q 468 -76 456 -82 q 511 -53 490 -69 q 575 17 546 -26 q 619 97 597 49 q 681 269 661 189 q 694 361 692 317 q 696 407 696 389 q 690 456 696 435 q 669 507 685 486 q 624 546 651 533 q 568 557 599 557 q 514 550 543 557 q 465 535 490 544 q 419 514 444 526 l 397 503 l 376 492 m 282 590 q 346 761 314 675 q 335 757 338 758 q 282 590 322 718 m 601 911 q 479 883 550 906 q 425 865 454 875 q 425 863 425 864 q 517 890 431 865 q 601 911 572 906 m 446 904 q 446 908 446 906 q 396 892 422 900 l 406 893 q 446 904 424 899 z "},"6":{"ha":538,"x_min":-1,"x_max":469,"o":"m 426 290 q 449 272 433 294 q 456 260 451 268 q 458 254 457 257 q 461 246 460 250 q 464 239 463 243 q 465 232 464 236 q 467 215 467 222 q 465 176 468 199 q 456 142 461 157 q 425 83 444 113 q 407 60 418 74 l 397 49 l 388 38 q 340 -1 365 15 q 285 -31 314 -19 q 219 -44 253 -43 q 150 -35 183 -46 q 92 -1 118 -24 q 49 46 67 18 q 19 100 31 72 q 0 211 1 149 q 1 265 0 236 q 7 315 4 292 q 25 417 13 365 q 96 646 47 525 q 204 863 146 769 q 224 888 215 879 q 238 896 232 896 q 242 875 249 897 q 238 863 243 871 l 233 856 q 226 843 231 850 q 156 692 189 776 q 221 815 188 761 q 260 874 240 846 q 281 901 272 892 q 292 915 285 907 q 304 929 303 928 q 314 938 308 935 q 325 943 319 942 q 340 943 333 946 q 346 932 350 939 q 342 928 346 932 q 333 921 338 925 q 325 908 331 917 q 315 894 319 900 q 257 813 285 857 q 275 813 274 829 q 261 767 275 797 q 222 685 240 724 q 229 674 228 685 q 227 647 231 664 q 215 610 224 629 q 169 499 189 554 q 167 492 168 494 q 132 351 144 419 q 224 361 181 361 q 336 340 285 361 q 388 307 367 326 q 426 251 415 282 q 433 218 432 238 q 432 185 435 200 q 413 128 428 158 q 382 81 401 104 q 344 42 365 58 q 243 -11 296 0 q 183 -12 213 -17 q 128 8 154 -8 q 83 44 103 22 q 51 92 64 65 q 29 160 38 121 q 44 108 35 132 q 70 60 54 83 q 108 19 86 36 q 158 -8 132 0 q 217 -17 186 -18 q 274 -6 246 -15 q 365 54 322 14 q 428 144 408 97 q 442 206 440 175 q 426 272 443 242 q 383 324 411 301 q 331 354 360 343 q 276 372 308 365 q 221 378 250 376 q 211 382 213 381 q 229 385 217 386 q 282 379 254 385 q 307 372 301 374 q 321 368 319 368 l 333 363 q 382 336 358 353 q 426 290 410 317 m 381 235 q 351 272 372 256 q 373 247 365 261 q 383 217 381 233 q 368 150 386 186 q 326 93 354 121 q 300 69 314 81 q 269 50 285 58 q 238 39 254 43 q 206 35 222 35 q 144 54 172 35 q 100 104 117 74 q 76 169 83 132 q 76 304 67 222 q 69 304 74 304 q 65 244 65 272 q 65 201 64 221 q 71 183 68 196 q 103 96 79 131 q 171 38 131 53 q 215 32 193 31 q 261 42 238 33 q 338 100 303 60 q 367 142 356 119 q 378 164 372 150 q 383 188 382 178 q 381 235 389 214 m 215 65 q 217 68 215 67 q 212 68 215 68 q 207 68 208 68 l 201 68 q 197 68 199 68 q 179 74 189 69 q 146 97 161 81 q 157 86 153 90 q 185 69 169 75 q 215 65 199 64 m 167 324 q 128 317 149 321 q 122 267 124 290 q 126 167 118 206 q 133 146 129 154 q 142 128 138 135 q 153 112 147 119 q 165 99 158 104 q 193 83 179 86 q 224 83 207 79 q 260 97 240 86 q 296 126 279 110 q 313 144 304 133 q 325 163 319 153 q 339 199 338 182 q 338 224 342 213 q 314 247 332 236 q 311 256 306 253 q 325 251 317 258 q 344 231 339 242 q 350 207 350 221 q 342 242 351 226 q 342 247 338 246 q 315 265 332 257 q 300 272 307 271 l 292 276 l 282 279 q 272 281 279 279 q 265 283 265 282 l 256 285 q 246 286 251 285 q 208 288 233 288 q 200 290 200 288 q 214 294 204 294 q 251 293 229 296 q 288 285 275 289 q 319 272 306 279 q 346 253 336 264 q 365 201 368 232 q 343 140 364 174 q 368 225 378 188 q 346 263 364 246 q 303 289 329 279 q 296 293 299 290 q 294 296 294 294 q 306 297 296 299 q 233 311 271 310 q 158 307 199 313 q 149 307 150 306 q 154 313 147 310 q 161 315 157 315 q 242 325 206 326 q 167 324 207 328 m 96 440 q 72 329 81 383 q 81 333 76 332 q 114 486 90 407 q 163 628 135 557 q 96 440 119 528 z "},"7":{"ha":638,"x_min":68,"x_max":572,"o":"m 558 508 q 568 492 571 507 q 556 478 565 478 q 413 472 453 476 q 413 470 413 471 q 413 469 413 469 q 536 461 476 472 q 535 454 536 458 q 496 458 518 457 q 494 448 497 453 q 488 443 492 443 q 403 443 411 443 q 351 285 385 386 q 306 150 317 183 q 299 144 301 138 q 299 158 296 150 q 321 226 301 167 q 303 181 304 186 q 297 178 300 174 q 260 53 285 139 q 253 50 256 40 l 254 60 q 326 297 265 101 q 267 133 281 178 q 258 128 263 121 q 258 135 257 131 q 225 24 235 56 q 218 19 222 13 l 218 29 q 229 89 222 56 q 197 -19 210 24 q 181 -44 190 -46 q 169 -8 167 -44 q 172 11 169 1 q 201 120 185 61 q 231 218 218 179 q 266 328 243 257 q 299 428 289 399 q 297 427 297 428 q 294 426 296 426 q 234 255 275 368 q 175 86 193 142 q 168 83 171 75 q 169 94 167 88 q 211 217 200 182 q 206 232 207 219 q 208 258 204 244 q 261 414 222 300 q 215 397 243 407 q 204 402 208 394 q 203 418 200 410 q 204 422 203 421 l 206 424 q 208 425 207 425 q 242 446 229 438 q 182 428 201 433 q 172 432 175 425 q 169 447 168 439 q 176 458 171 456 q 199 467 188 463 q 192 480 192 469 q 200 496 193 490 q 219 506 207 500 q 219 522 217 513 q 229 535 222 532 q 260 539 246 538 q 261 540 260 540 q 308 553 283 547 q 344 674 331 621 q 368 811 365 753 q 364 858 369 843 q 361 865 363 863 q 358 868 360 867 l 358 869 q 357 871 357 871 q 350 876 354 875 q 342 876 346 876 q 324 875 335 876 q 313 874 319 875 q 309 872 311 872 q 305 872 307 872 q 301 871 303 871 l 289 867 l 278 864 q 186 822 232 849 q 155 815 164 810 q 156 832 146 819 q 161 840 156 836 l 167 844 q 175 849 171 847 q 282 903 229 885 q 100 815 197 881 q 83 806 90 808 q 73 806 76 804 q 69 813 69 808 q 94 849 68 831 q 161 890 128 872 q 149 892 153 889 q 147 900 146 894 q 157 914 150 906 q 176 928 165 921 q 247 960 211 947 q 247 967 246 963 q 253 976 249 971 q 265 985 258 981 q 283 992 272 989 q 306 997 294 996 q 349 999 329 1000 q 354 999 350 999 q 361 997 357 999 q 375 994 368 997 q 403 985 389 992 q 458 933 436 968 q 464 924 461 929 q 474 906 469 917 q 479 888 476 897 q 486 853 485 871 q 486 794 488 829 q 472 693 483 747 q 449 597 464 650 q 442 568 447 592 q 493 568 467 569 q 496 560 500 568 q 493 558 494 558 q 469 558 483 558 q 486 556 486 556 q 488 551 488 554 q 528 551 514 553 q 531 546 532 551 q 528 543 529 543 q 451 542 493 546 q 477 538 458 540 q 506 536 496 536 q 509 532 508 535 q 507 526 510 529 q 543 525 526 528 q 545 522 546 525 q 543 518 544 518 q 525 513 535 515 q 558 508 542 511 m 386 550 q 386 551 386 551 q 385 551 386 551 q 383 551 385 551 l 383 550 l 386 550 m 374 515 q 374 513 374 514 q 375 514 374 513 q 376 515 375 514 q 375 515 376 515 q 374 515 374 515 m 411 518 q 412 519 411 518 q 413 521 413 521 q 411 518 411 519 m 347 944 q 379 938 365 943 q 408 913 396 929 q 426 879 419 897 q 432 810 435 853 q 413 683 428 754 q 404 650 408 667 q 404 635 407 643 q 388 565 397 603 q 389 565 388 565 q 390 565 390 565 q 406 621 399 594 q 432 747 424 694 q 438 813 436 781 q 429 882 439 854 q 411 915 422 900 q 379 939 397 931 q 347 946 365 946 q 317 943 333 946 q 347 944 333 946 m 358 632 q 338 558 349 597 q 339 558 338 558 q 346 586 343 576 q 358 632 347 588 m 244 482 q 288 492 264 486 q 290 495 289 493 q 290 497 290 497 q 278 494 281 494 q 244 482 265 490 m 318 499 q 321 499 319 499 q 322 502 321 500 q 322 506 322 504 q 321 506 321 506 q 319 503 321 504 l 318 499 m 269 175 q 353 439 332 368 q 350 439 353 439 q 339 405 346 426 q 326 366 332 383 q 317 333 321 349 q 269 175 299 275 m 386 429 q 388 436 386 432 q 389 442 389 440 q 388 442 389 442 q 386 442 386 442 q 384 437 385 440 q 382 432 383 433 q 386 429 385 432 m 397 468 q 397 471 397 469 q 397 470 397 471 q 396 469 396 469 q 394 468 394 468 q 397 468 397 468 m 444 521 q 457 522 450 521 q 469 523 464 522 q 482 524 475 524 q 494 526 489 525 q 428 522 464 526 q 427 521 428 522 q 426 519 426 519 q 444 521 438 519 z "},"8":{"ha":629,"x_min":67,"x_max":563,"o":"m 74 592 q 71 657 68 624 q 104 769 75 713 l 110 782 l 118 794 q 132 818 125 806 q 167 860 149 840 q 206 899 185 881 q 228 917 219 910 q 240 925 235 921 q 253 932 244 928 q 307 957 279 949 q 372 968 340 968 q 442 953 410 968 q 497 913 472 939 q 532 861 518 890 q 544 833 539 847 q 551 806 549 818 q 560 700 561 763 q 554 683 558 685 q 551 715 550 692 q 544 794 551 761 q 532 838 539 818 q 511 878 524 858 q 536 819 528 851 q 546 764 543 794 q 543 753 544 753 q 543 683 544 725 q 540 617 543 646 q 528 485 536 556 q 525 472 526 474 l 521 478 q 522 497 521 486 q 533 622 529 561 q 536 685 535 649 q 535 750 538 724 q 522 818 532 788 q 489 883 511 854 q 426 931 463 915 q 349 939 390 946 q 403 936 378 943 q 453 913 429 929 q 513 831 493 883 q 529 738 526 792 q 526 647 529 708 q 522 631 525 633 q 519 633 521 628 q 517 646 518 639 q 493 414 513 539 q 490 401 492 404 q 486 404 488 399 l 486 422 q 494 543 492 496 q 465 329 486 454 q 497 274 483 301 q 543 114 538 196 q 540 26 546 68 q 515 -60 533 -18 q 490 -101 504 -83 q 451 -140 474 -125 q 396 -161 425 -157 q 331 -154 361 -167 q 294 -131 311 -146 q 271 -103 282 -119 q 242 -47 253 -78 q 218 67 224 1 q 240 285 210 176 q 260 333 249 314 q 274 353 268 349 q 279 326 286 360 q 276 306 281 319 q 272 292 275 301 q 267 272 268 275 q 254 208 258 240 q 250 143 250 174 q 261 14 249 74 q 256 68 257 40 q 254 122 253 93 q 267 229 256 176 q 299 332 276 281 q 299 334 299 332 q 300 336 300 336 q 283 350 292 343 q 250 378 272 361 l 213 406 q 172 438 188 424 q 131 478 147 458 q 96 529 110 503 q 88 544 90 538 l 82 560 q 74 592 76 575 m 319 189 q 321 56 313 121 q 328 53 324 60 q 339 35 333 47 q 347 18 342 29 q 356 -3 351 7 q 365 -22 361 -14 q 371 -32 368 -26 q 376 -39 374 -36 q 378 -40 378 -40 l 378 -40 l 378 -42 l 378 -42 l 379 -42 q 382 -40 382 -40 q 386 -39 385 -40 q 388 -37 388 -37 q 389 -36 389 -36 q 399 -26 394 -32 q 401 -19 401 -21 q 408 -6 406 -14 q 412 3 410 -3 q 415 11 414 10 q 422 46 419 29 q 425 82 425 65 q 424 119 425 103 q 404 192 418 157 q 388 228 396 211 q 367 261 378 244 q 342 293 356 278 q 325 311 335 301 q 304 247 313 279 q 322 257 318 279 q 319 189 325 240 m 472 18 q 481 82 481 49 q 456 211 481 147 q 389 324 433 271 q 350 367 371 346 q 346 360 349 364 q 447 215 415 293 q 474 100 471 158 q 457 -17 478 38 q 418 -78 442 -58 q 389 -92 406 -89 q 357 -90 372 -96 q 347 -84 353 -87 q 338 -76 342 -81 q 321 -54 329 -67 q 338 -76 328 -68 q 347 -85 342 -82 q 357 -92 351 -89 q 410 -86 382 -101 q 450 -43 433 -74 q 463 -14 458 -29 l 465 -6 l 468 1 q 472 18 469 7 m 468 667 q 457 801 471 760 q 428 850 447 831 q 406 865 417 860 q 383 874 396 871 q 328 864 358 876 q 272 831 300 854 q 225 782 246 810 q 188 725 203 754 q 169 600 154 657 q 250 499 182 550 q 288 469 263 488 q 326 440 314 450 q 308 455 318 447 q 286 471 297 463 q 268 485 275 479 q 215 529 235 510 q 194 553 206 539 q 191 559 194 554 q 186 567 188 564 l 182 572 l 179 579 q 169 607 172 593 q 167 636 167 621 q 179 697 168 665 q 192 726 185 713 q 208 754 200 740 q 250 804 226 781 q 274 826 261 815 q 299 844 288 838 q 351 867 326 861 q 376 868 365 868 q 399 863 388 867 q 433 832 418 854 q 444 808 440 821 q 449 796 447 801 q 453 783 451 789 q 458 722 458 758 q 454 656 457 700 q 440 519 450 590 q 436 507 439 506 q 435 531 432 508 q 446 654 443 594 q 449 715 449 692 q 446 769 450 747 q 432 785 442 769 q 427 792 431 788 q 424 799 424 797 q 415 813 418 807 q 390 836 404 829 q 361 840 378 843 q 317 822 339 836 q 293 807 304 815 q 271 786 282 797 q 232 740 249 765 q 217 714 224 728 q 204 689 210 701 q 194 636 194 660 q 196 613 194 624 q 203 590 199 600 q 217 568 207 582 q 235 546 226 554 q 285 504 251 529 q 310 485 288 501 q 344 458 332 468 q 364 440 353 451 q 393 461 381 456 q 403 456 406 465 q 388 429 401 450 q 385 424 386 428 q 403 404 394 413 q 438 365 421 386 q 439 374 439 369 q 468 667 464 550 m 125 697 q 117 635 117 665 q 129 571 117 601 q 161 515 140 542 q 206 472 179 494 q 255 433 222 457 q 297 401 288 410 q 322 382 310 392 l 324 383 l 325 385 q 319 389 321 388 q 281 419 304 403 q 235 451 257 435 q 194 485 213 468 q 142 549 160 515 q 136 558 140 550 l 133 564 l 132 569 l 128 579 l 125 589 q 119 632 119 610 q 135 715 118 671 q 172 788 147 753 q 225 850 194 822 q 290 899 257 881 q 374 921 333 921 q 418 913 397 921 q 457 889 438 904 q 504 815 489 860 q 518 732 515 781 q 511 790 517 765 q 490 849 504 824 q 450 897 475 878 q 423 913 438 907 q 392 922 408 919 q 326 917 360 928 q 271 890 300 910 q 222 853 246 875 q 182 807 200 832 q 125 697 140 753 m 104 739 q 83 618 79 676 q 99 554 86 583 q 132 500 111 526 q 106 542 115 522 q 89 590 94 564 q 85 640 85 615 q 106 733 88 688 q 104 739 104 733 z "},"9":{"ha":610,"x_min":18,"x_max":603,"o":"m 165 315 q 101 318 132 307 q 60 346 76 326 q 32 390 42 364 q 19 469 21 424 q 25 540 19 503 q 32 574 29 560 q 40 606 35 583 q 179 838 82 739 q 238 878 218 878 q 231 853 251 878 q 218 838 229 847 l 208 828 q 196 815 206 824 q 79 608 115 725 q 121 699 96 654 q 178 779 144 740 q 249 849 213 819 q 293 875 272 865 q 318 885 306 881 q 332 888 324 886 q 347 889 340 889 q 379 876 368 889 q 386 858 388 868 q 383 847 386 853 q 381 844 381 844 q 379 846 379 844 q 376 850 378 849 q 367 858 374 856 q 347 860 358 861 q 325 854 340 858 q 218 776 279 840 q 238 779 239 792 q 238 775 238 776 q 207 721 232 758 q 150 614 171 667 q 154 613 153 614 q 157 607 156 611 q 157 586 158 600 q 147 521 156 561 q 142 453 140 483 q 143 440 142 446 q 144 435 143 439 l 144 435 q 144 433 144 433 l 146 433 q 146 433 146 433 l 146 435 l 146 435 l 147 435 q 157 442 151 438 l 160 443 l 163 446 q 168 451 164 447 q 181 463 174 456 q 203 490 192 475 q 246 556 222 515 q 286 626 265 588 q 325 701 301 654 l 349 749 q 388 825 367 783 q 426 894 417 881 l 436 911 q 442 917 438 914 q 446 921 446 919 l 456 929 l 458 931 q 460 933 460 933 l 464 935 l 472 939 l 476 940 q 481 942 479 942 l 494 944 q 511 946 499 946 q 514 944 513 946 q 515 944 514 944 q 517 944 515 944 l 518 944 q 525 943 521 943 q 535 939 529 942 q 549 929 540 935 q 563 915 557 922 q 575 896 568 908 q 581 883 578 888 q 585 868 583 869 q 597 800 593 836 q 601 721 599 789 q 601 681 603 683 l 601 651 q 599 607 601 640 q 594 563 597 594 q 589 518 593 549 q 493 176 563 340 q 485 163 489 164 l 483 167 q 490 192 483 176 q 535 321 517 258 q 530 306 533 315 q 524 290 526 297 q 519 275 521 282 q 512 257 518 274 q 501 232 506 240 q 496 225 497 226 q 447 113 476 175 l 433 85 q 429 76 432 81 q 424 65 426 71 q 419 57 421 60 q 388 4 404 31 q 379 -4 379 -10 q 388 17 378 1 q 401 42 394 31 l 415 67 q 442 119 418 72 q 488 226 471 181 q 550 451 528 332 q 444 143 517 299 q 433 133 433 121 q 435 146 433 138 q 411 97 431 136 q 386 50 407 88 q 328 -39 357 -1 q 317 -49 318 -50 q 325 -29 315 -44 q 379 67 353 13 q 325 -19 354 19 q 257 -92 292 -64 q 218 -112 233 -111 q 213 -111 214 -114 q 213 -104 211 -108 q 264 -40 218 -92 q 338 64 300 0 q 396 182 374 131 q 443 306 424 243 q 478 435 464 369 q 499 565 492 494 q 501 581 500 568 q 503 599 501 593 l 504 632 q 506 651 506 639 q 506 665 506 664 l 507 676 l 507 686 q 501 768 508 736 q 496 788 497 782 q 488 794 493 794 q 481 789 483 794 q 460 753 471 774 q 436 706 450 735 q 472 774 458 750 l 478 782 q 483 789 481 788 q 492 789 488 793 q 496 779 494 786 q 503 740 501 761 q 504 701 504 722 q 504 683 504 701 l 504 675 l 503 671 l 503 665 q 490 538 501 604 q 321 68 454 283 q 313 63 313 54 q 319 81 313 69 q 372 179 353 136 q 396 229 378 189 q 401 244 397 235 q 406 256 406 254 q 417 282 414 276 q 414 306 411 285 q 422 350 417 333 q 453 474 440 414 q 471 600 465 538 q 475 664 475 647 l 475 668 l 476 668 l 476 669 l 476 672 q 478 678 478 676 q 476 708 479 694 q 475 713 476 711 q 472 713 474 714 q 469 708 472 713 q 461 697 465 704 q 453 683 458 693 l 450 681 l 450 678 l 449 676 l 447 674 l 432 643 q 365 522 394 574 q 329 463 344 488 q 286 403 306 428 q 256 371 271 386 q 239 356 247 363 l 235 351 l 231 347 q 219 340 224 343 q 208 333 215 338 l 203 329 q 196 326 201 328 q 165 315 181 318 m 511 931 q 500 931 507 931 q 508 931 504 931 q 518 929 511 931 q 532 921 526 926 q 569 861 558 897 q 583 756 582 813 q 588 753 586 757 q 579 825 586 788 q 564 882 572 864 q 539 915 554 900 q 524 928 529 925 q 518 929 521 929 q 514 931 517 931 q 513 931 514 931 q 511 931 511 931 m 89 439 q 93 420 90 429 q 100 404 96 411 q 125 381 110 386 q 161 382 142 374 q 197 404 178 388 q 258 471 228 429 q 354 633 301 532 q 382 688 364 654 q 385 700 382 693 q 388 707 386 703 q 392 717 389 711 q 431 796 414 763 q 434 802 432 799 q 438 809 436 806 q 440 815 440 813 l 446 825 q 449 831 447 826 l 451 833 l 461 849 l 471 861 l 476 868 l 481 875 l 490 886 q 503 896 496 894 q 513 893 508 896 q 519 888 517 892 q 526 872 521 885 q 533 857 531 865 q 543 822 539 840 q 551 740 550 786 q 552 728 551 735 q 553 718 553 722 q 553 707 553 714 q 553 696 553 700 q 551 656 553 688 q 539 511 549 579 q 465 218 517 354 q 526 422 504 319 q 554 636 549 528 l 556 664 l 556 679 q 556 688 556 681 q 556 696 556 696 q 554 763 554 751 q 544 824 551 797 q 538 850 543 836 q 528 874 533 863 q 524 885 528 876 q 515 894 519 890 q 503 897 510 899 q 492 892 497 896 q 488 886 490 889 q 482 880 485 883 q 478 874 479 876 l 464 856 l 461 853 l 456 844 l 449 833 q 444 826 447 832 l 440 819 l 432 806 q 401 744 419 781 l 372 685 q 346 633 354 651 q 290 533 315 576 q 226 442 254 474 q 189 404 208 419 q 178 396 185 400 q 168 390 172 392 q 149 383 158 385 q 126 385 138 381 q 103 406 111 389 q 99 413 100 408 q 97 417 97 417 q 97 418 97 417 q 96 421 96 419 q 90 440 93 429 q 92 525 85 478 q 89 439 83 478 z "},"\u0000":{"ha":0,"x_min":0,"x_max":0,"o":""},"\n":{"ha":0,"x_min":0,"x_max":0,"o":""},"\r":{"ha":0,"x_min":0,"x_max":0,"o":""}," ":{"ha":419,"x_min":0,"x_max":0,"o":""},"!":{"ha":249,"x_min":39,"x_max":210,"o":"m 186 818 q 193 817 190 818 q 199 811 196 815 q 205 801 203 807 q 208 789 207 796 q 208 775 208 782 q 203 707 207 760 q 203 703 203 704 q 197 568 200 643 q 191 433 194 493 q 184 299 188 374 q 179 165 181 225 q 174 161 179 156 q 169 171 169 164 q 171 222 169 172 q 167 186 167 188 q 164 183 167 181 q 164 159 164 175 q 164 136 164 143 q 164 113 164 132 q 164 89 164 93 q 158 85 163 79 q 156 92 156 88 q 156 181 156 121 q 156 272 156 242 q 147 146 149 188 q 144 139 147 139 q 138 144 140 139 q 139 103 139 115 q 139 60 139 93 q 133 57 138 50 l 131 63 q 124 106 128 78 q 124 65 124 90 q 124 25 124 44 q 113 3 122 3 q 92 31 97 4 q 90 39 92 35 q 96 476 85 179 q 99 511 97 492 q 72 92 85 293 q 67 89 72 82 q 65 96 65 92 q 69 190 67 131 q 63 194 67 190 q 56 205 58 199 q 54 218 54 211 q 67 433 57 299 q 82 647 79 590 q 88 903 85 800 q 93 923 89 917 q 103 928 97 929 q 113 919 108 926 q 117 913 115 917 l 117 907 q 117 900 117 903 q 122 808 119 850 q 131 960 126 893 q 143 979 132 981 q 160 957 157 979 l 161 949 q 160 892 161 925 q 178 892 167 908 q 185 869 183 882 q 186 818 186 846 m 153 693 q 153 776 153 714 q 148 680 153 761 q 140 556 143 599 l 139 531 q 143 519 143 526 q 142 447 143 488 q 138 365 140 407 q 136 293 136 324 q 138 175 136 261 q 139 258 138 201 q 140 343 140 314 q 146 510 143 431 q 153 693 151 626 m 175 375 l 176 446 q 175 432 176 438 l 171 375 q 175 375 174 375 m 178 -110 q 178 -117 178 -112 q 178 -131 178 -124 q 176 -157 179 -143 q 164 -212 174 -183 l 154 -212 l 154 -211 q 157 -201 156 -207 q 151 -208 154 -204 q 149 -210 151 -210 q 143 -228 146 -221 l 136 -228 q 143 -192 142 -211 q 130 -217 131 -215 q 126 -218 129 -218 q 121 -218 124 -218 q 117 -235 119 -228 q 113 -236 115 -236 q 108 -235 110 -236 q 106 -226 107 -231 q 99 -243 103 -235 q 89 -247 97 -246 q 74 -245 81 -247 q 68 -240 67 -243 q 74 -203 68 -236 q 82 -153 81 -171 l 82 -146 q 53 -231 76 -192 l 46 -231 q 56 -211 51 -221 q 48 -210 51 -211 q 42 -208 44 -210 q 40 -206 40 -207 q 45 -189 42 -199 q 51 -172 49 -179 q 55 -155 53 -164 q 58 -137 57 -146 q 60 -121 60 -129 l 57 -107 q 54 -92 56 -99 q 54 -72 53 -81 q 56 -60 54 -65 q 57 -49 56 -53 q 68 -43 60 -42 q 82 -51 76 -46 q 85 -56 85 -54 l 85 -57 q 85 -58 85 -58 q 86 -72 85 -65 q 90 -85 88 -79 q 93 -65 90 -74 q 101 -49 96 -56 q 117 -53 106 -43 q 126 -65 128 -61 q 125 -74 125 -69 q 150 -85 138 -74 q 154 -89 153 -86 q 169 -92 160 -89 q 178 -94 178 -93 q 175 -103 176 -99 q 176 -104 176 -103 l 176 -107 l 178 -110 m 129 -144 q 128 -108 131 -125 q 124 -93 126 -106 q 122 -99 122 -96 q 122 -106 122 -103 q 122 -114 122 -110 q 122 -136 122 -121 l 122 -140 q 126 -143 125 -142 q 126 -158 126 -153 q 125 -173 126 -162 q 124 -187 124 -183 q 122 -196 122 -192 q 122 -204 122 -200 q 122 -211 122 -208 q 129 -144 128 -192 m 163 -169 q 163 -156 163 -162 l 161 -158 q 158 -169 161 -162 q 163 -169 160 -169 z "},"\"":{"ha":547,"x_min":68,"x_max":478,"o":"m 233 921 q 239 918 236 924 q 224 901 231 911 q 233 897 229 900 q 236 892 238 894 q 226 876 233 888 q 215 859 218 865 q 206 843 211 853 q 197 824 200 833 q 192 807 194 815 q 192 778 192 796 l 193 764 q 194 756 193 757 q 186 754 194 756 q 171 753 176 753 q 167 754 168 753 q 165 756 165 756 q 156 775 161 761 q 156 758 156 764 q 156 751 156 754 q 157 744 156 749 q 143 738 158 740 q 126 741 128 735 q 122 757 124 747 q 108 756 117 753 q 96 764 99 758 q 92 779 93 771 q 76 785 85 781 q 69 793 68 789 q 74 810 71 801 q 74 811 74 811 q 122 940 78 876 q 131 938 125 942 q 124 925 126 931 q 128 928 125 926 q 131 932 131 931 q 136 932 132 933 q 149 953 142 944 q 154 949 151 954 q 133 910 143 932 q 144 922 136 913 q 156 935 151 931 q 164 932 158 939 q 175 950 169 942 q 180 949 176 951 q 183 946 183 947 q 182 936 183 942 q 196 951 189 944 q 201 953 197 953 q 210 951 206 953 q 217 947 214 949 q 222 942 221 944 q 224 938 224 939 q 179 849 188 874 q 178 840 179 846 q 233 921 194 889 m 104 876 q 111 889 106 879 q 107 890 110 889 q 103 872 104 881 l 104 876 m 151 899 q 154 908 153 903 q 158 917 156 913 q 161 926 160 922 q 131 850 144 901 q 122 807 124 829 q 124 786 122 800 q 135 839 126 807 l 136 844 q 133 847 133 846 q 135 861 133 854 q 140 874 138 868 q 145 887 142 879 q 151 899 149 894 m 478 949 q 460 932 468 942 q 469 926 465 931 q 471 921 472 922 q 459 904 468 917 q 446 885 450 892 q 435 867 442 878 q 424 847 428 857 q 417 828 419 838 q 411 765 414 807 q 403 760 411 760 q 388 765 394 761 q 385 767 385 765 l 383 768 q 383 771 383 769 q 378 796 379 786 q 371 757 374 771 q 362 753 368 753 q 348 758 356 754 q 340 765 340 761 q 342 781 340 772 q 335 780 339 779 q 327 782 331 781 q 320 786 324 783 q 317 790 317 789 q 314 806 314 797 q 299 812 306 807 q 293 822 292 817 q 300 840 296 832 q 299 842 299 842 q 361 979 310 913 q 368 978 364 982 q 369 974 371 975 q 361 963 367 969 q 369 969 367 967 q 374 969 371 971 q 389 990 383 983 q 396 986 392 993 q 369 944 381 968 q 381 957 372 947 q 394 971 390 967 q 403 968 399 976 q 417 986 408 978 q 421 985 418 988 q 424 982 424 983 q 422 971 424 976 q 438 988 429 979 q 449 988 442 990 q 460 979 456 985 q 464 971 465 974 q 408 875 419 901 q 406 867 407 871 q 471 953 429 919 q 478 949 475 954 m 336 910 q 344 924 339 915 q 342 925 343 924 q 335 907 336 914 l 336 910 m 386 932 q 392 945 388 935 q 399 961 396 956 q 360 881 381 935 q 347 833 351 858 q 346 811 346 825 q 363 867 351 833 l 365 874 q 363 876 363 875 q 367 894 364 886 q 378 915 371 903 q 386 932 385 928 z "},"#":{"ha":728,"x_min":3,"x_max":663,"o":"m 631 1072 q 654 1086 644 1103 q 654 1049 663 1071 q 628 985 647 1033 q 646 981 642 1000 q 643 951 649 968 q 624 890 633 919 q 633 873 632 890 q 626 836 635 856 q 593 758 606 786 q 592 753 593 756 q 554 653 567 685 q 560 650 560 650 q 563 631 574 642 q 553 624 558 625 q 543 624 549 622 q 518 556 532 593 q 547 551 535 554 q 550 546 554 550 q 543 542 547 542 q 515 546 531 544 q 515 544 515 546 q 531 540 528 542 q 533 536 535 540 q 600 524 571 532 q 601 518 606 522 q 596 517 599 515 q 510 531 557 528 q 509 529 510 531 q 508 526 508 528 q 557 517 532 522 q 562 513 563 515 q 557 508 561 510 q 613 493 588 503 q 614 488 618 492 q 610 486 613 486 q 600 487 606 486 q 590 488 594 488 q 581 489 585 488 q 631 469 607 481 q 636 450 646 461 q 611 443 626 439 q 547 458 583 453 q 486 465 518 464 q 485 462 486 464 q 483 458 485 460 q 578 436 538 453 q 579 431 583 433 q 575 429 578 428 q 521 444 550 439 q 515 434 521 439 q 504 431 510 429 q 475 432 492 432 q 382 136 419 272 q 375 129 379 126 q 374 143 371 133 q 390 204 376 154 q 375 163 376 164 q 371 160 374 157 q 357 104 368 150 q 350 76 354 94 q 344 49 346 58 q 339 44 342 39 q 338 54 336 49 q 392 267 360 150 q 367 194 383 247 q 344 119 358 171 q 338 115 342 108 q 335 121 336 117 q 324 71 335 117 q 318 44 322 61 q 313 21 314 28 q 306 17 310 11 q 304 25 304 21 q 311 79 306 42 q 299 31 303 44 q 288 -18 299 29 q 274 -42 283 -40 q 260 -12 261 -42 q 261 8 258 -3 q 375 435 294 196 q 373 435 374 435 q 372 435 372 435 q 332 319 351 375 q 257 75 294 207 q 251 71 254 67 q 251 82 249 75 l 258 110 q 261 119 260 114 q 264 128 263 124 q 267 138 265 133 l 282 193 q 276 206 278 194 q 276 231 274 218 q 343 435 303 322 q 233 419 283 431 q 230 419 232 419 q 226 418 228 418 q 223 403 226 414 q 218 388 219 393 q 133 60 165 208 q 129 53 132 53 q 125 56 128 53 q 125 68 124 61 q 139 132 126 79 q 126 88 126 89 q 121 85 124 82 q 116 56 119 76 q 110 26 113 36 q 105 -3 108 17 q 100 -33 101 -24 q 94 -36 97 -43 l 93 -26 q 97 0 94 -19 q 103 29 100 19 q 106 44 104 36 q 108 57 107 51 q 111 71 110 63 q 114 85 113 79 q 117 103 115 93 q 122 123 119 113 q 125 140 124 133 l 131 169 l 138 197 q 115 119 131 175 q 96 42 108 96 q 89 36 93 29 q 88 42 88 38 q 78 -11 86 35 q 73 -38 76 -21 q 69 -64 69 -56 q 63 -68 67 -75 q 61 -60 61 -64 q 65 -3 61 -43 q 60 -26 64 -8 q 56 -54 57 -44 q 51 -77 54 -58 q 47 -106 49 -96 q 33 -131 42 -131 q 18 -96 19 -129 q 18 -81 17 -87 q 115 379 43 118 q 114 378 114 378 q 76 249 93 311 q 11 -10 42 126 q 6 -14 10 -21 q 4 -4 3 -10 l 11 25 q 13 33 11 29 q 15 40 14 38 q 16 47 15 43 q 18 56 17 51 l 32 114 q 24 127 26 115 q 24 151 21 139 q 82 365 46 247 q 79 364 81 365 q 78 364 78 364 q 67 362 72 361 q 60 365 63 363 q 58 373 58 368 q 58 382 57 378 q 63 386 58 385 l 65 389 q 69 390 67 390 q 93 406 83 400 q 94 407 94 406 q 96 411 96 410 q 28 386 64 400 q 10 394 11 379 q 22 417 8 410 q 57 432 36 424 q 49 444 47 433 q 61 463 50 456 q 94 479 72 469 q 96 497 90 486 q 114 511 101 507 q 129 514 117 511 q 135 533 129 515 q 144 561 142 551 q 93 540 129 554 q 78 544 83 536 q 76 560 72 551 q 79 565 76 564 l 82 567 q 86 568 83 568 q 132 594 121 589 q 49 567 71 574 q 33 578 35 563 q 44 599 35 593 q 75 610 58 604 q 68 623 67 613 q 78 639 69 633 q 106 654 90 647 q 106 671 101 661 q 121 683 111 681 q 160 693 139 689 q 163 694 161 694 q 190 704 175 699 q 279 990 232 846 q 300 1017 289 1018 q 308 1003 307 1015 q 310 993 311 1000 l 308 988 q 306 978 307 982 q 278 865 288 906 q 342 1049 311 964 q 364 1067 353 1079 q 365 1026 375 1054 q 360 1009 364 1018 q 355 992 357 1000 q 349 975 353 985 q 344 958 346 965 q 361 956 356 975 q 361 924 365 943 q 343 860 353 893 q 352 852 349 860 q 355 831 356 844 q 350 803 354 817 q 325 733 342 781 q 460 738 399 744 q 565 1021 511 882 q 590 1043 578 1053 q 596 1031 596 1040 q 596 1021 597 1028 l 594 1015 q 592 1007 593 1011 q 558 901 583 983 q 631 1072 596 996 m 192 479 q 191 477 192 479 q 190 475 190 475 q 192 475 190 475 q 193 476 193 475 q 194 478 193 476 q 194 481 194 479 l 193 481 l 192 479 m 139 461 q 139 461 139 461 q 139 461 139 461 m 169 392 q 170 396 169 393 q 172 400 171 399 q 170 399 171 400 q 169 399 169 399 q 124 228 136 282 q 94 81 110 171 q 142 288 122 210 q 169 392 143 293 m 171 642 q 172 646 171 643 q 138 632 161 642 q 171 642 153 636 m 196 363 q 208 407 204 390 q 205 397 207 403 q 203 390 203 390 l 182 322 q 185 319 183 321 l 196 363 m 211 536 q 229 592 221 564 q 225 590 228 592 q 221 589 222 589 q 208 550 210 556 l 203 533 q 207 535 204 533 q 211 536 210 536 m 456 728 m 453 517 q 451 517 453 517 q 450 517 450 517 q 450 514 450 515 q 449 513 449 513 q 450 513 449 513 q 451 513 451 513 l 453 517 m 450 713 q 424 713 436 713 q 449 708 435 711 q 449 710 449 710 q 450 713 450 711 m 319 718 l 324 718 q 358 721 342 721 q 358 725 358 722 q 319 718 342 722 m 308 682 q 307 679 307 681 q 413 692 347 689 q 442 693 428 693 q 443 696 443 693 q 383 693 415 697 q 308 682 351 690 m 317 635 q 297 632 303 632 q 413 642 364 643 q 422 640 415 640 q 424 646 422 642 q 317 635 375 646 m 418 564 q 418 561 418 563 q 418 562 418 561 q 418 564 418 563 m 390 560 q 411 614 403 593 q 346 613 379 615 q 283 604 314 610 q 267 547 272 568 q 353 558 310 556 q 390 560 371 560 m 401 514 l 400 514 q 400 513 400 514 q 400 511 400 511 q 401 514 401 513 m 297 818 q 265 724 278 763 q 268 724 265 724 l 269 724 q 282 767 276 746 l 297 818 m 247 669 q 245 665 246 668 q 244 661 244 663 q 250 663 249 663 q 252 667 251 664 q 253 671 253 669 q 247 669 251 671 m 353 461 q 338 460 344 461 q 315 457 319 458 q 353 461 333 460 m 371 510 q 372 513 372 511 q 307 504 340 508 q 250 494 279 500 q 249 492 250 494 q 247 488 249 489 q 278 493 264 490 q 294 494 290 494 q 301 500 297 499 q 371 510 332 507 m 356 543 q 385 544 367 543 q 385 545 385 544 q 386 547 385 546 q 347 543 363 544 l 356 543 m 385 464 l 383 464 l 382 464 q 382 463 382 464 q 383 463 382 463 q 383 463 383 463 q 385 464 383 464 m 400 354 q 425 435 406 375 q 424 435 424 435 q 379 297 393 347 q 343 157 364 244 q 400 354 378 283 m 435 463 q 436 467 435 464 l 433 467 l 432 463 q 433 463 432 463 q 435 463 435 463 m 457 422 q 460 433 457 425 q 458 433 460 433 l 440 383 q 443 382 442 383 l 457 422 m 469 460 q 469 462 469 461 q 469 464 469 463 q 469 460 469 461 m 468 560 q 490 619 479 589 q 483 621 488 619 q 479 613 482 618 q 475 601 476 606 l 465 574 q 464 560 467 568 q 466 560 464 560 q 468 560 468 560 m 493 626 q 497 638 494 633 q 490 639 490 639 q 486 629 489 638 q 493 626 492 626 m 536 510 q 504 514 521 513 q 503 513 503 514 q 503 513 503 513 q 536 510 522 511 m 514 685 q 517 693 515 688 q 519 701 519 699 q 514 703 519 701 q 508 686 511 694 q 514 685 513 686 m 558 806 l 575 854 q 517 710 540 769 q 522 708 522 708 q 540 757 535 740 q 558 806 549 779 z "},"$":{"ha":657,"x_min":65,"x_max":589,"o":"m 586 -15 q 586 -58 588 -37 q 576 -104 585 -83 q 551 -150 568 -131 q 507 -183 533 -172 q 456 -197 483 -196 q 431 -197 443 -199 q 436 -247 433 -225 q 435 -254 436 -253 q 429 -250 432 -256 l 428 -243 q 422 -196 426 -226 q 407 -194 414 -196 q 406 -194 407 -194 q 404 -193 406 -193 q 415 -290 411 -247 q 414 -297 417 -296 q 408 -293 411 -300 l 407 -287 q 394 -225 403 -268 q 406 -343 403 -307 q 399 -375 410 -375 q 374 -336 385 -374 q 371 -322 372 -329 q 353 -174 361 -251 q 342 -168 347 -172 l 339 -167 q 344 -247 342 -210 q 343 -254 344 -253 q 338 -250 340 -257 l 336 -243 l 332 -174 l 331 -161 q 324 -156 329 -160 q 292 -128 307 -143 q 243 -65 267 -103 q 204 -3 224 -37 q 188 50 183 36 q 208 42 190 63 q 218 31 213 40 l 224 21 q 232 7 229 13 q 289 -75 264 -43 q 328 -114 308 -99 l 328 -111 q 304 -85 315 -99 q 257 -15 282 -58 q 186 133 214 56 q 178 172 176 160 q 186 178 178 182 q 222 125 203 169 q 274 18 244 69 q 276 38 268 38 q 282 35 279 38 q 303 17 290 31 q 297 208 299 106 q 258 235 279 221 q 233 250 258 235 q 194 275 208 265 q 126 333 153 304 q 78 424 92 374 q 71 519 65 468 q 78 563 74 542 q 89 604 82 583 q 96 624 90 608 l 104 643 q 121 679 113 663 q 210 811 157 751 q 265 868 235 842 q 296 893 278 879 q 299 896 296 894 q 301 899 301 897 q 300 936 301 921 q 311 974 299 972 q 324 961 318 974 q 328 951 326 958 l 328 944 q 329 933 329 939 q 330 925 329 931 q 331 918 331 919 q 340 922 336 921 q 338 1022 339 976 q 347 1053 336 1054 q 368 1018 361 1051 l 368 1010 q 372 928 371 968 q 381 939 375 939 q 390 929 386 939 q 406 933 399 932 q 471 936 440 942 q 529 910 501 931 q 536 900 540 901 q 517 910 531 900 q 461 930 490 926 q 404 925 432 933 q 394 922 400 924 q 397 913 396 918 q 401 912 401 914 q 397 907 401 910 q 399 906 399 906 q 438 914 418 913 q 485 907 463 915 q 554 846 528 890 q 557 835 560 835 q 544 846 553 836 q 472 896 513 888 q 536 849 508 885 q 568 774 556 819 q 574 735 576 746 q 563 731 571 724 q 528 793 550 742 q 517 815 522 806 q 506 832 511 824 q 475 857 490 849 q 458 863 465 861 q 440 864 449 864 q 403 853 424 863 q 403 840 403 843 q 411 843 408 842 q 429 849 418 846 q 444 850 436 850 q 458 847 453 849 q 469 842 463 846 q 471 836 475 838 q 463 836 467 833 q 443 842 454 842 q 431 840 440 842 q 416 836 421 838 q 404 831 411 835 q 404 827 404 829 q 404 823 404 825 q 404 819 404 821 q 415 815 410 822 q 424 792 421 807 q 428 760 428 776 q 422 657 425 717 q 422 650 422 654 q 422 555 422 621 q 419 453 421 489 q 421 264 419 358 q 481 206 454 236 q 551 100 524 156 q 579 25 569 64 q 583 6 582 8 l 585 -4 q 586 -15 586 -14 m 276 864 q 233 822 253 844 q 296 876 263 851 q 303 881 300 881 l 303 883 l 301 886 q 301 885 301 886 q 299 883 300 885 q 276 864 282 871 m 236 803 q 175 721 201 764 q 268 829 215 781 q 303 858 283 844 q 303 867 303 861 q 236 803 265 838 m 101 399 q 161 321 119 357 q 136 347 146 335 q 97 417 110 378 q 86 493 86 451 q 82 496 85 493 q 86 447 82 471 q 101 399 92 422 m 297 267 q 297 271 297 271 q 267 289 282 281 q 215 322 231 311 q 167 365 186 343 q 146 392 154 379 q 131 422 136 407 q 122 454 126 435 q 119 488 119 474 q 126 551 118 518 q 144 611 132 581 q 169 668 154 638 q 239 776 197 724 q 303 843 269 814 q 303 844 303 843 q 264 807 282 826 q 206 736 232 774 q 158 656 179 699 q 126 568 136 608 q 117 472 113 515 q 128 422 119 446 q 153 378 136 399 q 224 314 176 346 q 262 289 238 304 q 297 267 286 274 m 297 324 q 233 368 250 354 q 175 442 188 403 q 172 535 161 481 q 188 583 178 558 q 197 608 188 588 q 208 632 206 628 q 303 764 244 706 q 303 776 303 768 q 246 707 271 743 q 193 611 215 661 q 165 510 169 556 q 185 415 161 454 q 261 346 206 383 q 297 324 268 342 m 303 564 q 303 643 303 589 q 304 726 303 697 q 214 576 246 658 q 194 488 194 528 q 200 450 194 468 q 218 418 206 433 q 292 357 238 393 q 294 356 293 357 l 299 354 q 303 564 299 432 m 340 886 q 340 896 340 892 q 333 890 336 893 q 333 886 333 889 q 333 882 333 883 q 340 886 338 885 m 340 810 l 339 810 q 340 806 339 808 q 340 803 340 803 q 340 807 340 804 q 340 810 340 810 m 340 915 q 332 908 336 911 q 332 900 332 906 q 340 904 338 903 q 340 908 340 906 l 340 915 m 324 365 q 324 350 324 360 q 324 338 324 340 q 324 365 324 354 m 324 307 q 324 307 324 307 l 324 307 m 324 254 q 324 249 324 254 q 324 248 324 249 q 325 247 325 247 q 325 251 325 249 q 325 253 325 253 q 324 254 325 253 m 332 -21 q 339 -31 335 -25 q 326 186 331 74 q 325 188 325 188 q 332 -21 326 83 m 336 -121 q 347 -129 342 -125 q 347 -128 347 -128 q 336 -119 342 -124 q 336 -121 336 -119 m 369 304 q 371 303 369 304 q 372 303 372 303 q 371 367 371 336 q 374 633 371 431 q 372 757 374 682 q 369 653 371 715 q 365 535 367 590 q 364 432 364 479 q 364 416 364 429 q 364 396 364 403 q 367 381 367 390 q 369 304 368 349 m 372 221 q 372 211 372 219 q 373 210 372 211 q 375 210 374 210 q 375 219 375 213 q 373 220 374 219 q 372 221 372 221 m 392 -71 q 378 140 383 42 q 375 144 375 143 q 379 50 376 90 q 390 -71 383 -1 q 392 -71 392 -71 m 410 188 q 407 190 408 189 q 406 192 407 190 q 406 187 406 190 q 407 181 406 183 q 408 179 407 181 q 410 178 410 178 q 410 183 410 179 q 410 188 410 186 m 406 -71 q 410 -71 407 -71 q 403 19 406 -19 q 406 -71 403 -33 m 424 -72 q 425 -72 425 -72 q 424 -53 424 -57 q 424 -72 424 -58 m 426 81 q 436 -74 431 3 q 440 -74 439 -74 q 453 -74 449 -75 q 458 -72 456 -74 q 463 -65 461 -69 q 468 -50 467 -60 q 468 -44 468 -46 q 467 -21 468 -33 q 461 6 464 -4 q 452 32 457 19 q 439 58 447 44 q 426 81 435 68 m 515 -78 q 521 -24 524 -54 q 510 31 519 3 q 458 132 494 82 q 424 174 443 153 q 424 169 424 172 q 424 164 424 165 q 443 142 435 151 q 492 64 474 104 q 517 -24 513 19 q 503 -99 521 -71 q 440 -129 483 -131 q 488 -117 468 -131 q 515 -78 507 -103 z "},"%":{"ha":1074,"x_min":19,"x_max":1007,"o":"m 750 639 q 572 372 650 493 q 406 101 483 233 q 397 100 399 92 l 400 111 q 431 164 403 118 q 407 129 407 131 q 401 128 403 124 q 371 74 390 108 q 346 29 351 39 q 340 29 340 19 l 342 38 q 447 224 394 132 q 406 161 435 207 q 365 97 390 139 q 358 92 361 90 q 357 100 356 93 q 346 78 354 93 q 333 56 338 64 q 308 13 328 47 q 301 10 304 4 q 303 18 300 13 q 322 67 310 36 q 299 25 322 67 q 288 6 296 21 q 275 -17 279 -10 q 249 -29 257 -49 q 256 14 242 -12 q 518 465 354 210 q 540 500 528 482 q 269 79 417 314 q 264 78 264 69 q 265 86 263 82 q 324 182 319 175 q 320 197 319 185 q 326 218 321 208 q 465 435 383 313 q 549 556 494 476 q 611 646 604 636 q 789 899 703 786 q 819 914 810 928 q 819 901 822 910 q 818 892 821 897 l 814 888 q 810 879 813 883 q 781 833 783 838 l 751 788 q 807 860 793 843 l 835 894 l 864 931 q 890 938 885 956 q 881 901 896 922 q 869 888 876 896 q 860 875 863 879 q 849 862 856 871 q 840 849 843 853 q 856 840 856 858 q 846 813 854 826 q 811 761 824 778 q 818 742 819 758 q 803 708 815 724 q 780 678 797 700 q 753 643 763 656 q 750 639 751 640 m 374 132 q 475 304 457 274 q 528 390 478 310 q 541 411 532 397 q 554 433 550 425 q 581 475 571 458 q 701 656 618 532 q 719 681 710 667 q 740 712 729 696 q 757 739 750 728 q 604 522 668 619 l 588 499 q 583 486 588 493 q 514 374 563 451 q 442 257 465 297 q 374 132 419 218 m 524 321 q 545 356 531 332 q 568 393 560 379 q 558 379 564 388 l 521 324 q 524 321 524 322 m 1000 315 q 1003 246 1007 283 q 1003 238 1003 242 q 997 207 1000 221 q 994 193 997 203 q 990 179 994 192 q 982 153 989 175 q 972 126 974 131 q 914 29 950 75 q 876 -14 896 6 q 833 -51 853 -36 q 811 -67 828 -56 q 783 -83 797 -76 q 751 -97 767 -92 q 732 -101 740 -100 q 721 -104 726 -103 l 715 -104 l 710 -104 q 622 -79 660 -107 q 592 -46 604 -65 q 585 -36 589 -42 q 581 -26 582 -31 q 574 -8 576 -18 q 568 7 571 -1 q 565 22 565 22 q 563 39 563 36 l 561 54 q 563 114 558 83 q 594 221 569 164 q 618 267 604 243 q 643 311 628 285 q 653 315 651 321 q 649 299 653 308 q 610 231 626 264 q 639 276 621 250 q 644 279 643 283 q 686 344 664 314 q 689 364 685 356 q 722 396 699 385 q 765 407 739 404 q 756 421 746 410 q 796 435 768 433 q 822 435 810 436 q 846 435 846 451 q 846 433 846 435 l 846 432 q 885 422 867 429 q 911 428 885 433 q 924 424 918 426 q 932 419 928 422 q 939 415 935 418 q 968 388 956 406 q 989 353 981 372 q 1000 315 997 332 m 807 375 q 801 368 804 372 q 874 357 843 371 q 853 367 865 361 q 829 372 840 369 q 807 375 818 374 m 756 372 q 738 349 746 360 q 760 374 747 360 q 756 372 757 374 m 719 356 q 713 338 714 347 q 735 367 722 353 q 719 356 725 363 m 774 336 q 732 278 751 308 q 696 217 713 249 q 668 151 679 183 q 656 86 657 118 q 656 54 654 71 q 657 50 657 53 q 657 46 657 47 q 658 39 658 40 q 663 24 663 26 q 665 17 664 21 q 668 11 668 13 q 675 3 671 7 q 694 -8 682 -6 q 718 -6 706 -10 q 746 6 731 -3 q 765 18 754 11 q 783 32 767 19 q 728 -3 750 6 q 703 -7 714 -8 q 683 -1 692 -7 q 669 14 675 4 q 665 25 668 18 q 663 39 665 28 q 661 100 657 67 q 708 221 669 156 q 789 328 743 279 q 796 331 794 335 l 792 319 q 719 224 751 275 q 724 208 725 221 q 718 185 724 196 q 686 72 686 121 q 689 47 686 61 q 692 35 692 36 q 693 31 692 33 q 693 28 693 28 q 703 19 694 21 q 704 19 704 19 q 708 19 708 19 q 718 22 713 19 q 742 33 728 25 q 793 74 769 50 q 867 181 842 119 q 878 218 874 201 q 883 254 882 236 q 874 308 886 290 q 858 324 868 318 q 832 333 847 331 q 799 338 817 338 q 782 336 789 338 q 774 336 778 336 m 651 276 q 599 153 614 211 q 638 239 613 194 q 686 317 660 278 q 694 323 692 325 q 694 313 697 321 q 700 321 696 315 q 697 324 699 322 q 689 333 693 326 q 689 335 689 333 q 651 276 668 307 m 717 -89 q 736 -86 726 -89 q 721 -89 729 -87 q 718 -89 721 -89 q 714 -89 714 -89 q 706 -90 707 -90 q 640 -72 668 -90 q 596 -21 613 -54 q 592 -21 594 -22 q 653 -81 613 -64 q 694 -90 672 -89 q 717 -89 706 -90 m 950 225 q 953 289 957 260 q 944 322 950 307 q 928 351 938 338 q 946 311 940 333 q 951 268 951 290 q 936 186 950 231 q 856 47 910 107 q 832 21 844 33 q 822 7 829 14 q 807 -7 811 -3 l 799 -12 l 790 -19 q 754 -42 771 -33 q 710 -54 731 -53 q 661 -44 682 -57 q 628 -10 640 -33 q 614 32 619 6 q 608 75 610 51 q 613 117 610 97 q 672 275 622 189 q 621 167 636 217 q 608 42 599 99 q 615 11 611 26 q 622 -6 618 3 q 632 -21 626 -14 q 659 -47 643 -37 q 694 -57 675 -56 q 763 -40 726 -58 q 789 -24 776 -32 q 814 -4 799 -17 q 950 225 925 86 m 278 326 q 250 304 264 314 q 233 294 242 299 q 224 290 228 292 q 213 285 219 288 q 165 276 189 276 q 118 285 140 276 q 78 310 96 293 q 49 347 61 325 q 35 382 40 364 q 29 399 32 390 q 26 415 26 413 q 24 446 24 432 q 33 561 19 499 q 47 614 39 583 q 64 664 57 642 q 72 668 71 681 q 71 653 74 663 q 47 575 57 614 q 67 629 56 600 q 71 632 69 636 q 111 739 88 688 q 106 757 104 744 q 118 786 106 772 q 151 815 131 801 q 190 836 171 828 q 177 838 181 835 q 176 847 174 840 q 214 874 185 864 q 261 883 238 882 q 313 881 288 885 q 314 885 311 883 q 323 889 317 888 q 338 889 329 890 q 367 882 351 889 q 401 861 386 875 q 417 846 410 853 q 429 829 421 840 q 449 792 442 810 q 463 719 463 758 q 464 710 464 714 q 458 646 464 681 q 453 617 456 632 q 449 601 451 614 q 444 589 444 589 q 425 535 438 564 q 400 483 414 507 q 338 389 372 432 q 299 346 319 367 q 278 326 286 333 m 233 817 q 229 808 232 813 q 313 813 274 825 q 264 821 290 822 q 233 817 250 821 m 208 767 q 158 653 179 711 q 135 581 144 617 q 119 507 124 539 q 119 436 114 468 q 121 427 119 432 q 122 419 122 422 q 128 404 125 411 q 133 391 131 396 q 140 383 136 386 q 161 374 149 374 q 183 376 172 372 q 210 394 196 382 q 238 421 221 403 q 269 458 251 436 q 219 404 247 431 q 193 383 204 390 q 186 381 189 382 q 181 378 183 378 q 169 375 175 376 q 150 379 158 374 q 136 394 142 383 q 131 406 133 399 q 126 419 128 413 q 122 451 124 436 q 146 588 119 507 q 203 719 168 656 q 208 724 207 726 q 207 711 211 719 q 157 593 176 654 q 164 578 163 592 q 163 553 165 565 q 150 486 153 515 q 150 456 149 471 q 151 442 150 447 q 151 435 151 438 q 153 428 153 429 q 156 417 154 422 q 157 413 156 415 q 158 412 157 413 q 158 411 158 411 l 158 410 q 161 405 158 407 q 167 403 164 403 q 171 403 169 401 q 174 404 171 403 q 179 406 175 404 q 201 422 188 411 q 208 429 204 425 q 214 435 213 433 l 226 447 q 272 503 251 474 q 333 632 314 564 l 336 643 l 339 653 q 343 672 342 664 q 344 711 346 693 q 338 742 343 728 q 324 764 333 754 q 274 783 306 782 q 211 768 244 785 q 208 767 211 767 m 175 792 q 172 786 174 789 q 149 725 158 753 q 189 800 167 764 q 175 792 182 796 m 61 564 q 51 493 53 526 q 72 590 56 536 q 106 681 86 635 q 114 686 111 694 l 114 679 q 163 785 135 736 q 133 756 143 771 q 126 746 129 749 q 124 742 125 743 q 121 739 124 740 q 119 738 121 739 q 79 632 96 685 q 61 564 68 594 m 72 414 q 83 381 76 396 q 104 349 93 361 q 138 328 119 333 q 176 325 156 321 q 196 329 186 326 q 206 333 200 332 q 214 338 208 335 q 242 358 228 346 q 265 381 251 367 q 308 429 288 404 q 379 551 351 486 q 401 618 393 583 q 410 653 407 635 q 414 689 414 671 q 407 757 417 726 q 392 789 401 772 l 386 797 q 381 804 386 797 q 375 811 378 808 q 368 817 372 814 q 396 779 385 801 q 408 735 406 758 q 403 647 414 694 q 392 606 400 631 q 378 565 385 582 q 340 490 361 526 q 319 458 331 474 q 313 443 318 451 q 258 376 289 408 q 224 347 239 358 q 203 335 213 340 q 178 328 190 329 q 128 335 150 322 q 92 371 107 346 q 76 414 82 390 q 71 458 72 435 q 78 549 69 499 q 99 635 85 589 q 82 575 89 606 q 69 513 74 542 q 68 447 65 478 q 72 414 69 428 m 232 310 q 261 331 247 318 q 239 315 250 322 q 226 308 232 311 q 219 304 222 306 q 211 301 214 303 q 175 293 193 294 q 108 308 138 289 q 104 307 107 307 q 192 293 143 282 q 214 301 203 296 q 224 305 219 303 q 232 310 228 307 z "},"&":{"ha":851,"x_min":-31,"x_max":790,"o":"m 772 60 q 775 49 789 60 q 756 39 768 44 q 722 28 740 32 q 631 17 678 17 q 435 60 531 21 q 425 46 431 53 q 426 42 432 40 q 422 42 425 42 q 419 39 421 40 l 415 33 q 346 -46 379 -11 q 349 -49 349 -46 q 347 -56 349 -51 q 326 -86 342 -68 q 285 -126 308 -107 q 219 -167 254 -150 l 211 -171 l 207 -174 l 201 -175 q 181 -183 192 -179 q 133 -193 157 -190 q 107 -193 121 -194 q 90 -192 101 -193 q 74 -189 85 -192 q 18 -158 42 -181 q -18 -104 -7 -136 q -26 -75 -24 -90 q -29 -50 -28 -62 q -29 -28 -29 -43 l -28 -17 q -26 -6 -28 -15 q -19 36 -25 13 q -14 58 -15 54 q 18 129 -3 93 q 57 192 33 160 q 140 296 76 219 q 143 299 142 297 q 144 301 144 300 q 129 335 135 319 q 119 343 126 335 q 104 365 113 351 q 88 400 94 383 q 74 440 78 426 q 56 553 60 497 q 58 667 51 610 q 132 883 72 788 q 207 974 164 935 q 231 993 226 990 q 254 1011 243 1003 q 311 1039 283 1029 q 376 1056 344 1053 q 446 1050 413 1058 q 511 1018 483 1040 q 560 961 542 994 q 581 897 575 932 q 585 835 586 868 q 578 775 583 806 q 563 721 572 749 q 519 621 546 674 q 465 531 499 582 q 286 286 399 424 q 286 278 290 278 q 282 281 285 279 q 278 276 281 279 q 276 274 276 274 q 277 272 276 274 q 278 271 278 271 q 336 208 306 238 q 392 167 363 186 q 451 256 426 214 q 501 329 492 322 q 508 324 508 335 l 503 299 q 494 275 503 290 q 491 267 494 274 q 486 258 488 261 q 472 235 478 243 q 418 151 450 196 q 425 147 424 149 q 451 183 440 168 q 524 306 496 250 q 553 369 540 338 q 572 436 567 408 q 579 497 572 438 q 588 504 581 513 q 601 465 599 493 q 593 392 606 432 q 499 197 564 297 q 524 211 525 229 q 522 206 522 208 q 479 122 515 175 q 493 113 493 115 q 482 114 490 113 q 475 115 479 115 q 475 115 475 115 q 465 101 472 111 q 568 72 515 81 q 585 68 583 68 l 586 65 q 575 64 583 64 q 557 65 569 64 q 515 74 551 67 q 475 85 482 82 q 458 90 468 88 q 458 90 458 90 q 457 89 457 89 l 458 88 q 464 86 461 88 q 468 85 467 85 l 486 78 l 506 72 l 514 68 q 520 67 517 68 q 524 67 524 67 l 543 61 l 563 58 l 572 56 q 578 56 574 56 q 582 54 581 54 l 601 53 l 621 50 l 631 50 q 636 50 632 50 q 640 50 640 50 l 660 50 q 666 50 663 50 q 673 50 669 50 q 679 50 676 50 l 689 51 q 695 51 692 51 q 699 51 699 51 q 731 55 714 53 q 757 58 747 57 q 772 60 767 60 m 486 719 q 501 769 496 744 q 511 819 510 797 q 499 917 517 876 q 431 976 478 964 q 383 981 408 982 q 336 968 360 978 q 292 943 314 958 q 271 928 278 933 q 251 910 251 910 q 150 731 179 840 q 142 513 122 625 q 192 358 156 432 l 193 360 q 138 601 138 475 q 139 640 138 608 q 143 679 142 669 q 151 718 144 686 q 161 754 158 746 q 168 774 165 767 q 171 781 168 775 q 175 792 174 788 l 183 808 q 188 819 185 813 q 193 825 192 825 q 236 889 213 863 q 358 972 294 956 q 428 974 394 982 q 460 961 446 969 q 483 938 472 953 q 500 908 494 925 q 508 874 506 892 q 510 836 511 856 q 507 800 510 818 q 456 656 494 733 q 413 582 436 619 q 367 510 389 542 q 264 371 324 446 q 246 349 260 365 q 250 342 247 344 q 375 508 324 433 q 425 586 403 549 q 443 625 431 601 q 486 719 469 676 m 156 567 q 156 649 153 604 q 181 422 143 536 q 200 369 189 396 q 203 372 201 371 q 206 375 204 374 q 190 408 197 392 q 167 486 178 442 q 156 567 158 522 m 186 472 q 214 386 197 428 q 215 388 215 388 q 186 472 197 428 m 189 508 q 222 397 200 450 q 297 496 265 450 q 367 600 336 550 q 425 706 404 660 q 446 758 438 733 q 454 786 450 771 q 456 792 454 788 q 457 799 457 797 q 458 804 457 800 q 460 811 458 808 q 461 860 464 839 q 453 897 460 883 q 444 911 450 903 q 442 913 444 911 q 439 915 440 915 q 435 921 436 918 q 404 931 422 929 q 367 926 386 932 q 325 906 346 919 q 304 890 311 897 q 285 874 286 875 q 281 870 283 872 q 278 867 279 868 q 275 864 276 865 l 267 854 l 263 849 q 260 845 261 847 q 258 843 258 843 l 250 832 q 201 733 221 790 q 182 622 185 683 q 182 565 181 600 q 183 552 182 563 q 185 536 183 542 q 186 524 185 535 q 189 508 188 514 m 342 935 q 340 929 343 933 q 388 944 364 942 q 429 939 410 946 q 446 929 439 935 q 458 915 456 921 q 468 897 465 906 q 471 890 469 894 q 472 886 472 886 q 473 881 472 886 q 475 874 474 876 q 464 908 472 893 q 415 944 449 938 q 379 946 399 949 q 342 935 361 943 m 243 333 q 239 340 240 339 q 235 335 235 335 q 239 328 238 331 q 240 331 239 329 q 243 333 242 333 m 233 322 q 229 328 232 324 q 227 324 229 326 q 225 322 225 322 q 228 315 228 318 q 231 319 229 317 q 233 322 232 321 m 218 313 q 219 310 218 313 q 221 307 221 308 q 219 310 221 308 q 218 313 218 313 m 226 214 q 224 211 225 213 q 219 206 221 207 q 240 181 231 190 q 338 96 282 133 q 346 107 342 101 q 238 203 286 147 q 226 214 236 204 m 188 267 q 186 269 188 268 q 185 272 185 271 q 176 264 179 267 q 179 260 178 263 q 181 258 181 258 q 182 260 181 258 q 185 263 183 261 q 188 267 186 265 m 128 360 q 151 308 139 333 q 155 313 153 310 q 158 317 157 315 q 125 390 139 353 q 96 496 106 442 q 88 606 86 551 q 133 818 89 721 q 275 988 183 928 q 388 1026 331 1024 q 449 1018 419 1028 q 504 988 481 1008 q 540 936 526 967 q 557 878 553 910 q 549 765 563 825 q 507 653 535 711 q 539 732 526 694 q 553 783 547 758 q 560 838 558 811 q 556 894 560 868 q 535 950 549 925 q 494 997 519 978 q 439 1024 471 1015 q 378 1028 410 1031 q 321 1014 350 1025 q 228 954 272 994 q 111 775 149 885 q 82 565 75 675 q 128 360 88 457 m 146 -136 q 188 -121 168 -131 q 132 -137 160 -135 q 101 -139 117 -140 q 71 -129 85 -136 q 46 -110 56 -122 q 31 -81 35 -97 q 25 -22 24 -57 q 56 86 28 32 q 63 99 58 92 l 68 110 q 83 133 81 131 q 114 178 94 151 q 175 251 132 200 q 174 254 174 253 l 171 257 q 154 236 157 239 q 99 167 119 194 q 51 89 69 125 q 25 8 32 47 q 21 -35 21 -12 q 22 -57 21 -44 q 28 -81 24 -69 q 56 -122 36 -107 q 101 -140 75 -137 q 125 -140 110 -140 q 146 -136 136 -139 m 189 -43 q 233 -11 210 -31 q 313 67 271 18 q 332 89 322 78 l 329 92 q 324 95 326 93 q 319 99 321 97 q 314 102 317 100 q 308 106 311 104 q 236 172 268 138 q 214 199 225 185 q 144 108 167 142 q 117 61 128 85 q 99 14 104 38 q 97 8 97 13 q 94 3 96 4 l 93 -10 q 92 -33 92 -28 q 93 -54 90 -43 q 93 -57 93 -56 q 94 -60 93 -58 q 96 -62 94 -61 q 110 -71 100 -71 q 110 -71 110 -71 q 113 -71 111 -71 l 115 -71 l 119 -71 l 125 -71 q 144 -65 133 -68 q 154 -61 150 -62 q 160 -58 156 -60 l 167 -56 q 178 -49 171 -53 q 189 -43 188 -44 m 267 -31 q 364 69 313 8 q 363 70 364 69 q 360 71 361 71 q 267 -31 311 8 m 369 75 q 378 88 371 78 q 374 90 376 88 q 365 78 368 82 q 367 76 365 76 q 369 75 368 75 m 378 147 q 386 159 386 158 q 387 160 386 160 q 388 161 388 160 q 326 207 354 182 q 271 268 297 235 q 265 261 267 264 q 297 224 281 242 q 304 215 301 219 q 310 210 308 211 q 311 206 313 206 q 293 215 307 203 q 378 147 331 178 m 401 115 l 397 118 l 401 115 m 410 128 q 421 142 410 128 q 414 144 417 143 q 404 131 408 136 q 408 129 406 129 q 410 128 410 128 z "},"'":{"ha":313,"x_min":68,"x_max":244,"o":"m 238 924 q 243 919 240 924 q 228 907 235 914 q 236 902 232 906 q 239 897 240 899 q 226 882 235 892 q 211 867 217 872 q 200 852 206 861 q 192 835 194 843 q 191 824 192 829 q 190 814 190 818 q 194 803 192 804 q 186 801 194 803 q 171 800 176 800 q 167 800 168 800 q 165 801 165 801 q 156 815 160 806 q 156 803 156 808 q 157 792 156 797 q 142 786 157 789 q 126 788 128 783 q 122 800 124 793 q 108 799 118 797 q 96 806 99 800 q 92 821 93 813 q 76 826 83 821 q 69 836 68 832 q 76 853 72 844 q 75 854 75 854 q 129 954 83 907 l 138 951 l 138 950 q 131 942 135 947 q 134 944 131 942 q 139 946 138 946 q 143 946 140 947 q 154 960 150 954 q 161 957 157 961 q 140 928 150 944 q 150 935 142 928 q 163 944 158 942 q 171 942 165 949 q 182 954 175 949 q 186 953 183 956 q 189 950 189 951 q 188 942 189 947 q 201 953 194 947 q 212 953 204 956 q 225 945 219 950 q 228 938 231 940 q 213 917 224 931 q 194 892 201 903 q 182 869 188 881 l 179 864 q 238 924 199 899 m 110 904 q 117 914 114 910 q 114 915 115 914 q 108 901 111 910 l 110 904 m 157 915 q 162 926 158 919 q 167 936 165 933 q 133 879 151 918 q 124 844 126 863 q 124 826 122 838 q 129 849 125 836 q 138 868 133 857 l 139 872 q 136 876 136 875 q 141 890 138 883 q 149 904 144 896 q 157 915 154 913 z "},"(":{"ha":263,"x_min":3,"x_max":382,"o":"m 381 1051 q 358 1011 382 1035 q 306 947 332 983 q 321 944 319 960 q 310 907 322 931 q 274 840 285 864 q 281 819 282 840 q 275 800 279 811 q 267 778 272 789 l 254 757 q 249 744 253 753 q 243 735 244 736 l 232 713 l 228 701 l 222 690 q 219 683 221 686 q 135 308 147 500 q 139 118 128 206 q 156 24 147 57 l 161 0 q 164 -9 161 0 q 168 -22 167 -18 q 182 -68 172 -40 q 182 -78 185 -76 q 171 -65 175 -76 q 150 7 157 -25 q 160 -44 153 -14 q 158 -50 160 -49 q 213 -174 181 -118 q 214 -182 217 -181 q 203 -172 210 -183 q 151 -53 174 -119 q 142 -22 147 -43 l 136 -6 l 132 10 l 125 42 q 124 45 125 42 q 122 50 124 49 l 121 58 l 118 74 l 121 51 q 124 39 122 47 q 125 28 125 31 l 129 6 q 135 -17 132 -8 q 161 -106 146 -65 q 162 -116 165 -115 q 154 -111 158 -117 q 181 -167 167 -140 q 213 -221 197 -199 q 214 -229 218 -229 q 204 -222 210 -229 q 165 -168 183 -197 q 232 -272 194 -228 q 249 -297 247 -290 q 240 -306 250 -306 q 190 -272 217 -306 q 104 -121 139 -208 q 76 -40 89 -83 q 65 1 74 -31 l 61 21 q 56 42 57 35 l 49 83 q 48 88 49 85 q 47 94 47 92 l 46 104 l 43 125 q 38 210 42 139 q 36 233 36 218 q 36 251 36 249 l 36 272 l 38 293 q 38 307 38 299 q 39 322 39 315 q 40 335 39 329 l 44 376 q 51 431 44 381 q 48 413 50 426 q 44 390 46 399 l 40 350 q 40 341 40 349 q 38 329 39 333 l 38 310 q 36 297 36 304 q 35 282 36 289 q 35 268 35 275 q 35 188 35 194 l 36 167 q 38 147 38 147 q 39 128 38 142 q 40 106 40 114 q 46 65 42 99 l 49 46 q 53 25 51 29 q 71 -54 68 -46 q 129 -210 93 -139 q 129 -218 133 -217 q 119 -207 124 -215 q 64 -65 88 -144 q 50 -54 60 -67 q 38 -26 40 -42 q 34 -13 36 -21 q 31 2 32 -6 q 28 15 29 10 l 25 26 l 24 36 l 19 57 l 17 79 q 16 83 17 79 q 15 89 15 88 l 14 100 l 10 142 q 11 311 4 239 l 13 332 q 13 344 13 336 q 14 353 14 351 l 19 394 l 26 436 l 31 456 l 35 476 q 38 490 36 482 q 40 504 39 497 q 43 518 42 511 q 49 537 44 524 q 54 558 53 550 q 56 567 54 560 q 60 578 58 574 l 65 599 q 71 616 67 601 q 78 638 75 631 q 151 825 107 731 l 163 847 q 174 869 171 863 l 199 913 q 254 999 226 961 q 288 1025 274 1025 q 290 1006 297 1025 q 286 996 292 1001 q 282 989 285 993 q 275 979 279 985 q 240 918 257 951 q 208 857 235 910 l 224 882 q 238 907 231 896 q 269 956 254 933 q 349 1043 308 1007 q 372 1057 363 1056 q 381 1051 381 1058 m 119 225 q 119 249 119 232 q 119 276 119 267 l 121 326 q 121 322 121 325 q 120 317 121 319 q 119 313 119 315 q 119 307 119 310 l 118 288 q 117 267 117 268 l 115 226 q 119 225 118 226 m 203 772 q 210 788 206 778 q 217 800 215 799 q 181 725 211 790 q 171 704 176 718 q 164 688 165 690 l 156 668 l 149 649 q 103 490 124 581 l 96 454 q 97 438 97 449 q 92 396 94 418 q 89 375 90 390 l 88 354 l 86 333 q 85 322 85 329 q 85 313 85 314 q 84 292 85 307 q 82 271 83 278 q 93 103 81 182 q 97 83 93 100 q 101 58 100 65 q 106 39 103 51 q 111 17 108 26 q 138 -68 121 -25 q 89 176 99 49 q 99 424 79 300 q 111 490 99 426 q 118 524 111 493 l 126 557 l 136 589 q 140 603 136 590 q 146 621 143 615 l 157 653 q 159 660 157 654 q 163 669 161 667 l 168 685 l 179 714 l 182 722 l 185 729 l 190 743 l 203 772 z "},")":{"ha":440,"x_min":67,"x_max":390,"o":"m 388 446 q 389 399 388 446 q 389 350 389 394 q 325 -32 382 143 q 317 -36 319 -44 q 318 -22 315 -31 l 328 14 q 331 25 329 19 q 335 38 333 31 q 338 50 336 46 q 329 25 333 38 q 325 12 328 21 q 321 1 322 3 q 317 -3 318 -6 l 311 -19 q 310 -23 311 -21 q 309 -27 310 -25 q 308 -31 308 -29 q 307 -35 307 -33 q 296 -67 297 -64 q 271 -129 278 -112 q 265 -133 267 -137 q 265 -121 263 -129 l 272 -107 q 278 -92 272 -106 l 289 -62 l 299 -32 q 301 -26 299 -32 q 304 -17 303 -19 l 308 -1 q 336 122 324 50 q 285 -47 318 42 q 276 -53 281 -61 q 276 -46 276 -50 q 267 -74 274 -56 q 256 -101 258 -94 q 250 -114 254 -106 q 244 -128 246 -122 l 239 -140 l 232 -153 q 225 -157 226 -162 q 226 -147 224 -154 q 235 -118 228 -143 q 240 -106 236 -115 q 244 -90 243 -96 q 241 -99 243 -94 q 237 -108 239 -103 q 233 -115 235 -112 q 230 -124 232 -118 q 226 -133 228 -129 q 222 -140 224 -137 q 196 -189 200 -182 q 169 -203 176 -221 q 178 -154 163 -186 q 231 -22 207 -97 q 267 117 254 49 q 288 260 281 186 q 293 407 293 329 q 292 454 292 435 q 272 172 296 307 q 240 39 260 103 q 190 -86 219 -24 q 183 -87 186 -96 q 186 -78 183 -83 q 197 -51 186 -78 l 204 -37 l 210 -24 q 219 6 218 3 l 229 35 q 222 47 224 36 q 222 72 219 61 q 250 208 240 144 q 264 347 260 278 q 265 489 268 414 q 251 629 263 568 q 203 786 233 718 q 115 915 167 863 q 107 925 111 919 q 103 932 104 928 q 100 943 99 939 q 118 947 103 953 q 126 944 121 949 q 129 942 128 943 q 131 940 131 940 q 138 933 135 936 q 178 891 160 914 q 214 843 197 868 q 86 994 163 938 q 81 1000 83 997 q 75 1004 78 1003 q 71 1013 72 1008 q 74 1022 68 1018 q 92 1022 81 1025 q 115 1011 104 1019 q 174 957 147 988 q 181 972 167 974 q 196 967 188 971 q 205 960 200 964 q 214 950 210 956 q 261 889 240 924 q 283 883 267 896 q 297 868 290 878 q 311 844 306 857 q 344 746 331 799 q 347 739 346 742 q 383 543 372 653 q 388 446 386 501 m 340 340 q 339 457 342 406 q 304 710 333 601 q 263 819 289 767 q 308 671 292 753 q 328 518 322 603 q 331 485 329 500 q 335 469 333 479 q 321 156 346 335 q 289 -6 308 67 q 333 224 322 104 l 336 253 l 338 282 q 340 340 338 285 m 374 342 l 374 367 q 374 357 374 364 q 374 347 374 350 q 367 268 371 299 q 371 265 368 268 q 374 317 372 301 l 374 342 z "},"*":{"ha":625,"x_min":64,"x_max":557,"o":"m 542 768 q 551 763 546 769 q 556 749 556 756 q 553 740 556 742 q 526 730 542 736 q 498 719 510 724 q 472 709 486 715 q 446 696 457 703 q 438 692 443 694 q 547 721 492 717 q 550 714 551 719 q 525 710 538 713 q 525 694 532 696 q 492 684 518 692 q 449 670 465 676 q 418 656 433 664 q 400 640 411 650 q 471 544 431 607 q 468 539 474 542 q 464 539 465 538 q 456 550 460 546 q 458 545 457 549 q 460 540 458 542 q 458 536 460 538 q 474 515 469 522 q 468 510 475 513 q 436 549 456 528 q 454 515 450 522 q 452 512 454 514 q 449 508 450 510 q 463 490 457 499 q 461 485 464 488 q 457 483 458 483 q 446 489 451 486 q 458 469 453 481 q 453 453 464 463 q 436 449 442 443 q 389 503 418 467 q 354 546 360 539 q 347 553 353 547 q 415 447 388 501 q 410 442 415 443 q 394 468 403 454 q 379 463 383 456 q 344 513 368 476 q 306 568 321 550 q 302 571 304 569 q 298 574 300 572 q 294 578 296 576 q 294 577 294 578 q 293 575 293 576 q 240 524 271 550 q 186 481 221 507 q 181 485 182 476 q 182 489 179 488 q 201 506 192 496 q 186 496 196 501 q 182 497 183 494 q 146 468 158 478 q 142 469 143 465 q 142 474 140 472 q 210 533 183 508 q 185 517 206 531 q 156 497 165 504 q 151 497 153 494 q 149 503 149 500 q 117 476 132 488 q 113 476 114 474 q 113 482 111 479 q 125 500 117 490 q 92 475 101 482 q 72 478 81 465 q 74 501 64 490 q 157 575 92 519 q 210 626 190 604 q 204 622 207 624 q 168 592 188 607 q 82 532 147 575 q 76 533 79 529 q 78 538 76 536 q 118 567 107 558 q 114 576 114 569 q 117 586 114 583 q 181 639 178 635 q 126 704 151 660 q 133 711 125 708 q 139 703 136 707 q 136 711 138 706 q 139 715 136 713 q 128 729 132 724 q 133 735 128 732 q 154 710 142 722 q 144 733 146 731 q 150 740 142 738 q 140 754 143 747 q 142 758 140 756 q 146 761 144 761 q 154 758 150 760 q 146 772 150 765 q 149 783 144 776 q 159 794 153 789 q 167 796 165 799 q 183 776 174 788 q 202 753 193 764 q 219 733 211 742 l 225 729 q 183 801 197 760 q 189 807 183 804 q 196 789 192 797 q 210 796 206 801 q 226 769 213 790 q 247 739 239 749 q 251 835 254 774 q 260 845 251 843 q 275 842 269 847 q 279 839 278 840 l 279 836 q 281 832 281 835 q 289 789 286 806 q 290 863 290 803 q 308 871 292 876 q 321 857 319 865 q 322 829 322 844 q 338 831 328 835 q 350 817 347 826 q 353 789 353 804 q 367 783 360 790 q 375 768 375 776 q 476 807 418 793 q 481 803 478 808 q 479 799 482 799 q 465 794 474 797 q 476 794 472 794 q 479 792 478 794 q 504 800 494 797 l 508 796 q 507 793 508 793 q 461 775 485 788 q 497 781 497 781 q 501 778 499 782 q 501 774 503 775 q 524 779 514 778 l 528 776 q 528 772 528 774 q 519 764 524 768 q 542 768 531 767 m 278 643 q 272 633 276 639 l 274 632 q 275 632 275 632 q 277 634 276 632 q 278 637 278 636 q 280 639 279 638 q 281 640 281 640 q 280 642 281 640 q 278 643 279 643 m 156 682 q 165 674 160 678 l 164 675 q 160 681 163 678 q 158 685 158 683 q 156 682 157 683 m 194 692 q 215 674 204 682 q 219 678 217 675 q 204 692 217 679 l 201 694 q 199 693 199 693 q 188 701 193 696 q 178 713 183 706 q 169 722 172 719 q 161 730 167 725 q 153 736 156 735 q 194 692 163 724 m 160 514 q 258 608 221 561 q 257 610 257 610 q 244 595 250 601 q 203 554 238 589 q 184 536 200 551 q 160 514 168 521 m 260 560 q 285 588 272 574 l 283 588 q 281 583 281 585 q 258 563 271 575 q 260 560 260 561 m 317 726 q 321 769 319 744 q 308 713 317 739 q 290 672 301 693 q 292 671 292 672 q 297 668 293 671 q 301 679 300 674 q 317 726 311 701 m 428 778 q 410 769 418 774 l 414 771 q 421 773 415 771 q 429 775 426 775 q 428 778 428 776 m 431 582 q 418 596 422 590 l 419 593 q 424 586 421 590 q 428 579 426 582 q 431 582 429 581 m 442 515 q 424 538 433 526 q 401 564 414 550 q 382 586 389 578 q 349 622 367 606 q 335 635 343 628 l 333 633 q 342 623 338 629 q 351 612 347 617 q 360 601 356 607 q 369 590 365 594 l 374 585 q 378 585 376 586 q 389 574 383 581 q 399 563 394 568 q 408 550 403 557 q 419 538 414 543 q 432 526 424 533 q 442 515 440 518 m 467 756 q 480 763 471 758 q 494 769 489 768 q 413 733 468 763 q 371 707 390 722 q 360 697 367 703 q 360 694 360 694 q 406 721 376 704 l 411 724 q 413 728 411 728 q 428 739 419 735 q 449 748 436 743 q 467 756 461 753 z "},"+":{"ha":626,"x_min":69,"x_max":558,"o":"m 547 439 q 557 428 556 436 q 553 414 558 421 q 540 407 547 407 q 474 410 531 407 q 388 414 418 414 q 388 413 388 414 q 388 411 388 411 q 517 392 454 407 q 518 386 521 390 q 515 385 517 385 q 472 393 494 389 q 469 383 472 388 q 461 378 465 378 q 422 381 447 379 q 386 385 396 383 q 383 328 385 354 q 379 83 378 200 q 374 78 379 74 l 369 88 q 368 135 369 93 q 365 101 365 101 q 363 99 365 97 q 365 11 364 51 q 360 8 365 3 q 358 14 358 11 q 351 179 354 99 q 349 121 350 163 q 347 63 347 100 q 344 57 347 57 q 339 61 340 57 q 340 41 339 54 q 340 22 340 28 q 342 -17 340 15 q 336 -19 342 -25 q 333 -15 335 -18 q 326 25 331 -1 q 326 -12 326 4 q 328 -50 328 -42 q 318 -71 329 -71 q 297 -47 304 -71 q 296 -39 296 -43 q 289 367 279 131 q 290 388 289 372 l 289 388 q 275 10 279 217 q 269 6 275 0 q 267 13 267 8 q 268 100 268 42 q 257 108 263 100 q 251 125 251 117 q 260 326 251 211 q 264 386 261 351 q 168 360 197 375 q 158 365 163 357 q 154 379 153 372 q 154 385 153 383 l 157 386 q 158 388 157 386 q 192 408 174 399 q 139 389 161 401 l 138 394 q 133 393 135 393 l 131 393 l 69 385 l 125 417 q 131 421 125 418 l 129 424 l 138 424 q 146 428 143 426 q 139 442 139 431 q 147 457 139 451 q 174 469 158 464 q 175 486 169 476 q 190 497 181 496 q 225 500 206 499 q 228 500 226 500 q 275 507 250 504 q 276 515 275 508 q 276 525 276 522 q 297 765 282 656 q 304 783 299 778 q 315 787 310 789 q 324 778 321 785 q 326 771 326 775 l 326 765 q 325 758 326 763 q 324 717 324 721 l 324 674 q 333 743 331 728 q 339 778 339 772 l 346 813 q 364 828 351 838 q 375 799 378 818 q 373 790 374 794 q 372 781 372 786 q 371 772 371 776 q 367 747 369 761 q 386 744 376 761 q 390 724 390 736 q 389 676 390 693 q 403 665 397 678 q 407 638 410 653 q 405 617 407 629 q 401 595 403 606 q 399 575 400 585 q 399 571 399 574 q 393 508 396 539 q 481 501 436 507 q 482 494 488 501 l 479 492 q 454 494 468 493 q 471 490 464 492 q 474 486 474 489 q 517 482 500 485 q 518 476 521 482 l 515 475 q 432 479 478 479 q 457 475 435 479 q 490 468 479 471 q 494 465 494 468 q 492 460 494 461 q 531 456 513 458 q 533 452 533 456 q 529 447 532 449 q 510 444 521 446 q 547 439 528 442 m 269 450 q 271 457 269 454 q 239 453 253 454 q 200 443 221 450 q 251 449 219 447 q 269 450 257 450 m 336 360 q 338 388 338 374 q 336 388 338 388 q 335 388 335 388 q 333 299 335 365 q 331 199 331 233 q 336 90 332 164 q 335 244 335 217 q 335 321 335 247 q 336 343 336 329 q 336 360 336 357 m 339 413 l 339 414 q 333 414 335 414 l 333 413 q 337 413 335 413 q 339 413 339 413 m 342 460 q 342 461 342 461 q 338 461 340 461 q 335 461 335 461 q 335 458 335 458 q 342 460 338 460 m 350 603 l 353 642 q 339 510 344 574 q 342 510 340 510 q 344 510 344 510 q 349 565 346 536 q 350 603 350 582 m 368 274 q 368 290 368 281 q 369 306 368 299 q 369 322 369 314 q 369 339 369 331 l 368 326 l 365 275 q 368 274 367 275 m 424 460 q 449 460 431 460 q 478 460 468 460 q 390 463 440 464 q 390 461 390 463 q 390 460 390 460 q 424 460 414 460 z "},",":{"ha":314,"x_min":22,"x_max":240,"o":"m 233 93 q 239 89 236 94 q 218 65 228 78 q 226 58 224 63 q 228 51 229 54 q 203 15 221 40 q 173 -28 185 -10 q 153 -67 161 -47 q 140 -106 147 -82 q 122 -153 131 -136 q 110 -158 118 -161 q 99 -146 101 -154 q 97 -142 96 -143 l 97 -139 q 99 -136 97 -137 q 103 -103 101 -124 q 75 -150 90 -135 q 60 -144 68 -157 q 56 -126 53 -132 q 63 -112 60 -121 q 50 -107 57 -114 q 42 -96 42 -100 q 43 -81 42 -89 q 29 -71 35 -78 q 26 -60 24 -64 q 36 -40 31 -51 q 38 -37 36 -39 q 122 117 63 36 q 129 115 125 119 q 131 111 131 113 q 121 97 125 106 q 126 101 122 99 q 131 106 129 104 q 133 106 132 107 q 151 131 144 122 q 157 126 154 133 q 126 76 142 106 q 156 108 154 107 q 160 110 157 111 q 164 106 163 108 q 179 128 171 118 q 183 128 181 131 q 186 125 186 126 q 183 110 186 118 q 200 131 192 121 q 219 130 207 139 q 226 114 231 121 q 196 63 224 108 q 156 -8 168 17 q 150 -18 153 -14 q 233 93 185 46 m 94 54 q 85 33 90 43 l 88 36 q 91 42 89 39 q 95 47 93 44 q 99 51 97 50 q 94 54 97 53 m 108 -3 q 115 14 111 4 q 124 30 119 24 q 133 46 128 36 q 142 63 139 56 q 150 79 144 68 q 158 97 156 90 q 106 1 140 71 q 83 -54 93 -26 q 76 -81 81 -62 q 107 -15 86 -60 l 110 -8 q 108 -3 108 -6 z "},"-":{"ha":378,"x_min":35,"x_max":310,"o":"m 303 313 q 308 302 308 310 q 305 288 308 294 q 297 282 301 281 q 179 293 213 294 q 169 293 174 293 q 283 268 231 293 l 283 261 l 282 260 q 257 269 271 265 q 255 259 257 264 q 250 256 253 254 q 136 267 165 271 q 69 246 111 261 q 62 251 65 243 q 60 268 58 260 q 61 271 60 271 l 63 272 q 64 274 63 274 q 86 289 78 283 q 46 279 60 283 q 38 286 40 279 q 37 301 36 293 q 40 310 38 308 q 56 315 49 313 q 51 329 51 319 q 56 343 51 339 q 69 351 61 347 q 70 368 68 358 q 78 378 72 378 q 99 379 88 379 q 100 381 99 379 q 263 378 175 399 q 261 369 265 376 q 246 372 256 371 q 257 367 256 368 q 258 363 258 367 q 286 357 275 361 q 285 350 286 356 q 232 357 261 356 q 249 351 236 356 q 269 344 263 347 q 271 341 271 344 q 269 336 271 338 q 293 331 282 335 q 294 326 294 329 q 293 322 294 324 q 281 319 288 321 q 303 313 292 317 m 200 375 q 179 375 188 375 l 183 374 q 200 372 188 374 q 200 375 200 374 m 226 338 q 242 338 229 338 q 261 336 254 338 q 164 340 225 344 q 111 332 138 339 q 89 324 103 331 q 151 332 114 329 l 158 332 q 161 336 160 336 q 226 338 171 339 z "},".":{"ha":290,"x_min":53,"x_max":210,"o":"m 186 19 q 197 17 192 18 q 206 13 203 15 q 210 8 210 10 q 206 0 208 6 q 206 -1 206 0 q 174 -69 204 -35 l 164 -67 q 169 -61 167 -64 q 167 -62 169 -61 q 163 -65 164 -64 q 158 -64 161 -65 q 150 -76 154 -72 l 143 -74 q 157 -51 151 -64 q 140 -65 140 -64 q 131 -64 138 -68 q 124 -74 128 -69 l 115 -72 q 114 -65 114 -69 q 104 -75 110 -69 q 79 -69 97 -81 q 75 -65 74 -68 q 85 -49 78 -60 q 97 -28 92 -37 q 104 -11 101 -19 q 106 -7 104 -10 q 63 -56 93 -35 l 56 -54 q 68 -43 63 -49 q 61 -42 64 -43 q 56 -39 58 -40 q 54 -36 54 -37 q 67 -21 58 -32 q 81 -1 76 -10 q 89 15 86 7 q 88 35 89 22 q 88 51 88 47 q 96 53 88 54 q 111 49 104 51 q 115 47 114 47 q 115 46 115 46 q 118 40 117 43 q 121 35 119 38 q 124 31 122 33 q 126 51 125 43 q 142 51 128 54 q 157 43 157 47 q 157 36 157 40 q 172 33 163 36 q 183 28 181 31 q 186 19 186 24 m 153 -17 q 157 8 157 -6 q 156 19 157 11 q 147 -10 154 10 q 146 -12 147 -10 q 149 -15 149 -14 q 148 -24 150 -19 q 142 -35 146 -29 q 138 -44 139 -42 q 135 -52 138 -47 q 133 -60 133 -57 q 153 -17 142 -49 m 179 -42 q 182 -32 181 -37 q 181 -33 182 -33 q 176 -40 179 -36 q 179 -42 178 -42 z "},"/":{"ha":589,"x_min":65,"x_max":526,"o":"m 514 943 q 499 914 503 922 q 485 885 489 894 q 501 878 499 897 q 497 850 503 867 q 474 793 482 811 q 483 775 482 792 q 475 740 483 758 q 458 707 471 732 q 439 668 446 682 q 438 663 438 665 q 315 371 368 503 q 204 75 254 219 q 198 70 201 65 q 197 83 194 75 q 217 142 200 90 q 200 103 200 103 q 194 100 197 97 q 161 -7 194 97 q 156 -10 158 -15 q 156 0 153 -6 q 221 201 188 103 q 193 133 213 183 q 167 63 182 108 q 158 58 163 51 l 157 64 q 143 17 153 51 q 126 -31 140 8 q 121 -33 124 -40 q 119 -25 119 -31 q 131 25 124 -7 q 115 -19 128 19 q 100 -65 104 -53 q 78 -83 89 -97 q 75 -39 67 -69 q 243 450 132 172 q 258 489 250 468 q 76 26 172 283 q 71 24 72 18 q 71 33 68 28 q 90 85 76 50 q 108 138 103 119 q 103 151 104 140 q 104 174 101 163 q 197 411 140 276 q 300 644 199 414 q 425 924 363 797 q 451 944 440 956 q 456 932 456 940 q 454 922 457 928 l 453 917 q 449 910 451 913 q 429 858 431 864 q 420 835 426 851 q 410 808 414 818 q 450 889 440 871 l 471 929 l 493 968 q 517 981 507 996 q 514 943 526 967 m 278 311 q 285 331 281 319 q 292 350 289 342 q 299 369 296 358 q 307 389 303 381 q 305 385 306 388 q 303 379 304 382 q 300 374 301 376 l 275 313 q 278 311 276 313 m 386 671 q 425 761 406 718 q 317 522 361 629 l 306 496 q 304 483 307 490 q 274 403 292 449 q 239 313 256 357 q 210 233 222 268 q 168 99 196 190 q 233 286 219 249 q 267 379 235 292 q 285 426 278 406 q 303 471 296 454 q 386 671 329 536 z "},":":{"ha":250,"x_min":17,"x_max":181,"o":"m 64 549 q 26 508 56 525 l 19 510 q 31 518 26 514 l 17 524 q 25 533 19 526 q 34 544 31 540 q 40 553 38 547 q 44 565 43 560 q 36 592 43 569 q 44 595 35 594 q 60 594 53 596 q 64 593 63 593 q 65 592 64 592 q 75 582 74 583 q 75 599 75 592 q 90 601 75 601 q 106 597 104 600 q 107 590 107 594 q 122 591 113 592 q 135 588 132 590 q 139 581 138 585 q 164 575 165 582 q 161 567 163 571 q 138 500 167 533 l 129 503 q 133 508 131 504 q 128 504 131 507 q 124 504 126 504 q 117 494 119 497 l 108 496 q 119 515 117 504 q 115 512 118 514 q 109 507 111 510 q 104 503 107 504 q 96 504 103 500 q 89 496 93 499 q 85 495 88 494 q 81 497 82 496 q 79 503 79 499 q 71 494 75 499 q 40 501 60 492 q 63 546 61 540 l 64 549 m 142 533 q 138 526 140 531 q 142 526 140 526 q 143 535 143 531 l 142 533 m 101 521 q 99 515 100 519 q 97 507 99 510 q 113 546 106 518 q 113 567 114 556 q 108 576 113 571 q 106 551 108 568 l 104 549 q 108 547 108 547 q 108 539 110 543 q 104 529 107 535 q 101 521 101 524 m 176 26 q 176 25 176 25 q 146 -62 179 -19 l 138 -61 l 136 -60 q 142 -53 139 -57 q 135 -57 138 -56 q 131 -57 135 -58 q 122 -71 126 -65 l 115 -68 q 129 -42 124 -57 q 122 -49 128 -43 q 113 -58 115 -56 q 103 -57 110 -61 q 94 -68 100 -64 q 91 -68 94 -69 q 88 -67 88 -67 q 86 -58 86 -62 q 76 -69 82 -64 q 70 -71 74 -71 q 63 -69 67 -71 q 54 -66 58 -68 q 48 -62 50 -64 q 47 -60 46 -60 q 76 0 72 -12 q 78 6 76 3 q 35 -49 65 -28 l 28 -46 q 40 -36 35 -42 q 28 -29 28 -32 q 37 -17 29 -26 q 47 -2 44 -7 q 54 11 50 3 q 58 28 58 19 q 53 64 58 38 q 62 67 53 67 q 76 65 71 68 q 81 64 79 65 q 82 63 82 63 q 92 49 89 53 q 92 71 92 63 q 117 72 93 79 q 122 68 122 71 q 125 60 124 64 q 139 60 129 61 q 151 56 149 58 q 156 46 154 51 q 172 43 164 46 q 179 38 181 40 q 176 26 178 32 m 125 -1 q 128 28 129 13 q 125 42 128 32 q 119 7 124 28 l 118 3 q 121 0 121 1 q 121 -9 122 -4 q 118 -17 119 -14 q 115 -26 117 -21 q 111 -35 113 -31 q 108 -43 110 -37 q 106 -53 107 -49 q 125 -1 117 -36 m 153 -28 q 156 -17 154 -22 l 154 -19 q 149 -28 153 -22 q 153 -28 151 -28 z "},";":{"ha":386,"x_min":69,"x_max":322,"o":"m 315 622 q 315 621 315 621 q 294 550 322 588 l 286 551 q 289 558 288 554 q 283 554 286 556 q 279 554 283 553 q 272 542 276 546 l 265 543 q 276 565 272 553 q 269 559 275 564 q 261 551 264 554 q 253 551 258 549 q 246 542 250 546 q 241 542 244 542 q 238 543 238 543 q 235 549 236 546 q 226 540 232 544 q 196 546 217 536 q 218 594 217 588 l 218 599 q 183 554 211 572 l 176 554 q 188 564 182 558 l 172 568 q 181 578 175 571 q 189 590 186 586 q 194 601 192 594 q 199 614 197 608 q 189 642 197 619 q 197 645 188 644 q 213 644 206 646 q 215 644 215 644 l 217 644 q 217 643 217 643 q 229 633 225 636 q 228 651 228 643 q 242 654 228 654 q 258 651 257 654 q 260 644 260 647 q 275 645 265 646 q 288 643 285 644 q 293 636 290 640 q 317 631 318 638 q 315 622 317 626 m 267 596 q 267 619 268 608 q 263 629 265 624 q 260 603 263 619 l 260 599 q 263 597 263 599 q 263 589 264 592 q 260 579 263 586 q 257 569 257 572 q 255 563 256 568 q 253 556 254 558 q 267 596 261 568 m 297 578 q 299 588 299 582 l 297 585 q 293 578 296 582 q 297 578 294 578 m 271 49 q 287 42 279 49 q 292 28 294 35 q 283 1 288 13 q 283 -1 283 0 q 246 -107 272 -56 q 183 -197 221 -154 q 176 -196 179 -200 q 176 -190 174 -193 q 189 -175 181 -185 q 185 -178 188 -176 q 181 -181 183 -179 q 177 -185 179 -183 q 174 -183 175 -186 q 162 -198 167 -192 q 149 -212 157 -204 q 143 -207 144 -214 q 186 -150 167 -183 q 167 -169 179 -157 q 150 -186 154 -182 q 146 -186 149 -187 q 143 -182 143 -185 q 121 -206 133 -194 q 116 -204 118 -207 q 115 -200 114 -201 q 121 -185 118 -192 q 110 -196 115 -190 q 99 -206 104 -200 q 86 -206 93 -210 q 76 -194 79 -201 q 76 -182 74 -187 q 164 -56 139 -111 q 169 -44 167 -50 q 75 -160 135 -117 q 69 -154 72 -160 q 94 -132 81 -146 q 88 -124 90 -129 q 88 -117 85 -119 q 132 -60 118 -81 q 164 7 154 -25 q 174 94 172 46 q 183 102 174 101 q 199 97 192 103 q 201 94 201 97 l 201 93 q 203 90 203 92 q 203 83 203 89 q 206 74 204 76 l 207 57 q 211 83 211 83 l 214 97 l 215 111 q 223 117 215 117 q 238 114 231 118 q 246 104 246 110 q 244 82 246 93 q 259 82 250 86 q 269 71 268 78 q 271 49 271 63 m 222 -122 q 235 -96 232 -103 l 232 -101 q 219 -121 228 -108 q 222 -122 221 -121 m 238 22 q 238 39 238 26 q 214 -43 231 0 l 210 -51 q 211 -57 213 -54 q 174 -133 207 -78 q 150 -172 156 -162 q 186 -119 169 -149 q 214 -61 200 -96 q 235 7 228 -31 q 238 22 236 14 z "},"<":{"ha":557,"x_min":63,"x_max":489,"o":"m 467 642 q 488 633 486 650 q 472 611 488 618 q 460 603 467 607 q 445 596 453 600 q 432 590 438 592 q 442 585 440 590 q 440 572 444 579 q 429 558 436 564 q 394 536 415 549 q 394 518 399 531 q 376 500 389 506 q 329 476 349 486 q 325 475 326 475 q 282 447 301 460 q 243 419 258 432 q 211 393 224 406 l 208 389 q 206 388 207 389 l 206 386 l 204 386 q 203 385 203 386 q 200 381 200 383 q 204 375 200 378 q 206 374 204 375 l 207 374 l 213 372 l 225 368 q 249 361 239 364 q 299 350 274 354 q 301 343 306 349 l 293 340 q 256 349 269 346 q 281 340 269 344 q 283 336 285 339 q 356 325 313 331 q 358 319 363 324 q 353 317 356 317 q 214 343 279 326 q 310 314 268 324 q 310 306 318 311 q 376 297 335 303 q 379 292 383 296 q 374 289 378 289 q 339 288 356 288 q 404 279 371 282 q 421 263 428 278 q 390 249 413 247 q 210 275 301 251 q 188 281 192 281 l 175 285 q 160 290 167 288 q 111 325 126 303 q 99 382 94 349 q 122 436 103 410 q 128 444 126 442 l 133 450 q 144 463 139 456 q 136 454 138 456 q 128 444 132 450 q 111 419 118 433 q 96 364 96 392 q 103 335 97 349 q 119 311 108 322 q 172 281 138 293 l 196 274 q 217 267 210 268 q 258 254 238 260 q 344 235 299 243 q 347 229 353 233 q 342 228 344 226 q 263 244 297 236 q 253 235 261 239 q 236 233 244 232 q 192 246 211 240 q 181 250 188 247 l 174 251 l 165 254 q 128 269 144 261 q 78 324 93 289 q 74 396 64 357 q 108 461 82 431 l 113 465 l 118 471 q 126 481 119 474 q 146 497 135 488 q 224 550 172 518 q 407 657 299 601 q 428 658 422 664 q 429 642 435 651 q 426 636 429 638 l 422 633 q 418 631 421 632 q 357 589 389 611 q 467 642 406 614 m 293 513 q 350 549 332 538 q 272 506 303 524 q 199 457 224 476 q 185 446 190 450 q 181 438 185 440 q 168 421 174 429 l 164 417 q 163 415 164 417 q 163 414 163 414 q 157 407 160 410 q 146 374 147 389 q 160 343 144 354 q 193 328 171 333 q 285 310 232 317 q 221 324 251 315 l 204 328 q 199 330 203 329 q 194 331 196 331 q 189 332 192 332 q 167 343 175 338 q 150 361 154 350 q 150 386 147 372 q 161 408 154 397 q 165 413 164 413 q 167 417 165 414 l 169 418 q 179 429 174 424 q 233 474 200 450 q 293 513 257 490 m 188 374 q 189 389 185 381 q 186 386 188 388 q 183 372 182 379 q 188 374 185 374 z "},"=":{"ha":754,"x_min":65,"x_max":692,"o":"m 672 492 q 682 472 692 486 q 658 463 674 460 q 385 501 449 497 q 363 503 378 503 q 622 451 490 494 q 625 446 628 450 q 619 444 622 444 q 563 461 592 454 q 555 451 561 456 q 543 449 549 447 q 411 472 436 468 q 279 482 338 483 q 200 474 242 479 q 131 457 157 467 q 116 462 121 454 q 115 478 111 469 q 118 482 115 481 l 119 483 q 124 486 122 485 q 175 506 146 497 q 88 483 121 499 q 69 490 74 476 q 81 514 65 506 q 115 528 96 522 q 108 540 106 531 q 124 557 111 551 q 158 568 139 564 q 164 585 156 576 q 185 596 172 594 q 232 597 215 597 q 235 597 233 597 q 417 596 318 606 q 592 567 497 588 q 592 560 600 565 q 588 558 590 557 q 554 564 569 561 q 565 561 557 564 q 576 557 572 558 q 578 553 579 556 q 639 540 615 547 q 640 535 644 540 q 635 533 638 533 q 519 553 581 546 q 558 544 531 551 q 600 532 585 536 q 603 528 604 531 q 600 524 603 525 q 653 513 629 518 q 654 507 658 511 q 650 504 653 504 q 622 504 638 504 q 672 492 647 499 m 454 578 q 407 582 438 581 l 417 581 q 453 575 443 576 q 454 578 453 576 m 504 535 q 528 533 513 535 q 556 529 543 531 q 579 526 568 528 q 364 551 488 546 q 244 549 303 554 q 218 546 229 547 l 190 542 q 335 544 254 547 q 351 544 349 544 q 358 547 354 547 q 504 535 389 549 m 644 318 q 651 296 665 313 q 632 289 644 286 q 379 307 479 311 q 358 307 369 307 q 600 276 488 311 q 601 271 606 275 q 597 269 600 268 q 544 282 578 275 q 539 272 544 276 q 528 268 533 267 q 407 281 451 278 q 283 278 339 285 q 139 242 218 265 q 123 247 128 239 q 124 263 118 256 q 126 267 124 267 l 129 268 q 133 271 132 269 l 158 282 l 183 292 q 139 282 140 282 l 118 278 l 96 272 q 81 285 81 268 q 94 303 82 299 q 126 313 111 308 q 120 326 118 315 q 133 342 122 338 q 164 353 144 347 q 163 365 161 358 q 171 376 165 371 q 183 382 176 381 q 226 388 208 386 q 229 388 228 388 q 399 404 311 404 q 567 390 481 404 q 568 382 575 389 q 563 381 565 381 q 531 385 551 382 q 553 379 539 383 q 554 375 556 378 l 583 371 q 613 367 594 369 q 614 361 618 365 q 610 358 613 358 q 500 371 560 368 q 540 363 514 368 q 576 356 565 358 q 580 351 581 354 q 576 347 579 349 q 626 338 601 344 q 629 334 631 338 q 624 331 628 331 q 597 329 611 329 q 622 324 610 326 q 644 318 633 321 m 436 390 q 392 389 403 390 l 400 389 l 435 386 q 436 390 435 389 m 486 351 q 558 349 539 350 q 457 357 508 356 q 354 354 413 357 q 244 340 301 351 q 219 335 233 339 l 194 328 q 328 346 256 340 l 343 346 q 350 350 346 350 q 486 351 383 356 z "},">":{"ha":554,"x_min":67,"x_max":488,"o":"m 485 514 q 479 476 486 494 q 459 442 474 458 q 424 408 444 425 q 381 379 407 396 l 369 372 l 367 371 l 365 371 l 363 368 l 351 363 q 307 336 325 347 q 218 282 263 310 q 211 285 211 278 q 215 292 211 289 q 249 314 222 296 q 224 301 229 304 q 219 303 221 300 q 187 280 208 294 q 158 261 165 265 q 153 261 154 258 q 156 268 151 265 q 272 349 236 324 q 186 300 217 319 q 179 299 181 296 q 179 306 178 303 q 125 268 146 282 q 119 269 119 264 q 121 275 119 272 q 146 300 132 286 q 93 264 126 288 q 69 268 72 250 q 82 296 67 283 q 225 397 146 346 q 300 443 260 419 l 310 449 l 314 451 l 317 453 l 318 453 q 329 460 324 457 q 351 474 342 467 q 364 486 358 481 q 321 457 349 471 l 315 454 l 314 454 l 311 453 l 307 450 l 289 440 q 270 429 282 436 q 251 419 258 422 q 106 335 182 381 q 101 336 103 332 q 104 343 100 339 q 169 382 132 360 q 169 394 167 386 q 179 407 172 403 q 254 451 214 429 q 292 472 269 461 l 297 475 l 300 476 l 303 476 q 307 478 304 478 q 318 482 313 479 q 328 492 326 488 q 326 497 329 494 q 322 500 325 499 q 310 506 317 504 q 301 507 308 506 q 299 507 301 507 q 293 508 297 507 q 288 510 289 508 q 240 514 261 513 q 144 517 204 517 q 126 526 129 517 q 132 540 122 535 q 136 544 133 543 l 140 544 q 146 544 143 544 q 217 551 190 550 q 99 557 183 554 q 83 572 78 557 q 107 588 89 586 q 151 588 131 588 q 151 607 138 594 q 169 614 158 613 q 213 617 190 617 q 222 632 211 625 q 249 638 233 639 q 308 626 282 632 q 313 626 311 626 l 319 625 l 331 622 q 356 615 338 621 q 381 608 381 608 l 406 600 q 410 599 406 599 q 417 594 414 596 l 428 589 l 438 583 l 443 581 q 444 581 443 581 q 446 579 444 581 l 447 578 l 461 565 q 472 550 467 560 q 481 533 478 543 q 483 524 481 532 q 483 519 483 524 q 485 514 485 515 m 385 397 q 422 426 407 413 q 408 415 415 421 q 375 394 394 406 l 358 385 l 349 381 q 350 376 350 379 l 364 385 q 385 397 376 393 m 429 486 q 436 504 436 496 q 431 525 438 515 q 417 538 426 531 q 399 547 417 538 q 313 575 365 565 q 244 583 283 581 q 289 576 269 579 q 311 571 304 574 q 324 568 321 569 l 338 565 q 386 547 361 558 q 396 542 386 547 l 407 536 q 424 521 418 529 q 428 501 431 513 q 429 493 431 497 q 417 472 426 485 q 400 454 410 463 q 354 422 382 438 l 343 415 l 332 408 q 314 397 325 404 q 275 374 293 386 q 199 321 251 358 q 311 392 268 365 l 339 408 l 356 419 q 374 431 367 426 q 429 486 414 458 z "},"?":{"ha":464,"x_min":64,"x_max":500,"o":"m 499 853 q 500 843 500 849 q 497 807 500 825 l 494 792 l 492 776 q 478 718 486 749 q 438 611 464 674 l 417 561 q 407 537 414 553 q 397 513 400 521 q 357 415 374 458 q 322 318 343 378 q 316 298 322 317 q 307 269 310 279 l 299 246 l 293 221 q 285 215 289 206 q 285 231 282 221 l 290 250 l 296 268 l 301 288 l 308 307 q 289 256 300 289 q 283 251 286 247 q 251 108 264 181 q 246 104 249 94 q 246 117 244 110 q 276 251 257 182 q 317 386 293 315 q 254 200 274 278 q 246 193 250 185 q 244 200 244 196 q 221 71 229 128 q 215 65 218 57 q 214 75 213 69 q 215 110 215 106 l 218 144 q 200 18 206 81 q 186 -15 196 -18 q 182 -11 183 -14 q 172 11 176 -6 q 169 28 171 19 q 169 47 169 38 q 247 388 183 201 q 308 549 271 458 q 342 628 318 572 q 372 707 361 678 q 388 757 382 733 q 329 606 375 710 q 265 453 290 515 q 164 135 194 275 q 161 129 163 131 q 158 131 160 126 q 158 143 157 136 q 197 290 174 214 q 191 307 192 292 q 194 338 190 322 q 254 500 218 413 q 288 578 268 533 l 322 654 q 374 801 363 746 q 378 819 376 811 l 378 824 l 379 828 q 379 836 379 833 q 379 854 381 849 q 371 865 376 861 q 358 868 367 868 q 354 867 357 867 q 353 867 354 867 q 351 865 351 867 q 349 865 349 865 q 339 863 344 864 q 334 860 338 861 q 329 858 331 858 q 311 849 329 857 q 305 846 308 847 q 301 843 301 844 q 292 838 294 840 q 257 813 278 829 q 228 782 238 794 q 221 775 224 779 l 214 767 q 208 759 213 765 q 201 749 204 753 q 181 711 193 736 q 178 703 181 711 q 174 692 175 696 q 167 672 169 681 q 163 639 163 654 q 157 618 163 622 q 140 619 149 611 q 136 626 138 621 q 135 632 135 629 q 133 642 133 638 q 143 703 132 668 q 168 764 151 735 q 142 714 151 739 q 125 661 129 683 q 128 611 121 633 q 138 590 131 600 q 154 574 144 579 q 171 561 171 561 q 172 550 176 556 q 153 544 165 543 q 122 560 136 546 q 96 601 104 576 q 92 651 89 625 q 76 642 85 629 q 71 693 65 660 q 76 715 74 704 q 83 738 79 724 q 93 760 92 756 q 103 781 103 779 q 99 804 93 781 q 126 856 106 832 q 174 901 150 882 q 200 921 179 906 q 228 938 219 933 q 235 943 232 940 q 293 971 267 961 q 310 978 300 974 q 318 981 311 978 l 324 981 q 329 982 326 982 q 382 986 357 989 q 469 939 436 982 q 493 893 485 918 q 499 867 496 881 q 499 853 499 861 m 390 531 q 410 580 396 544 q 432 635 424 615 q 424 614 431 631 q 416 599 419 607 q 409 582 413 590 q 402 566 406 574 q 394 549 399 558 q 388 533 390 540 q 390 531 389 532 m 450 818 q 451 839 450 829 q 450 849 451 842 q 450 861 450 857 q 435 904 446 886 q 399 932 421 924 q 353 938 378 940 q 331 932 343 936 q 313 926 321 929 q 294 918 296 919 l 278 910 q 171 822 217 879 q 239 883 200 857 q 322 924 278 910 q 333 928 328 926 l 339 929 l 346 931 q 372 932 360 932 q 419 913 401 931 q 442 867 438 894 q 442 818 444 844 q 435 778 439 796 q 435 760 438 771 q 375 590 422 703 q 310 425 331 485 q 256 247 278 335 q 294 372 272 307 q 340 496 314 428 q 389 618 357 540 q 435 744 422 697 q 450 818 446 785 m 226 -142 q 236 -144 231 -142 q 245 -149 242 -146 q 249 -153 249 -151 q 244 -164 247 -158 q 244 -165 244 -165 q 210 -256 242 -208 l 201 -254 l 201 -253 q 206 -244 203 -250 q 199 -251 200 -250 q 196 -250 199 -251 q 186 -265 190 -260 l 179 -262 q 193 -233 188 -250 q 176 -253 176 -251 q 167 -251 174 -257 q 158 -265 164 -260 q 155 -265 158 -265 q 151 -262 151 -264 q 150 -254 150 -260 q 140 -267 146 -261 q 129 -269 136 -269 q 116 -265 122 -268 q 110 -258 110 -261 q 124 -228 111 -256 q 142 -187 138 -201 q 143 -181 143 -185 q 99 -247 129 -218 l 92 -244 q 104 -231 99 -237 q 94 -227 99 -229 q 90 -224 90 -225 q 104 -202 94 -217 q 119 -176 114 -187 q 128 -154 125 -165 q 128 -142 128 -149 q 127 -131 128 -136 q 126 -119 126 -126 q 126 -108 126 -112 q 136 -106 128 -104 q 150 -110 144 -107 q 154 -111 153 -111 q 154 -112 154 -111 q 156 -114 156 -114 q 157 -119 156 -117 q 160 -126 158 -122 q 163 -132 161 -129 q 167 -106 165 -115 q 170 -103 167 -104 q 178 -103 174 -103 q 186 -106 182 -104 q 194 -109 190 -107 q 197 -112 197 -111 q 197 -122 197 -117 q 212 -124 203 -121 q 222 -132 221 -128 q 226 -142 225 -136 m 190 -190 q 196 -158 196 -175 q 194 -143 196 -154 q 185 -181 193 -156 q 185 -185 185 -182 q 188 -187 188 -186 q 185 -201 188 -194 q 180 -215 183 -207 q 175 -226 176 -222 q 172 -236 174 -229 q 169 -246 171 -243 q 190 -190 179 -231 m 217 -219 q 221 -207 218 -214 q 219 -209 219 -208 q 219 -210 219 -210 q 213 -218 217 -212 q 217 -219 215 -219 z "},"@":{"ha":1079,"x_min":1,"x_max":1042,"o":"m 1035 557 q 1038 408 1042 490 q 1032 336 1035 374 q 1024 263 1028 297 q 1008 189 1018 226 q 988 115 999 149 q 956 44 974 78 l 946 26 q 943 23 944 25 q 940 19 942 21 q 938 14 939 17 q 935 10 936 11 q 933 8 935 10 q 931 3 932 6 q 929 0 931 1 q 919 -12 925 -4 q 900 -33 911 -24 q 850 -60 876 -54 q 796 -57 822 -67 q 750 -24 771 -47 q 721 26 733 -4 q 710 67 718 33 q 701 106 703 96 q 696 144 700 115 q 693 182 694 174 q 694 318 690 232 l 697 383 l 699 414 l 699 424 q 697 443 699 435 q 694 451 696 447 q 692 456 693 454 q 688 456 690 457 q 681 450 685 456 q 674 443 676 444 q 663 428 668 436 l 661 426 l 658 421 q 653 413 657 418 q 650 408 650 408 q 632 382 638 390 q 599 326 621 364 q 529 213 550 244 q 442 103 486 147 l 429 89 l 425 86 l 422 82 q 414 75 419 81 q 406 69 413 75 l 401 65 q 394 61 397 63 q 369 47 382 53 l 363 44 q 356 43 361 44 q 343 39 351 40 q 329 36 340 38 q 323 36 328 36 q 315 36 318 36 l 308 36 q 304 36 307 36 q 301 36 301 36 q 288 39 297 38 q 275 44 281 42 l 268 47 q 267 48 268 47 q 265 49 267 49 l 263 50 q 219 100 235 67 q 213 115 218 101 q 208 132 208 129 q 206 140 207 138 l 204 149 q 203 163 203 158 q 210 256 199 203 l 214 278 l 219 299 l 222 308 l 225 319 q 232 340 232 339 q 249 381 246 374 q 251 386 250 382 q 254 394 253 390 q 257 400 256 397 l 267 419 q 322 500 290 464 q 343 522 333 513 q 357 532 350 528 q 363 533 361 535 q 363 526 364 532 q 354 511 361 524 q 342 490 350 503 q 335 478 339 485 q 331 472 333 475 q 326 464 329 468 q 322 457 324 460 q 316 447 322 456 q 307 432 310 438 q 289 397 290 400 q 239 246 253 326 q 235 163 231 199 q 236 151 236 156 q 240 139 238 146 q 249 117 243 126 q 279 81 260 92 q 285 76 281 79 q 292 74 290 75 q 306 71 297 72 q 333 72 318 68 q 383 96 357 76 q 401 113 393 103 l 417 128 l 425 136 l 432 146 l 447 163 l 432 146 l 425 138 l 417 129 l 400 113 q 382 97 392 104 q 333 75 357 79 q 306 74 318 72 q 281 83 293 75 q 251 121 263 96 q 243 143 246 132 q 242 150 243 147 l 242 156 q 240 167 240 163 q 247 250 238 203 l 251 269 l 257 289 q 263 308 258 296 q 265 317 263 310 q 269 328 268 324 q 303 403 283 367 q 346 471 326 444 l 351 479 l 358 488 l 371 503 q 399 532 396 529 q 460 586 424 558 l 476 599 q 486 604 479 600 q 493 610 493 608 q 529 631 513 622 q 565 642 547 639 q 597 642 582 644 q 621 633 610 639 q 635 622 629 629 q 642 607 643 613 q 635 607 642 604 q 615 617 622 614 q 583 618 600 621 q 543 604 565 617 q 522 592 535 600 q 510 583 518 589 q 500 576 501 578 q 443 531 465 553 q 393 478 419 510 q 315 356 344 419 q 329 376 321 367 q 338 386 335 383 q 340 372 344 389 q 327 326 340 369 q 307 247 314 282 q 301 176 299 204 q 301 169 301 175 l 303 165 q 303 164 303 164 l 303 163 q 306 156 304 158 q 315 143 308 147 q 333 143 324 138 q 342 147 338 144 q 343 147 342 147 q 344 149 343 149 l 349 153 q 357 160 353 156 q 353 160 354 160 q 353 164 353 161 q 357 171 354 167 q 378 206 357 174 q 382 210 379 207 q 386 217 385 214 q 394 231 389 221 q 405 245 399 235 q 414 260 411 256 q 422 274 418 267 q 431 288 426 281 q 440 303 436 296 q 449 318 444 310 q 460 333 454 326 q 560 493 547 475 l 572 510 q 586 528 575 513 q 600 544 588 529 l 615 561 l 629 578 l 631 581 l 633 582 l 636 585 l 644 592 l 658 604 l 665 610 l 669 614 l 671 615 q 674 617 672 617 l 699 625 l 706 628 l 708 629 q 713 629 710 629 q 724 629 718 629 q 739 628 732 629 q 754 622 747 625 q 776 607 765 617 q 796 583 788 597 q 815 514 808 557 q 818 429 819 481 l 818 407 l 817 396 l 817 372 l 814 328 q 814 157 808 215 q 828 81 818 115 q 831 74 829 78 l 832 71 l 832 71 q 833 72 832 71 l 839 81 q 844 90 840 83 q 849 97 847 96 q 853 106 850 100 q 857 114 856 113 q 859 119 858 117 q 860 123 860 121 q 863 128 861 125 q 865 132 864 131 q 906 289 892 196 q 914 375 910 328 q 917 461 917 422 q 899 624 917 551 q 872 697 889 663 q 833 761 856 731 q 782 813 811 790 q 751 832 771 821 q 719 846 732 842 q 574 857 653 871 q 501 837 536 851 q 431 800 465 822 q 308 693 365 758 q 150 401 197 564 q 122 238 128 325 q 135 75 117 149 q 136 49 139 47 q 119 97 126 64 q 128 356 99 215 q 113 265 119 317 q 108 221 110 228 q 108 176 108 193 q 106 160 108 154 q 126 43 110 97 q 147 -10 135 14 q 176 -60 160 -36 q 258 -139 211 -108 q 361 -176 306 -169 q 382 -179 378 -178 q 383 -182 388 -181 q 340 -181 369 -186 q 242 -136 288 -169 q 165 -57 197 -104 q 118 44 135 -12 q 97 156 103 96 q 119 385 90 269 q 207 600 147 500 q 136 453 163 528 q 97 296 108 374 q 93 133 85 207 q 135 -22 101 46 q 147 -47 144 -40 q 147 -53 150 -53 q 129 -31 143 -53 q 193 -118 154 -79 q 235 -153 213 -137 q 283 -179 258 -169 q 389 -203 332 -201 q 497 -187 440 -204 q 524 -183 524 -181 q 486 -199 515 -190 q 369 -214 425 -217 q 254 -182 307 -210 q 360 -215 303 -210 q 469 -210 413 -221 q 574 -175 521 -200 q 668 -122 618 -154 q 754 -71 740 -76 q 765 -69 764 -67 q 760 -79 767 -71 q 707 -129 744 -99 q 603 -197 656 -171 q 453 -247 526 -236 q 372 -251 411 -254 q 290 -236 328 -249 q 153 -149 214 -211 q 103 -86 125 -119 q 67 -15 82 -53 q 32 136 39 54 q 33 288 25 207 q 117 575 50 438 q 196 703 150 642 q 218 732 214 728 q 242 761 235 751 q 294 815 268 790 q 418 903 354 869 q 489 933 454 922 q 565 953 526 946 q 719 946 646 964 q 793 918 758 936 q 858 874 828 900 q 953 751 915 824 q 1001 606 986 686 q 1013 511 1010 561 q 1013 415 1014 465 q 1008 560 1015 494 q 975 703 1000 639 q 901 832 947 775 q 782 925 850 894 q 635 960 714 958 q 486 936 558 961 q 354 868 418 913 q 244 771 296 826 q 89 528 147 664 q 21 247 31 392 q 25 101 15 171 q 67 -44 36 22 q 156 -171 99 -117 q 292 -254 217 -229 l 321 -264 l 318 -265 q 297 -262 310 -265 q 282 -258 290 -261 q 265 -253 278 -257 q 142 -169 197 -225 q 60 -50 92 -117 q 19 82 32 10 q 10 217 8 146 q 7 224 8 217 q 4 242 6 231 q 3 269 3 254 q 14 378 3 328 q 128 661 46 529 q 219 783 167 725 q 333 888 274 844 q 474 961 401 936 q 633 986 553 989 q 794 950 721 985 q 865 904 832 932 q 924 846 897 879 q 1001 708 972 786 q 1035 557 1026 640 m 765 839 q 875 722 832 801 q 840 776 860 751 q 742 854 797 829 q 617 878 685 879 q 615 876 617 876 q 611 874 614 875 q 692 868 656 876 q 731 857 706 865 q 765 839 754 847 m 965 367 q 967 514 971 450 q 942 658 961 593 q 876 788 918 731 q 767 879 829 849 q 628 911 704 911 q 486 883 556 911 q 360 810 421 858 q 256 706 303 764 q 111 432 158 586 q 82 279 89 356 q 83 124 74 197 q 92 340 71 224 q 119 447 101 390 q 161 549 138 503 q 282 731 210 650 q 453 865 363 821 q 503 886 476 876 q 556 901 526 894 q 661 907 610 911 q 763 879 717 901 q 847 817 810 857 q 910 731 883 779 q 947 631 933 685 q 964 415 969 539 q 932 178 957 269 q 914 122 924 146 q 903 96 913 121 q 889 71 890 72 q 886 65 889 69 q 882 57 883 60 l 874 46 q 871 40 872 43 q 868 36 869 38 q 861 28 865 32 q 844 15 853 19 q 824 13 835 10 q 806 22 814 14 q 793 39 799 29 q 788 49 790 43 q 787 51 788 49 q 786 53 786 53 q 785 56 786 54 q 783 60 783 58 q 779 74 783 61 q 778 79 779 74 q 776 88 776 85 q 763 204 764 142 q 764 324 761 250 l 767 385 l 768 400 l 768 417 q 769 456 769 447 q 763 522 768 493 q 753 550 758 538 q 747 563 750 557 q 738 574 743 571 q 724 579 732 579 q 710 576 718 579 q 699 569 703 572 l 686 560 l 675 551 q 671 547 674 550 q 669 546 671 546 l 664 539 l 653 526 q 650 524 653 526 q 647 521 647 522 l 642 514 q 632 502 640 513 q 619 488 624 492 q 610 472 613 478 l 600 460 q 569 411 581 431 q 513 315 565 404 q 592 442 576 421 l 601 458 l 614 475 q 642 511 618 482 q 644 515 642 511 q 649 519 647 518 l 656 528 l 671 543 q 678 550 674 546 l 686 556 l 700 568 q 717 575 710 574 q 736 571 728 578 q 746 556 742 567 q 754 539 750 549 q 763 499 760 522 q 765 456 764 481 q 764 410 765 449 l 763 374 l 758 299 q 760 153 754 211 q 771 82 763 115 q 781 49 779 54 q 794 24 786 33 q 817 6 804 10 q 846 7 831 0 q 868 25 857 13 q 876 36 872 31 q 879 41 878 39 q 883 47 881 43 q 886 51 885 50 q 942 182 921 108 q 954 244 949 213 q 964 308 960 276 q 965 367 964 331 z "},"A":{"ha":672,"x_min":-21,"x_max":707,"o":"m 688 657 q 706 647 706 658 q 685 625 707 631 q 681 624 683 624 q 588 608 632 617 q 588 597 588 601 q 643 601 617 600 q 646 596 650 601 l 642 593 q 588 589 619 593 q 588 583 588 589 q 568 267 586 461 q 564 253 567 256 q 561 256 563 253 l 558 279 q 568 396 564 336 q 558 315 561 333 l 556 307 l 554 308 q 536 97 542 157 q 535 88 536 89 q 531 91 532 85 q 529 107 529 97 q 558 510 556 428 q 532 226 556 475 q 528 214 531 215 q 524 217 526 211 q 522 226 522 219 q 507 39 510 63 q 506 28 507 31 q 501 31 503 25 l 500 44 q 501 143 499 86 q 488 -37 492 35 q 474 -83 485 -87 l 469 -79 q 457 3 454 -56 q 474 238 461 86 q 489 450 486 389 q 493 554 492 506 q 488 553 490 554 q 486 506 488 529 q 447 122 482 431 q 446 113 447 115 q 442 115 443 110 q 440 132 440 122 q 463 338 461 326 q 454 359 458 339 q 451 400 450 379 q 460 524 458 483 q 460 547 460 533 q 392 531 422 539 q 235 474 304 506 q 218 465 229 471 q 157 244 182 360 q 118 -31 128 110 q 107 -83 115 -74 q 93 -69 99 -90 q 92 -65 93 -68 q 89 -51 89 -62 l 90 -39 q 90 -24 90 -33 q 96 75 92 24 q 107 175 100 125 q 83 10 92 94 q 76 -75 79 -31 q 76 -156 74 -135 q 79 -170 78 -162 q 81 -182 81 -178 q 82 -189 82 -186 q 80 -197 82 -194 q 75 -197 78 -199 q 56 -179 65 -194 q 43 -136 44 -161 q 44 -72 43 -119 q 49 -10 46 -39 q 33 -19 42 -37 q 28 4 29 -11 q 26 40 25 21 q 39 158 29 96 q 31 168 33 157 q 33 256 19 199 q 64 372 47 315 q 64 372 64 372 q 43 369 50 364 q 40 385 36 375 q 42 392 39 389 l 46 394 q 50 397 47 396 q 63 408 53 400 q 78 421 72 415 l 79 422 q 80 425 79 422 q 82 428 81 428 q 54 413 65 418 l 29 397 l 3 381 q -18 388 -17 368 q -7 411 -19 401 q 2 417 -4 413 q 12 424 8 421 q 31 436 15 426 q 21 451 17 435 q 32 468 24 460 q 67 493 43 478 q 65 511 61 500 q 85 531 71 525 q 124 550 108 543 q 193 703 156 631 q 232 769 214 742 q 279 836 256 808 q 342 899 308 872 l 346 901 l 351 906 l 358 911 q 365 915 363 914 q 397 932 382 926 q 464 939 431 946 q 526 904 500 932 q 563 839 550 879 l 564 836 l 565 833 l 567 826 q 569 815 569 817 q 575 793 574 803 q 582 749 579 771 q 586 685 585 718 l 592 686 q 631 692 606 688 q 635 690 633 692 q 629 683 635 686 q 588 676 610 681 q 588 668 588 671 q 594 666 593 669 q 590 660 594 663 q 624 665 604 663 q 657 669 646 668 q 662 666 663 669 q 657 661 661 663 q 624 650 639 656 q 656 654 640 653 q 688 657 671 656 m 489 635 q 492 635 490 635 q 493 636 493 636 q 493 638 493 636 q 493 639 493 639 q 490 639 492 639 q 489 639 489 639 q 489 635 489 636 m 399 644 q 399 647 397 646 q 343 629 353 632 l 353 632 l 399 644 m 347 646 q 461 676 401 664 q 460 706 460 693 q 454 761 458 738 q 449 786 451 775 l 446 797 q 446 800 446 799 q 438 810 443 808 q 425 807 432 811 l 424 807 l 422 806 q 420 805 421 806 q 417 801 419 804 q 411 797 414 799 q 394 782 401 789 q 332 704 364 753 q 288 625 310 667 q 347 646 318 636 m 488 699 q 488 683 488 693 l 490 683 l 492 683 q 481 778 489 740 q 474 803 478 790 l 472 808 q 471 813 472 810 q 468 819 469 817 q 458 833 464 828 q 443 840 451 839 q 424 838 435 842 q 414 832 419 835 q 410 829 413 831 l 408 828 q 406 827 407 828 q 404 825 406 826 q 354 775 378 804 q 376 800 365 789 q 401 822 389 813 q 408 828 406 825 l 413 831 q 422 836 418 833 q 443 839 433 842 q 456 833 450 839 q 465 822 461 829 q 471 808 468 817 l 472 800 q 475 790 475 794 q 488 699 485 753 m 540 681 q 540 683 540 682 q 539 683 540 683 q 538 682 538 682 q 538 681 538 681 q 540 681 540 681 m 492 656 l 490 656 l 489 656 q 492 656 489 656 m 539 647 q 540 649 539 649 q 542 649 542 649 l 542 650 q 540 650 542 650 q 539 649 539 650 q 539 647 539 649 m 542 663 l 542 668 q 540 667 540 668 q 538 667 539 667 q 538 661 538 661 q 540 663 539 663 q 542 663 542 663 m 461 925 l 456 925 l 461 925 q 501 906 483 919 q 535 865 521 892 q 546 840 542 853 q 550 829 549 833 q 553 821 551 822 q 565 750 561 789 q 569 749 567 751 q 563 792 567 771 q 557 813 560 801 l 554 824 l 551 829 q 550 836 550 835 q 517 894 538 872 q 461 925 493 919 m 208 625 q 190 583 200 606 q 194 585 192 583 q 199 588 197 586 q 264 715 229 656 q 294 763 279 742 q 306 786 297 774 q 364 851 333 825 q 372 858 367 853 q 382 865 378 863 q 404 879 393 874 q 453 890 431 893 q 496 863 478 886 q 510 840 503 853 q 514 828 513 835 l 517 822 l 518 817 q 535 731 529 779 q 536 693 536 714 q 539 693 538 693 q 540 693 540 693 q 535 750 539 724 q 528 789 532 771 q 524 808 526 800 q 521 817 521 815 l 519 822 l 517 828 q 493 869 508 853 q 454 892 476 889 q 408 885 433 896 q 388 872 399 881 q 378 865 388 872 q 371 860 376 865 q 315 804 342 838 q 257 717 286 769 q 208 625 231 671 m 168 513 q 169 515 168 513 q 169 518 169 517 q 163 514 169 518 q 161 511 163 513 q 160 508 161 510 q 168 513 167 511 m 88 249 q 133 417 107 333 q 131 415 133 417 q 129 414 129 414 q 108 340 117 375 q 88 249 97 297 m 293 567 q 300 574 294 571 q 461 628 349 596 l 461 631 q 433 624 444 626 q 369 603 419 619 q 358 599 364 601 q 347 595 353 597 q 336 592 340 593 q 306 579 318 585 q 256 560 281 571 q 253 553 256 557 q 251 550 251 550 q 275 560 264 556 l 293 567 m 324 535 q 461 575 392 560 q 461 579 461 578 q 349 544 401 564 q 324 535 338 540 m 489 582 q 491 582 489 582 q 493 582 493 582 q 493 585 493 583 q 493 588 493 588 q 490 588 492 588 q 489 586 489 588 q 489 584 489 586 q 489 582 489 582 m 528 294 q 539 444 535 376 q 543 565 542 506 q 541 564 542 564 q 539 564 540 564 l 539 563 l 539 560 q 528 294 539 453 m 543 596 l 543 599 q 542 599 543 599 q 539 599 540 599 q 539 590 539 596 q 542 591 540 590 q 543 592 543 592 q 543 594 543 592 q 543 596 543 596 z "},"B":{"ha":781,"x_min":-128,"x_max":829,"o":"m 781 896 q 807 861 797 879 q 828 778 829 824 q 811 704 826 740 q 778 646 799 674 q 767 633 768 635 q 757 622 760 625 q 736 601 747 613 q 690 565 715 583 q 600 508 657 540 q 513 460 574 493 l 443 422 q 440 421 442 421 q 438 419 439 419 q 435 417 435 418 q 444 414 436 414 l 446 414 l 446 414 l 447 414 l 449 414 l 460 417 l 485 421 q 542 426 517 425 q 574 426 560 426 q 589 424 581 425 l 597 422 l 600 422 l 603 422 q 608 421 604 421 q 635 410 624 417 q 650 400 643 406 q 665 382 660 392 q 676 357 674 371 q 679 331 681 344 q 668 297 676 314 q 664 289 668 296 q 658 281 663 286 q 649 267 654 275 q 626 243 639 254 q 579 207 607 225 q 558 192 569 200 l 536 179 q 514 165 526 174 l 492 153 q 314 64 421 114 q 297 58 299 56 q 307 69 294 61 q 324 79 314 74 q 461 147 401 115 q 449 142 457 146 q 436 135 440 138 q 426 131 435 135 q 413 124 417 126 q 365 101 401 119 q 354 101 353 97 q 285 68 324 86 q 279 -69 281 -10 q 278 -76 279 -75 q 271 -69 274 -81 l 269 -64 q 271 -31 271 -53 q 271 -4 271 -8 q 267 -46 268 -33 q 266 -49 267 -49 q 264 -49 265 -50 q 263 -160 263 -90 q 257 -164 263 -171 q 256 -156 256 -160 q 256 -60 256 -135 q 257 54 256 14 q 251 -18 254 25 q 247 -93 249 -49 q 243 -100 246 -100 q 238 -94 240 -100 q 238 -118 238 -101 q 238 -143 238 -135 q 238 -192 238 -158 q 232 -197 238 -203 q 229 -190 231 -194 q 224 -139 226 -171 q 222 -233 224 -139 q 211 -258 222 -260 q 192 -226 197 -257 q 190 -215 190 -221 q 189 22 186 -108 q 182 19 185 21 q 172 -153 176 -71 q 167 -157 171 -164 q 164 -149 164 -154 q 169 -39 167 -107 q 159 -28 164 -39 q 154 -7 154 -18 q 155 0 154 -4 q 156 7 156 4 q 106 -18 126 -7 q 92 -21 90 -25 q 113 -6 93 -15 q 156 15 125 0 q 156 35 156 24 q 25 -32 78 -3 q 10 -36 10 -40 q 28 -21 13 -31 q 83 11 35 -17 q 139 42 129 38 q -69 -68 15 -17 q -76 -73 -72 -71 q -83 -77 -81 -75 q -89 -81 -86 -79 q -94 -83 -92 -82 q -100 -86 -97 -85 q -118 -94 -111 -93 q -126 -94 -124 -96 q -124 -86 -128 -92 q -97 -54 -118 -74 q -72 -35 -87 -46 q -58 -25 -65 -29 q -43 -15 -51 -19 q 158 92 33 32 q 159 99 158 93 q 160 107 160 104 q 88 75 118 89 q 74 72 74 68 q 96 88 78 78 q 160 117 122 99 q 168 238 163 169 q 179 374 174 306 q 188 494 185 442 q 194 682 190 593 q 151 661 163 663 q 160 686 138 661 q 174 700 161 692 q 185 710 178 704 q 196 718 190 713 q 197 724 196 719 q 197 731 197 728 q 57 622 122 682 q 33 601 46 613 q 18 590 25 594 q 7 594 6 585 q 22 624 8 604 q 58 665 36 644 q 190 764 122 722 q 168 758 174 757 q 169 769 163 760 q 190 792 175 778 q 201 800 194 794 q 215 824 204 825 q 225 815 221 824 q 227 817 225 817 q 229 819 229 818 q 242 826 233 822 q 246 861 244 849 q 247 872 246 868 l 258 871 l 258 872 l 271 871 l 272 869 l 282 868 q 275 858 279 861 q 275 847 275 853 l 275 844 q 299 857 288 851 q 372 889 342 878 q 396 914 361 894 q 488 947 435 938 q 603 957 547 958 q 729 931 679 954 q 739 926 735 928 q 749 921 742 924 q 781 896 767 908 m 240 75 q 239 74 240 74 q 236 72 238 74 q 236 71 236 71 q 240 74 238 72 q 240 75 240 75 m 236 64 q 236 59 236 63 q 236 53 236 56 q 240 56 239 54 q 240 63 240 57 q 240 65 240 64 q 236 64 238 64 m 240 131 l 242 131 q 242 135 242 132 q 242 139 242 138 q 242 141 242 139 q 242 144 242 143 q 240 144 242 144 q 239 143 239 143 q 238 129 239 140 q 240 131 239 129 m 244 399 q 251 406 250 404 l 253 407 q 253 408 253 407 l 249 404 q 244 400 247 403 l 244 399 m 258 549 q 261 646 260 579 q 247 439 251 506 q 254 444 251 443 q 258 549 257 503 m 246 329 q 246 328 246 328 q 247 327 246 328 q 249 326 247 326 l 249 328 q 246 329 247 328 m 279 258 q 278 243 278 250 l 272 176 q 276 175 275 176 l 279 258 m 294 285 q 289 175 292 221 q 340 199 321 189 q 358 219 339 203 q 379 235 368 226 q 403 249 393 244 l 419 258 l 435 267 q 449 275 436 268 q 467 286 461 282 l 476 292 l 465 290 q 458 289 465 290 q 449 288 451 288 q 379 282 415 283 q 315 283 346 281 l 300 283 l 294 285 m 231 685 q 233 707 231 685 q 231 707 232 707 q 231 706 231 707 q 231 697 231 706 q 231 685 231 689 m 244 294 q 242 213 244 267 q 239 151 239 160 q 240 152 239 151 q 242 153 242 153 q 244 197 243 168 q 244 238 244 225 q 247 267 246 247 q 247 294 247 288 q 244 294 246 294 m 289 165 q 289 160 289 164 q 289 153 289 156 q 514 275 428 221 q 549 300 535 289 q 539 300 543 300 q 518 286 529 293 q 501 275 513 282 q 488 267 489 268 q 358 197 426 231 q 289 165 328 182 m 576 331 q 574 331 575 331 q 572 331 572 331 q 569 326 571 329 q 574 326 572 326 q 575 326 574 326 q 578 329 576 328 l 576 331 m 588 324 m 590 328 q 590 326 590 326 q 592 329 590 328 q 590 328 590 328 m 600 338 m 597 336 q 597 336 597 336 q 599 336 597 336 q 597 336 597 336 m 600 338 l 599 338 q 600 338 600 338 l 600 338 l 600 338 l 600 338 m 529 326 q 533 331 532 328 q 525 329 529 331 q 488 324 511 328 l 468 321 l 457 319 q 443 317 450 318 q 336 313 390 310 q 296 315 311 313 q 296 314 296 315 q 296 313 296 313 q 340 310 313 310 q 392 310 365 308 q 447 315 419 311 q 455 316 450 315 q 460 317 460 317 l 471 318 l 489 321 q 529 326 513 325 m 303 449 l 303 447 l 314 454 q 330 465 319 458 q 342 474 340 472 l 372 492 l 400 508 q 357 482 367 489 q 335 468 343 474 q 325 463 333 468 q 313 454 317 457 l 303 449 m 390 531 q 460 568 408 542 q 528 604 506 593 q 592 642 569 628 q 649 683 625 663 q 674 707 663 694 l 678 713 l 683 718 q 692 731 688 725 q 708 788 713 763 q 701 806 707 799 q 682 821 694 814 q 651 831 668 828 q 614 835 638 835 q 532 829 574 836 q 367 778 460 818 q 296 744 332 763 q 296 694 296 719 q 311 681 304 696 q 317 644 318 665 q 313 609 315 638 q 308 564 310 581 q 308 558 308 561 q 306 479 307 524 q 339 500 325 492 l 353 510 l 367 517 l 379 525 l 386 529 l 390 531 m 428 840 q 289 783 357 818 q 292 778 290 781 q 428 840 358 815 m 236 754 q 233 753 236 754 q 229 750 231 751 q 229 747 229 750 l 229 740 q 233 742 231 742 q 235 744 235 743 q 236 754 236 751 m 200 328 q 189 129 194 224 q 192 131 190 131 q 199 294 194 197 q 200 326 200 307 l 200 328 m 188 119 q 188 112 188 117 q 188 104 188 107 l 192 107 q 192 115 192 110 q 192 122 192 119 l 188 119 m 182 28 q 185 29 183 28 q 189 31 188 31 q 190 50 189 40 q 187 49 189 50 q 183 47 185 49 q 182 28 182 29 m 238 -58 q 240 46 238 -35 q 238 46 239 46 q 236 44 238 44 q 238 -58 236 19 m 553 221 q 582 242 569 232 q 540 215 563 228 q 528 208 536 213 q 513 199 519 203 q 500 192 507 194 q 418 147 464 171 q 285 85 371 124 q 285 81 285 83 q 285 76 285 78 q 349 107 321 93 q 467 168 417 140 q 476 174 471 171 q 487 180 481 176 q 496 186 493 183 q 525 203 514 196 l 553 221 m 439 400 q 413 400 425 399 q 400 401 404 401 q 395 405 396 403 q 399 411 394 407 q 394 407 394 408 q 394 401 393 404 q 404 399 396 401 q 414 397 408 399 q 436 396 425 396 q 439 400 438 399 m 778 775 q 774 815 779 796 q 754 851 768 835 q 696 890 733 876 q 631 904 668 901 q 506 894 572 908 q 589 903 546 903 q 631 901 613 903 q 674 894 653 900 q 714 878 697 888 q 750 849 736 867 q 771 806 765 831 q 771 760 775 785 q 735 681 764 719 q 674 622 711 650 q 606 576 646 600 q 535 536 579 560 l 472 501 q 446 483 464 493 l 429 474 l 414 464 q 388 447 403 457 q 336 414 358 431 q 324 404 332 411 q 311 394 317 400 q 306 392 310 394 q 300 386 303 389 q 300 378 300 383 q 300 369 300 372 q 310 364 303 365 q 325 361 313 364 q 356 360 340 360 q 419 361 388 358 q 451 364 435 363 q 490 371 486 371 q 576 376 544 379 q 588 375 582 375 q 599 372 594 374 q 622 358 614 368 q 631 343 629 351 q 629 326 632 335 q 624 315 626 321 q 618 306 621 310 q 551 244 597 275 q 515 221 550 243 q 478 197 507 215 q 325 115 414 160 q 540 232 450 175 q 592 271 572 253 q 614 294 604 282 q 624 308 618 301 q 628 317 628 315 q 632 325 631 321 q 635 339 635 332 q 631 353 635 346 q 613 371 625 364 q 593 378 604 375 q 576 381 583 379 q 511 378 549 383 q 481 372 499 376 l 451 368 q 406 363 429 364 q 318 365 361 360 q 308 369 313 367 q 301 378 301 374 q 306 388 300 383 q 308 390 307 389 q 311 392 310 390 q 314 394 313 393 q 350 421 326 404 q 386 444 371 435 q 406 456 390 447 l 425 467 q 488 501 447 479 q 542 531 528 524 q 657 601 621 576 q 711 646 689 624 q 735 672 725 660 q 756 703 747 688 q 778 775 776 740 z "},"C":{"ha":642,"x_min":-12,"x_max":618,"o":"m 575 192 q 615 226 613 247 q 585 153 618 201 q 542 93 563 121 q 493 35 514 58 q 514 40 515 53 q 514 35 514 38 q 472 -25 506 10 q 419 -74 443 -56 q 389 -96 414 -78 q 374 -107 389 -97 q 357 -117 364 -114 q 340 -143 368 -121 q 338 -146 339 -144 q 297 -168 319 -158 q 235 -181 267 -179 q 164 -168 197 -181 q 131 -153 147 -162 q 103 -132 117 -143 q 35 -33 63 -94 q 28 -21 31 -26 q -3 81 7 26 q -11 181 -11 128 q -7 278 -12 225 q -3 325 -7 288 q 4 371 3 365 q 108 732 33 557 q 147 817 125 771 q 194 901 172 865 q 222 942 208 922 q 256 981 238 961 q 292 1018 271 999 l 301 1026 l 311 1035 q 322 1042 315 1038 q 335 1051 329 1047 q 363 1065 349 1060 q 378 1072 369 1068 l 388 1075 q 397 1076 390 1075 q 476 1068 440 1086 q 510 1044 494 1058 q 533 1014 524 1031 q 547 986 542 1001 q 553 972 550 979 l 557 960 q 572 860 569 915 q 572 767 574 824 q 568 750 571 751 q 565 751 567 749 l 563 781 q 554 928 565 869 q 560 825 561 883 q 557 815 558 815 q 535 561 556 697 q 532 549 533 551 q 529 551 531 547 l 529 572 q 549 814 549 703 q 535 939 549 888 q 531 954 533 946 l 528 963 q 525 971 525 969 q 508 1003 518 989 q 496 1019 503 1013 q 481 1035 489 1028 q 449 1049 467 1044 q 492 1022 474 1042 q 519 976 508 1004 q 533 932 528 958 q 539 888 538 911 q 542 801 543 851 q 536 717 540 758 q 533 700 535 703 q 529 703 531 699 q 528 715 528 708 q 499 494 521 614 q 495 482 497 485 q 492 485 493 479 q 492 503 490 490 q 503 618 500 574 q 467 408 492 529 q 446 357 456 354 q 440 435 432 363 q 443 458 442 446 q 478 736 472 624 q 479 756 479 743 q 481 771 479 769 q 481 806 481 800 q 478 872 481 844 q 467 935 475 907 q 456 961 461 951 q 443 978 450 972 q 426 985 436 983 q 418 985 422 985 q 414 983 417 985 q 412 983 413 983 q 411 983 411 983 q 408 982 410 983 q 383 969 397 978 q 372 961 376 964 q 360 950 363 953 q 275 849 314 913 q 210 725 244 800 q 158 594 181 660 q 132 508 143 550 q 229 761 168 640 q 297 875 263 829 q 338 925 317 903 q 360 946 350 938 q 372 956 367 951 l 378 960 q 383 964 383 964 q 407 976 396 972 q 413 978 408 976 l 414 978 q 415 979 414 979 q 424 979 419 979 q 438 975 431 979 q 442 969 440 972 q 444 967 443 969 q 446 964 446 965 q 457 942 451 956 q 464 914 461 928 q 471 854 469 888 q 469 790 471 825 q 465 725 468 761 q 449 596 460 667 q 444 585 446 585 q 443 607 439 585 q 457 725 453 668 q 461 783 460 757 q 463 840 463 815 q 450 861 457 842 q 440 901 444 881 q 433 928 438 915 q 426 946 431 939 q 424 949 425 949 l 424 950 q 422 951 424 951 q 419 951 421 951 q 401 943 413 950 q 399 942 401 943 q 397 940 397 940 l 394 938 l 392 936 q 381 926 383 929 l 375 922 l 369 917 q 360 907 367 914 q 285 807 321 869 q 253 749 268 779 q 239 719 247 738 q 224 689 233 710 q 139 433 168 564 q 115 300 124 367 q 107 167 106 224 q 140 21 111 82 q 147 6 140 19 q 157 -10 150 0 q 176 -34 165 -24 q 197 -50 186 -44 q 219 -56 207 -54 q 275 -46 243 -58 q 307 -31 290 -39 q 310 -28 307 -29 q 314 -25 313 -26 l 322 -19 q 338 -10 335 -12 q 397 39 367 11 q 451 96 426 67 q 481 126 468 114 q 497 138 492 136 q 503 133 503 139 q 497 114 504 126 q 489 97 497 108 l 482 88 q 471 74 475 79 q 390 -10 432 25 q 369 -29 376 -24 q 359 -36 368 -29 q 346 -46 350 -43 q 322 -62 328 -58 q 297 -75 310 -69 q 339 -53 319 -65 q 360 -40 357 -42 q 379 -25 378 -28 q 451 39 417 3 q 575 192 511 99 m 147 786 q 108 696 124 735 q 124 731 121 725 q 140 765 133 753 l 149 783 l 157 800 q 194 869 175 836 q 193 874 193 869 q 147 786 172 838 m 165 -111 q 226 -125 193 -125 q 149 -99 182 -125 q 96 -39 119 -78 q 49 106 60 24 q 46 256 40 171 q 67 401 53 328 q 72 433 68 414 q 79 465 75 447 q 83 494 79 478 q 185 779 117 640 q 261 911 224 858 q 311 969 286 944 q 340 994 328 985 q 374 1017 357 1008 q 393 1026 383 1024 q 414 1032 404 1031 q 438 1031 426 1033 q 458 1024 449 1029 q 492 993 478 1014 q 510 956 503 978 q 531 797 531 894 q 524 908 532 864 q 510 965 518 940 q 496 992 503 981 q 486 1006 492 999 q 475 1017 481 1013 q 446 1033 461 1028 q 411 1035 431 1038 q 403 1033 408 1033 q 396 1031 400 1032 q 381 1025 389 1029 q 354 1010 368 1019 q 271 929 310 979 q 208 832 239 888 q 160 731 185 789 q 85 519 115 629 q 42 278 53 400 q 39 154 35 210 q 46 92 40 122 q 61 31 51 58 q 65 17 64 24 q 67 13 67 15 q 69 8 68 10 q 71 3 71 6 q 83 -24 81 -18 q 117 -72 97 -50 q 165 -111 139 -97 z "},"D":{"ha":849,"x_min":0,"x_max":886,"o":"m 79 625 q 32 572 44 592 q 28 564 31 568 q 24 556 25 560 q 21 551 22 553 l 15 558 q 6 551 13 554 l 3 550 l 3 556 q 4 578 0 565 q 18 606 8 592 q 58 647 31 621 q 79 668 65 654 q 101 686 88 675 q 82 686 82 676 q 83 690 82 689 q 94 710 86 699 q 118 735 103 721 q 208 799 160 769 q 219 824 200 803 q 243 842 229 833 q 275 860 261 854 q 285 864 275 861 q 285 869 285 865 q 285 874 285 872 q 286 878 285 876 l 297 957 l 321 883 q 321 879 321 881 q 418 910 369 897 q 428 913 422 913 q 578 939 508 936 q 660 935 619 940 q 701 925 685 931 q 743 910 724 919 q 822 856 790 889 q 853 814 840 836 q 872 768 864 793 q 881 675 885 724 q 874 631 879 653 q 861 589 869 610 q 824 517 847 554 q 781 456 807 489 q 682 349 739 403 q 576 256 639 307 q 469 168 526 213 q 458 164 460 160 q 472 182 456 169 q 554 250 515 217 q 496 206 522 225 q 488 204 488 200 q 353 99 421 150 q 354 43 353 64 q 347 38 354 32 q 344 47 344 40 q 343 92 344 63 q 343 90 343 90 q 340 64 342 78 q 340 60 340 61 q 336 60 339 60 q 340 -39 339 1 q 335 -43 340 -49 q 332 -35 332 -40 q 328 82 331 11 q 326 83 326 81 q 328 88 326 85 q 328 110 328 96 q 326 109 326 110 q 324 108 325 108 q 324 98 324 106 q 324 88 324 90 q 322 21 322 57 q 319 14 322 14 q 313 19 315 14 q 313 14 313 17 q 315 -69 315 -42 q 310 -74 315 -79 l 307 -67 q 300 -22 304 -50 q 301 -107 300 -67 q 290 -129 301 -131 q 269 -101 276 -129 q 268 -92 269 -96 q 261 79 263 -12 q 251 74 254 75 q 249 -37 250 14 q 243 -42 249 -47 q 242 -33 242 -39 q 243 65 243 51 q 240 65 242 65 q 211 44 225 54 q 171 32 169 15 q 219 90 174 54 q 223 93 221 92 q 226 96 225 94 q 231 349 225 185 q 239 544 238 514 q 239 699 238 625 q 136 624 185 664 q 111 604 122 610 q 96 597 101 597 q 96 619 85 599 q 103 631 96 624 l 111 638 q 121 647 117 643 q 239 740 176 700 q 239 742 239 742 q 239 743 239 742 q 136 674 188 713 q 107 650 128 667 q 79 625 81 626 m 253 115 q 260 121 258 119 q 258 365 258 211 q 258 378 258 374 q 258 390 258 382 q 258 403 258 397 q 257 310 258 364 q 255 207 256 257 q 253 115 254 157 m 775 753 q 782 664 792 713 q 746 576 774 622 q 686 496 724 540 q 615 422 654 460 q 458 289 556 365 q 354 211 411 251 q 354 203 354 208 q 353 193 354 197 q 558 363 472 288 q 706 515 650 444 q 761 601 743 563 q 786 694 786 650 q 775 753 786 726 m 744 629 q 760 708 761 671 q 757 728 758 719 q 751 744 756 736 q 733 774 744 761 q 663 813 708 800 q 571 819 621 824 q 454 797 518 815 q 340 754 396 779 q 339 754 340 754 q 340 725 339 742 q 355 714 347 728 q 361 682 363 700 q 360 659 361 671 q 358 633 360 647 q 357 610 357 619 q 357 606 357 607 q 356 421 357 551 q 354 221 354 290 q 444 289 403 257 q 451 310 442 294 q 476 338 461 325 q 631 475 576 421 q 696 551 667 514 q 744 629 728 594 m 303 413 q 304 299 304 371 q 306 185 304 226 q 307 187 306 186 q 308 188 308 188 q 307 403 306 326 q 307 464 307 429 q 307 533 307 499 q 308 594 307 567 q 307 682 308 632 q 300 450 301 547 q 299 424 299 438 q 303 413 303 419 m 338 263 q 340 261 339 263 l 340 336 q 340 328 340 333 q 339 322 339 324 l 338 263 m 306 175 q 306 157 306 171 q 308 158 307 157 q 310 160 308 158 q 309 168 310 161 q 308 179 308 175 q 307 178 308 178 q 306 176 306 176 l 306 175 m 310 115 q 309 115 310 115 q 308 114 308 114 q 308 110 308 113 q 309 112 308 111 q 310 113 310 113 q 310 115 310 114 m 311 51 q 311 97 311 72 q 309 97 310 97 q 308 96 308 97 q 310 75 310 90 q 311 51 311 60 m 325 125 q 326 126 325 125 q 326 126 326 126 q 326 128 326 126 q 326 127 326 128 q 325 126 325 126 q 325 125 325 125 m 353 108 q 621 331 508 225 q 419 169 560 276 q 407 165 406 160 q 413 176 407 169 q 353 131 385 154 q 353 119 353 126 q 353 108 353 111 m 857 622 q 846 592 851 607 q 779 482 824 540 q 781 478 781 481 q 825 544 807 513 q 857 622 846 583 m 464 872 q 313 818 388 853 l 313 817 q 410 853 361 838 q 522 878 469 871 q 638 881 585 888 q 749 843 703 872 q 789 808 772 828 q 797 801 793 806 q 806 790 801 797 q 828 731 822 764 q 829 669 833 701 q 789 554 824 614 q 719 460 764 513 q 640 375 685 419 q 551 293 603 339 q 461 215 507 253 q 590 325 532 272 q 713 446 663 388 q 767 515 742 481 q 811 592 794 556 q 833 681 831 639 q 818 774 836 732 q 790 818 808 799 q 750 851 774 836 q 656 885 710 876 q 558 889 610 893 q 464 872 514 885 m 275 721 q 275 718 275 719 q 275 715 275 717 q 275 718 275 717 l 275 721 z "},"E":{"ha":689,"x_min":1,"x_max":674,"o":"m 386 44 l 379 39 l 375 35 l 374 33 l 371 31 q 342 7 347 11 q 286 -32 313 -18 q 233 -47 258 -46 q 211 -46 221 -49 q 188 -37 199 -44 q 176 -29 181 -33 q 168 -21 172 -25 q 163 -12 165 -17 l 161 -8 q 158 -4 160 -7 l 158 -3 q 151 22 154 7 q 149 38 150 33 q 149 53 149 51 q 153 121 149 85 l 156 138 l 157 146 l 157 153 l 161 172 l 168 211 l 175 250 q 183 291 178 264 q 189 329 188 318 q 131 294 164 314 q 113 294 119 288 q 110 310 107 300 q 113 315 110 313 l 115 317 q 118 319 117 318 q 164 357 161 353 q 129 338 163 356 q 79 311 96 319 l 76 319 q 71 315 74 317 l 35 297 l 65 336 q 69 340 68 339 l 71 340 l 69 344 q 76 344 74 344 q 101 360 92 354 q 91 371 92 360 q 100 389 90 382 q 128 410 113 400 q 126 427 122 415 q 140 443 131 439 q 182 461 163 454 q 185 464 183 463 q 217 481 199 472 q 246 639 229 549 q 226 628 236 633 q 82 507 129 564 q 64 499 72 496 q 56 514 56 503 q 56 519 54 517 l 58 522 q 61 528 60 525 q 104 582 79 556 q 61 542 81 563 q 42 521 51 532 l 38 515 q 33 510 35 513 q 31 500 29 504 q 31 497 31 499 q 28 499 29 499 q 25 499 26 499 q 19 500 22 499 q 10 503 14 501 q 3 511 6 507 q 4 521 1 515 q 10 532 6 525 l 18 542 q 32 560 25 551 q 19 567 21 556 q 25 590 15 578 q 56 625 39 608 q 52 643 49 629 q 68 667 56 657 q 119 699 92 682 q 122 701 121 700 q 274 789 194 750 q 285 804 279 801 q 296 799 290 807 q 317 807 304 801 q 322 846 321 829 q 329 870 325 864 q 339 872 333 876 q 351 828 356 863 q 350 824 351 826 q 350 821 350 822 q 428 849 389 836 q 482 864 456 857 q 538 876 515 872 q 543 874 544 878 q 536 867 543 868 q 494 856 515 863 q 524 861 507 858 q 527 860 526 861 q 528 857 528 860 q 607 872 574 869 q 611 867 617 872 q 606 864 608 864 q 531 850 572 861 q 460 829 499 842 q 563 849 506 839 q 568 847 568 850 q 565 840 568 843 q 633 847 601 849 q 636 842 640 847 q 632 839 635 840 q 599 832 614 836 q 629 833 614 833 q 644 832 638 833 q 654 828 651 831 q 656 824 657 825 q 654 822 656 822 l 654 822 q 653 821 654 822 q 652 820 653 821 q 651 818 651 819 q 646 806 649 814 q 645 803 646 806 q 644 800 644 801 l 644 799 l 643 799 l 643 799 q 639 800 642 799 l 638 800 l 635 799 l 631 799 q 611 797 622 799 q 572 790 593 796 q 492 769 540 783 q 358 721 421 749 l 358 719 q 463 756 411 740 q 540 774 500 765 q 615 782 585 782 q 618 776 621 781 q 614 774 617 774 q 547 767 586 774 q 544 754 549 761 q 532 746 539 747 q 376 697 442 722 q 356 690 367 694 q 347 636 353 665 q 357 628 353 638 q 362 606 361 619 q 360 574 363 592 q 356 558 358 571 q 351 538 353 544 q 521 585 436 568 q 526 582 526 585 q 521 575 525 576 q 488 567 513 574 q 499 569 492 568 q 511 569 507 569 q 515 567 515 569 q 576 579 554 576 q 581 576 581 579 q 575 571 578 572 q 461 543 522 563 q 501 550 474 546 q 522 552 508 550 q 543 556 536 554 q 548 553 547 557 q 546 547 549 550 q 574 554 560 551 q 600 557 590 557 q 604 555 604 558 q 600 550 604 551 q 574 539 588 544 q 600 543 588 542 q 626 546 611 544 q 642 533 642 547 q 624 513 639 518 q 360 439 469 482 q 340 431 360 439 q 467 471 404 456 q 594 490 532 486 q 599 486 601 490 l 594 483 q 565 479 579 482 q 538 475 544 476 q 537 470 538 474 q 535 464 536 467 q 531 459 533 461 q 525 457 528 457 q 324 397 396 426 q 301 276 310 325 q 286 181 292 221 l 279 136 q 278 133 278 135 q 276 129 276 132 q 276 127 276 128 q 278 125 276 126 q 286 126 281 124 l 288 128 q 289 128 288 128 l 293 132 q 313 149 307 143 q 353 179 332 163 q 435 238 393 210 q 444 240 443 243 q 433 225 443 233 q 371 181 406 207 q 417 210 390 193 q 422 210 422 214 q 540 286 486 254 q 547 288 547 290 q 539 278 549 283 q 324 121 428 210 q 476 228 385 167 q 487 229 485 232 q 483 221 489 226 q 588 286 536 257 q 596 286 596 290 q 589 276 594 282 q 566 260 585 274 q 538 239 547 246 q 639 296 588 269 q 671 296 674 313 q 635 257 667 276 q 381 82 497 176 l 365 69 l 350 57 q 307 21 318 29 q 263 -6 282 3 q 242 -14 251 -11 q 221 -17 229 -17 q 199 -10 208 -17 q 186 7 190 -4 q 178 50 179 29 q 178 103 176 71 q 181 131 179 114 l 183 144 l 185 156 q 186 168 185 161 q 188 181 188 175 q 190 193 189 186 q 192 206 192 200 l 186 168 l 183 149 q 179 122 181 136 q 175 69 176 94 q 175 63 175 67 q 175 56 175 58 q 176 43 175 49 q 179 22 178 31 q 182 11 181 18 q 186 3 183 7 q 200 -14 190 -8 q 221 -19 208 -19 q 242 -17 229 -19 q 328 31 278 -10 q 350 50 335 36 l 356 54 l 360 57 l 367 63 q 396 86 381 74 q 456 128 422 106 q 579 204 515 169 q 586 206 585 207 q 578 194 589 201 q 467 125 521 163 q 467 116 469 122 q 458 103 464 110 q 446 90 453 96 q 386 44 418 69 m 279 456 q 278 451 279 454 q 278 447 278 449 q 282 450 282 450 q 283 454 282 451 q 283 458 283 457 q 279 456 282 457 m 526 543 q 338 482 447 525 l 338 478 q 454 519 363 489 q 526 543 510 538 m 390 538 q 347 521 363 528 l 354 524 q 390 533 358 525 q 390 538 390 536 m 294 744 q 294 743 294 744 q 294 740 294 742 q 304 746 301 744 l 306 749 q 294 744 300 747 m 540 835 q 342 765 447 813 q 341 765 342 765 q 340 764 340 764 q 450 804 375 778 q 540 835 510 825 m 374 815 q 349 806 363 811 q 348 804 349 806 q 347 803 347 803 q 374 813 361 808 q 374 815 374 814 m 257 717 l 260 718 q 260 723 260 719 q 261 728 261 726 q 157 665 207 699 q 103 624 132 647 q 179 674 136 647 q 257 717 215 696 m 288 660 q 285 660 286 660 q 285 660 285 660 q 283 645 283 654 q 281 632 282 636 q 284 646 282 636 q 288 660 286 656 m 304 582 q 299 552 304 576 q 290 514 293 528 q 292 515 292 515 q 294 515 293 515 q 304 582 296 528 m 207 419 q 167 396 194 413 q 206 414 183 404 q 206 417 206 415 q 207 419 207 418 m 269 374 q 265 372 268 374 q 263 371 263 371 q 243 264 251 313 l 236 229 q 238 213 239 222 q 235 194 236 204 q 233 174 233 183 q 231 154 232 165 q 228 135 229 143 q 222 71 224 97 q 224 54 222 60 q 231 42 224 44 q 246 40 238 38 q 261 47 251 42 q 314 86 281 57 l 328 99 q 344 113 336 107 q 378 140 356 122 q 446 194 413 169 q 349 121 396 160 q 325 101 333 108 l 306 85 q 269 57 283 65 q 249 46 256 49 q 238 44 243 44 q 229 51 232 46 q 226 63 226 56 q 225 74 225 68 q 226 96 225 85 q 231 140 228 115 l 233 154 l 235 169 q 238 185 236 175 q 239 200 239 196 q 269 374 251 272 m 261 108 q 261 115 261 111 q 263 129 263 122 q 261 124 263 126 q 260 111 260 117 q 258 103 258 104 q 263 97 258 99 q 265 103 264 100 q 261 108 263 104 z "},"F":{"ha":756,"x_min":-4,"x_max":790,"o":"m 256 211 q 263 371 257 276 q 183 304 222 340 q 164 299 172 294 q 157 314 156 303 q 160 321 157 317 l 163 324 q 165 328 164 325 q 176 339 168 329 q 189 354 185 349 l 214 379 q 168 342 174 347 l 144 324 l 124 304 q 101 307 106 289 q 108 332 97 321 q 117 340 111 335 q 125 347 122 346 q 142 363 126 350 q 128 374 128 360 q 137 394 128 385 q 168 425 146 404 q 164 442 161 429 q 169 454 165 449 q 181 464 174 460 q 229 494 211 485 q 232 497 231 496 q 268 521 249 508 q 275 685 271 607 q 254 672 264 679 q 85 525 146 599 q 65 515 74 513 q 57 529 56 517 q 58 536 56 532 l 61 540 q 64 546 63 543 q 115 610 89 581 q 65 563 88 586 q 43 536 51 547 q 26 511 29 521 q 22 500 24 501 q 13 500 19 497 q 1 511 4 504 q 3 532 -3 522 q 18 557 7 542 q 36 578 25 564 q 21 588 21 571 q 31 611 21 599 q 64 650 44 631 q 61 669 57 654 q 79 696 65 685 q 138 735 106 715 q 140 738 139 736 q 253 810 193 776 q 288 829 268 818 q 288 831 288 829 q 288 832 288 832 q 301 864 290 860 q 314 851 310 868 q 317 843 317 850 q 329 849 319 844 q 331 851 329 850 q 331 856 331 854 l 339 904 q 353 929 343 932 q 367 893 368 926 l 367 888 q 364 865 365 878 q 368 867 365 865 q 372 868 371 868 q 497 914 435 894 q 560 932 533 925 q 625 946 596 940 q 632 944 631 946 q 625 936 635 940 l 622 935 q 574 924 600 931 q 608 929 593 926 q 612 928 611 929 q 613 926 613 928 q 706 939 665 938 q 710 933 717 939 l 703 931 q 615 919 664 931 q 532 896 576 910 q 651 917 596 910 q 658 915 658 918 q 654 908 658 911 q 733 914 697 917 q 738 908 743 913 q 732 906 735 906 q 692 899 713 903 q 728 899 710 900 q 765 894 747 899 q 778 875 789 889 q 749 864 768 863 q 564 835 683 869 q 381 767 467 807 q 381 767 381 767 q 529 819 454 799 q 621 842 575 833 q 707 849 669 850 q 710 843 715 847 q 706 840 708 840 q 628 833 672 842 q 623 822 629 828 q 608 813 617 815 q 426 757 507 788 q 379 738 403 747 q 379 717 379 725 q 393 701 388 718 q 397 683 396 694 q 397 661 399 674 q 394 626 397 654 q 390 583 392 599 q 433 601 413 594 q 650 657 536 640 q 656 654 656 658 q 647 647 656 649 q 606 639 635 646 q 618 640 607 639 q 636 642 629 642 q 638 641 638 642 q 639 639 639 640 l 678 644 q 715 649 688 647 q 719 649 718 650 q 714 642 719 644 q 571 614 646 635 q 621 622 581 617 q 638 624 629 622 q 656 626 646 625 q 672 628 665 626 q 678 624 678 628 q 675 619 678 621 q 708 624 688 622 q 742 626 732 626 q 744 621 749 626 l 740 618 q 707 610 719 613 q 739 611 725 611 q 771 613 756 613 q 788 601 788 613 q 769 582 788 588 q 763 581 765 581 q 440 501 578 560 q 428 496 432 497 l 417 490 q 569 540 492 522 q 725 560 644 558 q 728 554 732 560 q 724 551 726 551 l 706 551 q 689 550 704 551 q 654 546 663 547 q 649 534 654 540 q 638 526 644 528 q 482 488 550 510 q 385 449 431 471 q 379 215 381 338 q 375 -139 378 165 q 374 -146 375 -144 q 367 -140 369 -150 q 365 -132 365 -136 q 365 -64 365 -97 q 363 -111 364 -89 q 358 -115 361 -115 q 360 -240 360 -194 q 358 -246 360 -244 q 353 -243 356 -249 l 351 -235 q 349 1 351 -146 q 343 -164 343 -117 q 340 -173 343 -174 q 335 -165 336 -172 q 335 -276 336 -232 q 329 -281 333 -289 l 326 -274 q 321 -215 324 -249 q 318 -322 319 -271 q 307 -350 318 -350 q 288 -312 293 -349 l 286 -301 q 283 269 281 -29 q 285 315 283 293 q 280 140 282 251 q 275 -62 278 29 q 268 -232 272 -153 q 264 -236 268 -244 q 261 -228 261 -233 q 265 -106 264 -161 q 254 -94 260 -106 q 249 -69 249 -82 q 256 211 249 50 m 322 792 q 315 788 319 790 q 315 784 315 786 q 314 781 314 782 q 321 786 317 785 q 321 788 321 788 q 322 790 322 788 q 322 792 322 792 m 625 903 q 375 817 506 878 q 375 815 375 817 q 518 869 426 839 q 571 888 550 881 q 625 903 600 896 m 432 878 q 368 850 401 867 l 381 856 q 432 874 406 865 q 432 878 431 876 m 203 715 q 281 761 239 739 q 281 766 281 763 q 282 771 282 769 q 178 704 228 740 q 115 654 149 683 q 203 715 153 683 m 332 94 q 331 206 332 97 q 332 223 332 213 q 332 243 332 233 q 332 260 332 253 q 332 315 332 296 q 335 422 333 363 q 331 420 333 422 q 328 418 328 418 q 326 374 326 382 l 325 342 q 329 326 328 336 q 328 178 329 281 q 329 31 328 76 q 333 -125 329 24 q 332 94 333 -121 m 332 501 q 331 497 332 500 q 331 493 331 494 q 338 496 332 494 q 338 500 338 497 q 338 504 338 503 q 332 501 332 501 m 361 139 q 365 138 363 139 l 365 231 q 364 213 364 224 l 361 139 m 457 596 q 429 585 439 589 l 440 589 l 485 601 q 483 606 483 604 l 457 596 m 410 540 q 401 536 407 539 q 394 533 396 533 q 390 531 393 532 l 388 529 q 388 525 388 528 q 390 526 389 526 q 560 590 444 557 q 650 614 613 607 q 521 582 582 603 q 457 560 507 578 q 449 556 453 558 q 441 553 444 554 q 433 550 438 551 q 425 547 429 549 l 410 540 m 343 664 q 335 558 339 617 q 338 559 336 558 q 339 560 339 560 q 340 608 340 583 l 343 664 m 214 421 q 265 456 239 438 q 265 458 265 456 q 267 461 265 460 q 240 442 254 453 l 214 421 z "},"G":{"ha":899,"x_min":-1,"x_max":947,"o":"m 929 624 q 933 614 947 625 q 804 549 914 599 q 764 531 785 542 l 764 528 q 763 490 764 497 l 760 451 q 758 440 760 446 q 756 426 757 433 q 754 414 756 418 l 753 394 q 751 389 751 392 q 749 382 750 386 q 749 376 749 378 l 742 339 l 732 301 q 730 294 732 301 q 726 283 728 288 l 721 265 q 717 254 719 261 q 713 241 715 247 q 708 229 711 235 l 694 193 q 626 58 663 115 q 583 -6 621 49 q 560 -35 582 -7 l 549 -50 l 536 -64 q 510 -92 511 -92 l 483 -119 q 455 -145 471 -132 q 424 -169 439 -158 q 349 -212 386 -197 q 339 -217 349 -212 q 328 -221 332 -219 q 304 -226 317 -224 q 250 -229 275 -232 q 218 -221 235 -226 q 190 -206 204 -215 q 177 -197 181 -200 q 171 -190 174 -193 l 165 -185 q 147 -158 156 -174 q 131 -107 136 -135 q 128 -60 128 -85 q 133 -18 129 -44 q 138 3 136 0 l 142 22 q 169 96 151 58 q 249 226 199 160 q 294 282 271 256 q 343 336 303 293 q 364 350 365 356 q 335 313 360 340 q 327 305 335 313 q 317 293 319 297 l 297 271 q 263 228 281 253 q 199 133 224 178 q 292 260 235 193 q 304 268 304 272 q 610 531 436 424 q 626 539 621 538 q 628 538 628 539 q 628 536 629 538 q 599 514 621 528 q 311 265 436 411 q 251 189 281 231 q 201 104 222 146 q 167 10 178 56 q 161 -15 163 -6 q 160 -20 161 -15 q 158 -28 160 -25 l 157 -40 q 156 -67 156 -51 q 157 -94 156 -81 q 157 -56 156 -76 l 157 -46 l 158 -37 q 161 -19 161 -22 q 181 47 168 13 q 210 111 192 79 q 244 169 225 140 q 329 274 278 217 q 424 369 382 332 q 436 379 431 375 q 444 384 442 383 q 446 385 446 385 q 432 364 447 382 q 642 521 529 454 q 638 636 644 581 q 629 688 636 657 q 617 735 625 713 q 600 779 610 760 l 594 790 l 589 800 l 583 807 q 582 810 582 810 q 568 819 575 819 q 553 811 560 821 q 550 808 551 810 l 549 807 l 546 803 l 532 781 q 504 735 513 750 q 448 628 492 711 q 376 500 404 546 q 293 386 336 433 l 281 374 q 268 360 272 364 l 254 347 q 240 335 243 338 q 206 311 222 321 q 163 293 185 299 q 107 290 133 285 q 54 313 78 294 q 44 322 50 317 q 35 333 40 326 q 19 357 25 344 q 4 403 8 378 q 0 446 0 424 q 3 486 0 463 q 21 561 8 524 q 86 692 43 626 q 181 803 128 753 q 242 850 211 831 q 275 865 264 863 q 276 854 286 865 q 256 833 271 847 q 235 813 253 828 q 218 799 233 811 q 214 795 215 797 q 210 792 213 793 q 206 788 208 790 q 203 785 204 786 q 199 781 201 783 q 196 778 197 779 q 81 618 125 707 q 47 526 58 572 q 38 478 40 501 q 36 453 36 463 q 38 426 36 440 q 36 449 36 436 q 38 469 38 458 q 46 510 40 490 q 72 588 54 549 q 158 724 106 663 q 281 831 211 786 q 353 869 318 856 q 393 882 374 876 q 438 885 418 888 q 456 882 447 885 q 463 890 460 886 q 513 935 485 919 q 542 945 526 942 q 574 949 558 949 q 635 926 606 946 q 660 904 647 918 q 663 900 661 903 q 665 897 664 899 l 671 890 l 681 876 q 685 869 682 875 l 689 865 q 694 856 690 863 q 704 838 699 850 q 722 799 715 815 q 746 719 736 763 q 758 643 754 681 l 760 624 q 763 606 761 613 l 764 567 q 856 606 810 588 q 929 624 904 622 m 713 542 q 714 542 713 542 q 715 544 715 543 l 715 551 q 714 551 714 551 q 713 550 714 550 q 711 550 713 550 q 711 546 711 549 l 713 542 m 667 524 q 667 520 667 522 q 667 518 667 518 q 667 524 667 521 m 117 440 q 122 425 119 432 q 128 413 125 418 q 129 411 128 413 l 129 411 l 131 411 l 131 411 l 131 411 l 132 413 q 149 419 139 414 q 158 426 151 422 q 160 428 158 426 q 163 429 161 429 q 168 435 167 433 l 179 444 q 190 456 190 456 q 271 556 232 496 q 281 572 276 564 q 348 693 304 610 q 415 818 392 776 q 423 831 415 818 q 435 850 431 843 l 439 856 q 399 851 422 857 q 297 804 350 839 q 210 732 250 772 q 236 747 229 747 q 235 736 242 747 q 224 717 232 729 q 201 687 215 706 q 178 651 188 668 q 103 474 115 558 q 111 467 107 476 q 114 454 113 463 q 114 450 114 453 l 115 447 q 115 444 115 447 q 117 440 117 442 m 463 789 l 478 814 q 486 826 481 819 q 483 832 485 829 q 482 833 482 832 l 474 819 l 461 799 q 438 757 458 794 q 393 673 422 729 q 347 589 364 617 q 304 515 328 553 q 279 481 281 482 l 267 464 l 254 447 l 247 439 l 240 432 l 225 417 q 217 408 222 414 q 210 401 211 403 q 194 388 197 390 q 163 365 178 374 q 144 358 151 361 q 133 357 138 357 q 150 361 142 357 q 174 371 161 364 q 196 386 185 378 q 206 396 201 392 l 217 406 q 290 490 254 442 q 406 688 332 547 q 463 789 440 751 m 711 568 q 711 563 711 567 l 711 558 q 714 559 713 558 q 715 561 715 560 q 715 570 715 564 q 714 579 715 576 l 714 603 q 713 615 713 608 l 711 628 q 704 676 706 671 q 694 724 700 701 q 660 818 682 776 q 647 840 654 828 q 639 851 640 850 q 635 857 639 853 q 629 864 632 861 q 581 897 607 892 q 551 897 567 901 q 525 885 538 893 q 504 864 514 876 q 494 851 499 857 l 494 850 q 497 843 496 847 q 503 853 500 849 q 514 865 508 860 q 540 886 528 879 q 574 893 557 894 q 604 879 589 890 q 628 854 617 869 q 632 849 628 854 q 638 840 636 843 q 646 828 644 831 q 689 718 674 781 q 699 667 694 693 q 702 637 700 657 q 704 615 704 617 q 708 596 707 608 q 711 568 710 583 m 642 507 q 563 451 600 481 q 642 503 600 478 q 642 505 642 504 q 642 507 642 506 m 379 239 l 371 229 q 304 144 333 188 q 224 -44 236 46 q 222 -69 222 -57 q 224 -90 222 -81 q 238 -122 228 -112 q 249 -132 243 -129 q 256 -133 254 -133 q 265 -135 258 -135 q 306 -128 283 -136 q 467 3 372 -103 q 471 6 468 3 q 476 13 474 10 l 485 24 l 501 44 l 506 50 l 517 67 l 532 89 q 561 135 554 124 l 574 158 q 586 183 583 179 q 653 390 633 282 l 657 407 q 658 417 657 411 q 658 425 658 424 q 660 435 660 429 q 662 448 661 442 q 664 460 663 454 q 665 476 664 465 l 664 476 q 554 128 649 289 q 426 -36 500 36 q 349 -101 385 -78 q 269 -131 303 -131 q 243 -122 253 -129 q 236 -112 239 -118 q 231 -97 233 -106 q 229 -57 226 -79 q 231 -44 229 -56 q 231 -40 231 -44 q 232 -33 232 -36 q 238 -10 236 -17 q 274 79 247 32 q 328 163 296 122 q 360 201 342 181 l 376 221 q 394 240 390 236 q 429 276 428 275 l 447 294 q 458 303 451 297 q 467 311 465 310 q 626 433 542 379 q 635 438 631 436 q 638 460 636 450 q 614 444 625 451 q 444 308 524 383 q 435 297 442 304 q 426 289 428 290 q 417 281 425 288 q 407 269 410 274 l 389 250 l 379 239 m 349 174 q 303 78 353 168 q 281 35 293 61 q 265 -8 272 14 q 257 -51 258 -35 q 256 -61 256 -56 q 256 -71 256 -65 q 257 -86 256 -79 q 260 -97 258 -93 q 261 -100 260 -99 q 263 -101 261 -101 l 263 -103 q 267 -103 264 -103 q 294 -97 279 -104 q 332 -79 313 -92 q 369 -51 349 -69 q 388 -36 381 -43 l 406 -18 l 415 -10 q 424 0 421 -4 l 440 18 q 474 57 444 22 q 578 233 538 139 q 633 429 618 328 q 618 418 625 422 q 349 174 464 317 m 697 240 l 700 250 q 690 221 699 243 q 684 207 688 217 q 679 193 681 197 q 550 -21 631 78 q 550 -26 553 -21 q 638 106 596 28 l 656 140 l 672 176 q 688 213 676 183 l 694 231 q 696 235 694 232 q 697 240 697 238 m 694 354 q 714 506 711 426 q 713 504 714 504 q 711 503 713 504 q 688 332 708 418 q 599 108 658 214 q 451 -81 538 3 q 407 -121 432 -100 q 356 -156 379 -142 q 299 -178 325 -172 q 265 -181 282 -182 q 233 -175 249 -181 q 203 -154 217 -168 q 185 -125 192 -142 q 176 -60 174 -97 q 179 -28 176 -53 q 185 4 183 -6 q 204 64 193 36 q 232 121 217 93 q 265 174 247 147 q 301 225 281 197 l 311 236 l 322 249 l 342 272 q 236 132 275 197 q 175 -35 186 46 q 172 -82 171 -60 q 183 -129 174 -108 q 196 -151 189 -143 q 215 -169 206 -162 q 265 -185 238 -185 q 314 -178 289 -185 q 357 -158 338 -169 q 432 -104 393 -139 q 639 185 568 19 q 694 354 675 267 z "},"H":{"ha":829,"x_min":-33,"x_max":847,"o":"m 836 569 q 846 557 846 564 q 840 547 846 551 q 835 544 838 546 q 829 543 832 543 q 815 544 821 542 q 747 550 793 551 q 747 542 747 547 q 747 536 747 538 q 754 536 751 536 q 776 533 767 535 q 778 528 783 532 q 774 526 776 525 q 753 528 764 528 l 747 528 q 744 456 746 514 q 742 368 743 399 q 736 107 738 218 q 731 103 736 97 q 726 113 726 106 q 726 128 726 119 q 726 147 726 138 q 726 163 726 156 q 726 151 726 157 q 724 138 725 144 q 723 127 724 132 q 719 124 722 122 q 719 101 719 117 q 719 78 719 86 q 721 32 721 38 q 715 29 721 22 l 713 36 q 710 210 713 106 q 704 88 704 126 q 700 81 703 81 q 694 86 697 81 q 696 45 696 60 q 696 4 696 31 q 690 0 696 -6 q 688 6 688 3 q 681 49 685 22 q 681 -31 681 -17 q 669 -51 681 -53 q 650 -25 656 -51 q 649 -17 649 -21 q 647 408 640 131 q 647 442 647 425 q 629 35 635 139 q 624 31 629 25 q 622 38 622 33 q 625 129 625 115 q 615 138 621 129 q 610 156 610 146 q 618 365 611 236 q 626 508 626 500 q 363 460 482 494 q 349 -35 346 186 q 347 -43 349 -42 q 340 -37 343 -46 l 339 -29 q 339 -10 339 -21 q 339 13 339 1 q 339 33 339 25 q 336 -10 338 19 q 334 -15 335 -14 q 332 -15 333 -15 q 333 -70 332 -31 q 336 -131 335 -110 q 335 -136 336 -135 q 329 -132 332 -139 q 328 -126 328 -129 q 324 -15 326 -69 q 323 35 324 -3 q 321 94 322 74 q 319 56 321 82 l 318 17 q 318 5 318 14 q 317 -10 318 -4 q 317 -22 317 -15 q 317 -41 317 -28 q 317 -61 317 -54 q 314 -69 317 -69 q 308 -62 311 -68 q 310 -89 308 -69 q 310 -101 310 -92 q 311 -114 311 -110 q 313 -165 311 -131 q 307 -171 313 -178 l 304 -164 q 296 -110 300 -142 q 297 -160 297 -153 q 299 -210 299 -185 q 289 -236 300 -237 q 267 -200 274 -233 q 265 -192 267 -196 q 260 346 249 33 q 260 367 260 353 q 261 389 261 382 q 250 129 254 260 q 244 -128 247 13 q 243 -133 244 -132 q 238 -128 240 -136 q 238 -124 238 -126 l 238 -94 l 238 -65 q 238 -36 238 -57 q 238 -7 238 -15 q 228 4 233 -7 q 222 26 222 15 q 239 415 221 179 q 58 326 158 379 q 40 321 47 319 q 31 328 32 322 q 33 340 31 333 q 38 346 33 343 l 42 349 q 47 353 44 351 q 83 376 71 368 q 121 400 119 399 q -10 335 51 367 q -33 340 -33 322 q -15 367 -33 356 q 32 393 3 378 q 22 407 17 392 q 39 426 28 418 q 83 453 58 439 q 85 472 78 460 q 110 492 93 485 q 174 517 122 497 q 178 519 175 518 q 249 547 211 533 q 249 551 249 549 q 249 556 249 554 q 276 874 257 724 q 292 903 281 903 q 303 890 299 903 q 306 882 306 888 l 304 875 q 304 867 304 871 q 301 811 304 865 q 300 754 300 775 q 310 839 301 764 q 324 922 313 853 l 328 921 q 328 922 328 921 q 329 924 329 922 l 354 917 q 353 914 354 915 l 358 913 q 355 904 357 910 q 353 896 353 899 q 350 892 351 893 q 348 872 350 885 q 346 854 346 860 q 364 853 356 874 q 368 825 369 842 q 365 763 368 806 q 380 747 374 764 q 383 710 386 731 q 372 626 376 658 q 372 621 372 624 q 372 603 372 615 q 369 589 371 592 q 436 606 403 597 q 503 619 483 615 q 536 625 533 625 l 569 629 q 604 633 583 632 q 631 636 614 635 q 638 826 632 740 q 643 845 639 839 q 653 849 647 851 q 663 840 660 847 q 665 833 665 839 l 665 828 q 667 821 667 825 q 668 776 667 806 l 669 732 q 675 807 674 788 l 678 843 l 682 879 q 694 899 685 899 q 711 876 708 897 q 711 867 713 871 q 708 813 710 831 q 726 813 717 828 q 733 790 732 803 q 735 740 735 763 q 745 735 740 740 q 753 720 750 731 q 756 699 757 710 q 750 633 751 654 q 750 628 750 631 q 750 626 750 628 q 750 625 750 625 q 785 624 768 625 q 788 618 794 622 q 781 617 785 615 q 750 617 767 617 q 749 608 750 614 q 749 600 749 603 q 810 594 785 601 q 814 589 819 593 q 807 588 811 588 q 765 585 789 588 q 836 569 811 583 m 699 538 q 699 547 699 544 l 692 547 q 692 542 692 546 q 692 538 692 539 q 699 538 692 538 m 700 624 q 700 629 700 625 q 699 629 700 629 q 697 629 697 629 q 696 625 696 628 l 696 622 q 700 624 697 622 m 694 597 q 697 597 696 597 q 697 597 697 597 q 696 597 697 597 q 694 597 694 597 m 696 608 q 697 608 696 608 q 700 608 699 608 q 700 612 700 610 q 700 615 700 614 q 696 615 696 615 q 696 608 696 608 m 701 660 l 701 700 q 697 639 699 669 q 699 639 697 639 q 700 639 700 639 q 701 660 701 649 m 631 610 q 601 606 626 608 q 631 607 625 607 q 631 610 631 608 m 463 597 q 428 589 433 590 q 435 590 431 589 q 440 592 440 590 l 468 596 l 482 599 l 497 601 q 497 604 496 603 q 463 597 483 603 m 328 714 q 314 571 321 640 q 317 572 315 572 q 319 574 319 572 q 322 611 321 600 q 328 714 324 644 m 315 513 q 317 517 317 514 q 317 521 317 519 q 314 520 317 521 q 310 518 311 519 q 310 515 310 517 q 310 511 310 513 q 313 512 311 511 q 315 513 315 513 m 133 442 q 244 488 186 467 l 244 493 q 207 478 225 486 q 171 461 193 472 q 133 442 142 447 m 339 264 q 340 288 339 272 q 340 308 340 303 q 339 299 339 304 q 339 292 339 293 q 337 269 338 281 q 335 244 336 257 q 335 222 335 231 q 339 221 336 222 l 339 264 m 310 388 q 313 444 311 418 q 304 442 306 442 l 303 413 q 306 399 306 407 q 303 267 306 361 q 301 121 300 172 q 303 49 301 69 q 307 -25 304 7 q 310 388 303 243 m 367 532 q 368 533 368 533 q 583 582 443 560 q 631 589 590 583 q 631 591 631 590 q 631 592 631 592 q 535 578 583 588 q 375 539 465 565 q 371 538 374 539 q 367 536 368 538 q 367 535 367 536 q 367 532 367 533 m 585 532 q 628 535 599 533 q 628 538 628 536 q 628 542 628 540 l 624 540 q 422 503 519 529 q 390 493 400 497 q 585 532 489 521 m 696 442 q 699 529 696 453 q 692 529 694 529 q 689 485 690 501 l 689 461 q 692 451 692 457 q 692 337 693 411 q 690 231 690 263 q 693 115 690 207 q 694 197 694 146 q 694 279 694 249 q 696 442 694 369 m 728 311 l 728 379 q 726 367 726 367 l 724 311 q 728 311 725 311 z "},"I":{"ha":428,"x_min":22,"x_max":674,"o":"m 43 -236 q 26 -226 31 -243 q 32 -207 24 -212 q 57 -192 44 -199 q 49 -180 50 -190 q 56 -162 47 -169 q 78 -146 63 -156 q 75 -128 72 -139 q 86 -114 78 -118 q 122 -101 107 -106 q 124 -100 122 -100 q 185 -74 153 -85 q 203 196 189 42 q 218 362 208 254 q 231 500 228 469 q 264 851 244 689 q 261 850 264 851 q 257 847 258 849 q 103 749 178 804 q 85 746 90 739 q 81 753 82 749 q 79 761 78 757 q 82 767 79 764 l 85 769 q 88 772 86 771 q 113 796 103 786 q 138 818 129 810 q 114 803 126 811 q 104 796 113 801 q 92 788 96 790 l 68 772 q 53 757 57 764 q 47 749 50 750 q 39 751 43 747 q 29 764 32 757 q 33 781 28 774 q 50 797 39 789 l 67 810 q 58 815 61 810 q 56 827 54 819 q 65 842 58 835 q 96 867 81 856 q 94 885 90 872 q 111 904 99 897 q 160 929 143 921 q 163 931 161 931 q 208 956 175 939 q 257 978 243 972 q 356 1015 301 997 q 558 1063 450 1046 q 564 1058 564 1063 q 557 1051 564 1053 q 518 1044 528 1047 q 533 1047 524 1046 q 546 1047 543 1047 q 548 1046 547 1047 q 549 1043 549 1044 q 626 1051 597 1053 q 629 1046 635 1051 q 622 1044 626 1044 q 551 1036 596 1044 q 485 1021 519 1031 q 532 1028 489 1022 q 581 1033 554 1029 q 586 1030 586 1033 q 583 1024 586 1026 q 647 1024 621 1031 q 650 1018 654 1022 q 644 1017 647 1017 q 613 1013 631 1015 q 665 1001 646 1014 q 672 990 674 996 q 667 981 672 986 q 657 975 663 978 q 649 974 651 972 q 630 977 640 976 q 601 976 619 978 q 575 972 583 974 q 541 965 567 971 q 513 960 515 960 q 360 915 429 940 q 344 910 353 913 q 483 947 414 933 q 558 960 522 956 q 594 963 588 963 q 625 961 613 964 q 627 957 628 961 q 624 954 626 953 q 564 951 606 957 q 560 940 565 946 q 549 932 556 933 q 400 900 458 915 q 340 882 369 892 q 336 846 338 865 q 353 847 344 867 q 358 814 360 835 q 353 739 356 765 q 358 738 356 740 q 363 733 361 736 q 367 724 365 729 q 369 679 374 704 q 364 635 368 668 q 357 582 360 601 q 357 576 357 579 q 326 193 338 363 q 314 -37 319 81 q 406 -25 358 -29 q 410 -31 411 -25 l 404 -35 q 376 -39 394 -36 q 388 -39 381 -39 q 397 -39 394 -39 q 400 -43 400 -39 q 450 -37 431 -37 q 451 -43 454 -37 q 449 -44 451 -44 q 354 -58 406 -47 q 389 -58 367 -58 q 422 -56 411 -57 q 426 -59 426 -56 q 425 -65 426 -62 q 468 -61 446 -61 q 472 -65 472 -61 q 468 -69 471 -68 q 447 -76 458 -74 q 468 -76 458 -76 q 489 -76 479 -76 q 500 -94 506 -76 q 486 -108 496 -107 q 310 -136 376 -119 l 310 -137 q 463 -126 388 -122 q 465 -132 467 -128 q 463 -135 464 -135 q 415 -135 443 -133 q 413 -146 417 -140 q 406 -151 410 -151 q 308 -165 340 -160 q 308 -173 308 -168 q 307 -182 307 -178 q 307 -189 307 -186 q 306 -197 307 -196 q 299 -193 301 -201 q 297 -182 297 -187 q 297 -178 297 -181 q 298 -172 297 -175 q 299 -167 299 -169 q 292 -168 294 -168 q 289 -299 290 -246 q 288 -306 289 -304 q 283 -301 285 -308 q 282 -293 282 -297 q 283 -169 282 -233 q 276 -172 278 -171 q 274 -217 275 -189 q 270 -226 274 -226 q 265 -218 267 -225 q 265 -278 265 -251 q 264 -337 265 -292 q 258 -343 264 -351 l 256 -335 q 250 -272 253 -312 q 249 -324 250 -283 q 249 -387 249 -365 q 236 -418 247 -418 q 217 -378 222 -415 l 215 -364 q 215 -189 214 -282 q 204 -193 210 -192 q 199 -289 201 -247 q 193 -293 197 -301 q 192 -283 190 -289 q 196 -197 192 -269 q 88 -257 147 -221 q 73 -255 79 -261 q 68 -239 67 -249 q 69 -235 68 -236 l 72 -233 q 75 -231 74 -232 q 111 -200 94 -214 q 97 -208 110 -201 q 76 -218 83 -214 q 43 -236 69 -222 m 208 -125 q 212 -123 208 -124 q 217 -121 215 -122 q 217 -117 217 -119 q 217 -114 217 -114 q 208 -117 217 -114 q 208 -121 208 -118 q 208 -125 208 -124 m 265 -149 l 265 -147 q 265 -149 265 -147 l 265 -149 m 265 -100 q 266 -100 265 -100 q 268 -100 267 -100 q 268 -97 268 -99 q 265 -97 267 -97 q 265 -100 265 -100 m 282 -93 q 281 -94 282 -93 q 281 -96 281 -96 q 285 -94 282 -96 q 285 -92 285 -93 q 283 -92 285 -92 q 282 -93 282 -93 m 285 -60 q 285 -58 285 -60 q 286 -57 286 -57 q 285 -57 285 -57 q 283 -60 285 -58 l 285 -60 m 268 -62 q 267 -62 268 -62 q 265 -62 267 -62 l 265 -64 l 267 -62 l 268 -62 m 278 -146 q 283 -143 281 -144 q 283 -143 283 -143 q 281 -144 283 -143 q 278 -144 279 -144 q 278 -146 278 -144 m 299 -140 q 299 -139 299 -139 q 297 -139 297 -139 q 297 -140 297 -139 q 299 -140 299 -140 m 408 -67 q 311 -85 364 -72 q 311 -87 311 -86 q 311 -89 311 -87 q 328 -85 315 -87 q 349 -81 342 -82 q 408 -67 396 -69 m 285 -43 l 286 -43 q 286 -40 286 -42 q 286 -37 286 -37 q 285 -40 286 -37 q 285 -43 285 -43 m 304 111 q 308 110 307 111 q 310 142 308 124 q 312 178 311 161 q 313 211 313 196 q 313 205 313 208 q 312 198 313 201 q 311 192 311 194 q 308 150 310 176 q 304 111 306 124 m 306 564 q 315 683 311 626 q 283 368 294 507 l 281 333 q 283 317 283 326 q 274 160 281 268 q 267 -6 268 51 q 265 -49 267 -25 q 267 -47 267 -47 q 269 -47 268 -47 q 272 65 271 18 q 278 185 274 71 q 280 204 279 193 q 281 226 281 215 q 282 244 282 236 q 286 304 283 281 q 306 564 292 382 m 560 1019 q 343 960 461 1004 q 343 958 343 960 q 474 997 382 974 q 560 1019 532 1013 m 404 1017 q 351 999 386 1011 l 361 1001 q 404 1013 385 1008 q 404 1017 403 1014 m 140 858 q 290 932 207 897 q 307 939 299 935 q 313 944 308 942 q 317 946 314 944 l 318 947 q 319 951 319 949 q 318 951 319 951 q 193 892 253 925 q 167 875 178 882 l 140 858 m 306 869 q 294 864 300 867 q 294 860 294 863 q 290 794 293 833 q 288 731 290 778 q 301 838 297 813 l 306 869 m 238 307 q 211 -64 224 135 q 218 -61 213 -64 q 235 257 222 81 q 238 307 236 281 m 129 -153 l 111 -164 q 186 -132 144 -147 q 185 -126 185 -129 q 149 -142 165 -135 q 129 -153 140 -146 z "},"J":{"ha":700,"x_min":-1,"x_max":713,"o":"m 25 546 q 3 550 7 531 q 10 575 -1 564 q 18 583 13 578 q 26 590 24 589 q 43 606 28 592 q 29 617 31 601 q 39 636 31 628 q 68 667 47 647 q 65 685 63 672 q 71 697 67 692 q 81 707 75 703 q 129 738 111 728 q 132 740 131 739 q 329 850 224 806 q 544 914 432 892 q 550 911 550 915 q 543 904 547 906 q 501 894 529 901 q 531 899 515 896 q 534 897 533 899 q 535 894 535 896 l 572 903 q 610 910 583 906 q 614 908 614 910 q 608 901 614 904 q 467 868 542 892 q 517 878 476 869 q 544 882 526 879 q 568 886 561 885 q 574 883 574 886 q 571 878 575 881 q 604 883 585 881 q 638 889 628 888 q 642 885 642 889 q 638 881 642 882 q 604 869 617 874 q 636 874 621 872 q 667 876 651 875 q 685 864 688 878 q 661 843 681 849 q 417 781 524 821 q 417 779 417 781 q 417 778 417 778 q 468 793 443 786 q 625 821 543 814 q 629 817 629 821 q 624 813 626 814 q 589 808 601 811 q 553 803 563 806 q 552 796 554 800 q 547 788 550 792 q 538 783 543 785 q 422 751 472 767 q 433 654 429 704 q 447 668 436 685 q 463 606 458 649 q 468 478 468 544 q 479 467 474 482 q 486 378 490 433 q 486 374 486 376 q 486 369 486 371 q 510 384 499 378 q 521 388 521 390 q 506 372 522 382 q 485 360 497 368 q 483 339 483 343 q 487 341 483 339 q 492 344 490 343 q 579 394 535 372 q 592 397 592 400 q 578 383 592 393 q 490 326 536 358 q 532 351 499 331 q 574 375 564 369 q 615 396 581 378 q 660 415 651 411 q 686 425 675 422 q 701 428 696 428 q 706 417 713 426 q 638 369 693 397 q 476 274 553 328 q 474 256 474 256 q 539 296 507 278 q 550 299 549 301 q 536 285 553 294 q 472 244 504 265 q 468 210 471 224 q 468 197 468 203 q 443 32 457 103 q 394 -136 424 -64 q 301 -296 358 -229 q 285 -314 292 -307 q 268 -331 268 -331 l 258 -339 l 257 -340 l 256 -343 l 251 -346 q 243 -351 249 -349 q 210 -372 226 -365 q 138 -385 174 -389 q 103 -375 117 -382 q 74 -354 88 -368 q 51 -325 61 -342 q 43 -307 46 -315 q 36 -289 38 -293 q 35 -284 36 -287 q 35 -279 35 -281 l 32 -269 q 31 -260 31 -262 l 29 -251 q 28 -225 28 -236 q 42 -126 26 -179 q 114 38 64 -44 q 221 174 157 107 q 344 288 282 238 q 357 296 353 294 q 363 368 360 335 q 361 665 372 536 q 358 703 358 686 q 363 722 360 717 q 381 707 369 733 q 386 692 383 703 l 388 679 q 389 664 389 668 q 399 557 396 611 q 403 450 403 496 q 401 629 407 546 q 392 740 399 688 q 388 740 392 740 q 383 738 385 739 q 238 668 301 708 q 85 547 160 617 q 65 542 74 536 q 60 557 57 546 q 61 563 58 560 l 64 565 q 67 569 65 568 q 78 582 69 572 q 90 596 86 592 l 115 622 q 69 585 75 590 l 47 565 l 25 546 m 340 272 q 246 185 292 232 q 313 244 282 218 q 321 247 321 250 q 356 275 336 260 q 356 281 356 278 q 356 289 356 286 q 340 272 351 281 m 328 242 q 176 79 236 160 q 282 193 221 135 q 353 254 315 224 q 353 260 353 256 q 354 265 354 264 q 328 242 339 253 m 153 -234 q 153 -235 153 -234 q 153 -237 153 -236 q 153 -237 153 -237 l 153 -239 q 153 -242 153 -240 q 154 -247 153 -244 q 167 -254 158 -256 q 172 -251 169 -253 q 183 -243 176 -249 q 253 -156 222 -207 q 331 69 303 -68 q 336 111 333 88 q 332 106 333 107 q 193 -81 239 11 q 182 -106 192 -83 q 171 -131 172 -129 q 157 -183 161 -160 q 153 -231 151 -210 q 153 -234 153 -232 m 342 151 q 343 159 343 154 q 344 165 343 164 q 332 154 332 154 q 247 63 285 107 q 133 -153 161 -46 q 124 -210 125 -185 q 124 -237 122 -225 l 125 -243 l 125 -249 q 128 -258 126 -253 q 136 -275 131 -268 q 143 -282 139 -279 q 153 -285 149 -283 q 172 -282 161 -286 q 189 -272 181 -279 q 194 -268 190 -271 l 200 -262 q 214 -249 203 -261 q 228 -235 215 -247 q 233 -228 228 -233 q 240 -219 238 -222 q 200 -262 221 -243 l 194 -267 q 190 -269 194 -267 q 183 -275 186 -274 q 167 -283 175 -281 q 148 -282 156 -285 q 135 -269 140 -279 q 128 -253 131 -264 q 126 -244 128 -249 l 126 -240 q 125 -236 126 -239 l 125 -233 q 144 -124 122 -187 q 156 -96 146 -119 q 168 -69 167 -72 q 196 -19 179 -47 q 342 151 250 65 m 92 -351 q 122 -367 106 -362 q 110 -361 114 -364 q 99 -356 101 -358 q 78 -337 88 -347 q 53 -287 61 -318 q 51 -282 53 -287 q 49 -274 50 -276 q 47 -268 49 -274 q 46 -260 46 -262 l 44 -253 q 44 -247 44 -249 q 43 -236 43 -236 q 51 -156 42 -199 q 49 -153 49 -156 q 42 -203 43 -179 q 40 -229 40 -212 q 42 -242 42 -242 l 43 -249 l 43 -257 q 44 -261 44 -258 q 45 -266 44 -264 q 47 -271 46 -268 q 47 -275 47 -274 q 53 -293 51 -292 q 68 -325 58 -311 q 92 -351 78 -340 m 415 175 q 418 204 415 179 q 414 201 417 203 q 401 110 408 150 q 374 -22 390 38 q 329 -149 354 -93 q 300 -201 315 -179 q 297 -213 300 -206 q 289 -226 293 -221 q 244 -282 268 -257 q 232 -294 235 -292 l 226 -300 q 218 -307 224 -303 q 182 -329 200 -322 q 163 -335 172 -333 q 142 -335 151 -336 q 107 -317 121 -332 q 86 -281 93 -303 q 81 -261 83 -271 q 79 -250 79 -253 q 78 -240 78 -244 q 82 -168 75 -207 q 90 -135 86 -150 q 91 -130 90 -132 q 92 -126 92 -128 q 94 -122 93 -124 q 96 -117 94 -119 l 101 -101 q 128 -37 113 -69 q 163 22 143 -7 q 249 138 200 82 q 351 239 297 190 q 278 169 311 204 q 210 94 240 133 q 104 -83 138 6 q 94 -107 97 -99 q 93 -113 94 -108 q 90 -119 92 -118 l 88 -132 q 76 -185 81 -158 q 75 -239 72 -214 q 81 -269 76 -254 q 92 -299 85 -286 q 111 -324 100 -314 q 124 -332 117 -329 l 126 -333 l 131 -335 q 138 -336 132 -335 q 168 -336 151 -339 q 197 -324 183 -332 q 224 -306 211 -317 q 230 -301 226 -304 q 235 -296 233 -297 q 244 -287 239 -293 q 278 -247 261 -271 q 375 -44 340 -167 q 415 175 401 47 m 415 213 q 417 214 415 213 q 419 217 419 215 q 421 232 421 229 q 419 231 421 232 q 418 229 418 229 q 415 213 417 217 m 426 300 q 427 306 426 301 q 428 315 428 311 q 428 322 428 318 q 426 321 428 322 q 425 299 425 308 q 426 300 426 299 m 429 332 q 431 375 431 358 q 428 331 429 357 q 429 332 428 331 m 388 767 q 388 769 388 768 q 388 769 388 769 q 340 749 363 760 q 335 747 340 749 q 329 743 331 744 l 317 738 q 388 767 351 754 m 547 871 q 418 833 481 857 q 403 828 411 831 q 404 825 403 828 q 457 843 424 832 q 547 871 511 861 m 354 844 q 326 832 336 838 l 338 836 l 376 850 q 378 854 376 853 l 354 844 m 140 685 l 115 664 q 265 757 183 714 q 271 760 268 758 q 277 763 274 761 q 283 767 281 765 q 289 774 285 771 q 379 815 326 794 q 378 817 379 815 q 378 818 378 818 q 367 813 375 817 q 356 808 360 810 q 345 804 350 807 q 334 799 340 801 q 325 794 328 796 l 310 788 q 301 783 306 786 q 294 781 296 781 q 168 706 232 750 q 140 685 156 696 z "},"K":{"ha":600,"x_min":47,"x_max":572,"o":"m 64 156 q 53 165 58 156 q 49 183 49 174 q 58 383 50 240 q 65 604 65 526 q 61 858 61 776 q 65 878 61 871 q 75 883 69 885 q 85 875 81 882 q 89 868 88 872 l 89 863 q 90 856 90 858 q 92 833 90 846 q 94 810 93 821 q 97 788 96 800 q 99 765 97 776 q 101 915 99 853 q 114 935 103 936 q 132 911 128 935 q 132 904 132 908 q 132 877 132 896 q 132 850 132 858 q 151 850 139 867 q 158 828 157 842 q 163 776 161 803 q 179 767 171 779 q 186 736 188 754 q 183 668 186 722 q 183 664 183 667 q 183 476 185 576 q 257 576 213 519 q 354 704 296 631 q 454 828 406 769 q 486 842 479 856 q 486 828 489 836 q 483 819 488 824 l 481 814 q 475 807 478 810 q 410 715 446 767 q 533 856 472 790 q 561 863 557 882 q 547 826 563 846 q 503 774 536 813 q 518 767 518 783 q 506 738 517 753 q 468 685 492 715 q 472 665 476 683 q 454 632 468 647 q 400 568 426 599 q 396 564 397 565 q 219 299 269 399 q 210 272 213 283 l 208 272 l 208 271 q 207 268 208 269 q 208 264 207 267 q 210 264 210 264 q 213 263 211 263 q 226 256 219 258 q 375 226 289 233 q 381 219 386 225 q 368 217 376 217 q 308 224 332 219 q 329 219 321 221 q 349 215 342 217 q 353 211 356 214 q 467 207 393 207 q 472 206 471 207 q 467 200 475 203 l 463 200 q 353 203 399 200 q 249 219 293 208 q 396 192 318 197 q 404 188 404 192 q 397 183 404 185 q 501 182 408 183 q 506 176 513 182 q 499 174 503 175 q 444 168 469 169 q 544 168 472 168 q 571 157 572 168 q 535 136 569 142 q 526 135 531 136 q 389 133 446 131 q 249 151 311 136 q 232 156 240 153 q 224 158 231 156 q 214 161 218 160 q 179 172 185 171 q 175 175 178 174 q 175 172 175 174 q 175 169 175 171 l 176 169 q 194 163 186 165 q 260 142 226 150 q 328 129 299 133 q 460 117 381 121 q 464 111 472 115 q 456 108 461 108 q 333 118 385 113 q 321 110 333 114 q 308 107 315 108 q 294 108 301 107 q 258 115 288 108 q 224 124 229 122 q 188 135 210 128 q 174 140 182 138 q 174 135 174 139 q 174 131 174 132 q 168 126 174 121 q 164 136 164 129 q 164 140 164 138 q 164 144 164 143 q 158 147 161 146 q 156 54 157 89 q 150 51 156 44 q 149 58 149 54 q 150 151 150 101 q 143 156 147 153 q 140 111 142 129 q 137 105 140 104 q 132 110 133 106 q 131 28 132 61 q 125 24 129 18 q 122 29 122 25 q 117 72 119 47 q 114 -7 115 31 q 103 -28 113 -29 q 83 -3 89 -28 l 82 8 q 83 242 81 96 q 82 254 83 249 q 83 283 82 267 q 85 284 85 283 q 85 286 85 285 q 86 438 86 386 q 88 471 86 451 q 65 60 82 244 q 60 57 64 51 q 58 64 57 60 q 64 156 63 117 m 131 207 q 131 204 131 206 q 131 201 131 203 q 133 199 132 200 l 133 204 q 131 207 132 206 m 168 406 l 168 404 l 168 406 m 135 342 q 135 344 135 343 q 131 339 132 340 q 131 335 131 336 q 135 342 133 339 m 132 140 q 132 163 132 140 l 132 164 q 132 140 132 150 m 146 188 q 150 183 147 186 q 150 186 150 185 q 150 189 150 188 q 146 192 150 189 q 146 189 146 190 q 146 188 146 188 m 165 175 q 165 179 165 175 q 165 178 165 179 q 164 175 164 176 q 165 175 164 175 m 211 214 q 200 218 207 215 q 190 222 193 221 q 178 231 182 226 q 178 226 178 228 q 188 219 182 222 q 218 208 199 214 q 360 185 276 189 q 260 200 306 189 q 211 214 239 206 m 208 308 l 213 317 q 206 303 213 315 q 194 279 199 289 q 193 275 194 276 l 192 272 q 192 267 192 269 q 194 267 193 267 q 196 272 194 269 l 196 274 l 196 275 l 196 276 q 199 283 197 281 q 204 299 200 290 q 208 308 206 301 m 182 336 l 181 332 q 181 329 181 331 q 181 326 181 328 q 221 400 199 364 q 349 582 264 472 q 411 665 385 631 q 243 450 289 518 q 226 425 229 428 q 222 411 226 418 q 190 351 204 379 l 182 336 m 128 517 l 128 492 q 131 481 131 488 q 132 394 133 444 q 133 397 132 396 q 135 399 133 399 q 135 472 135 444 q 135 653 136 569 q 132 735 135 674 q 128 517 128 529 z "},"L":{"ha":197,"x_min":-32,"x_max":547,"o":"m 411 -222 q 419 -222 419 -218 q 407 -232 417 -226 q 251 -301 331 -265 q 248 -311 253 -304 q 233 -326 243 -318 q 213 -337 224 -333 q 191 -348 207 -340 q 167 -360 175 -356 q 122 -378 139 -374 q 79 -382 100 -385 q 38 -369 57 -381 q 6 -342 19 -360 q -15 -303 -7 -325 q -26 -258 -22 -283 l -28 -250 l -29 -242 q -29 -228 -29 -235 q -31 -199 -31 -214 q -28 -147 -31 -178 q -18 -49 -19 -53 q 28 343 -17 -32 q 71 811 61 672 q 88 857 74 858 q 97 840 93 856 q 100 828 100 838 l 100 818 q 100 806 100 813 q 93 639 97 708 q 118 917 110 794 q 131 953 121 953 q 147 914 144 954 q 147 896 149 906 q 144 844 147 892 q 142 793 143 811 q 158 797 149 819 q 164 751 165 782 q 160 656 164 707 q 171 644 165 658 q 175 578 181 619 q 158 451 169 528 q 158 442 158 446 q 141 287 153 390 q 120 102 129 183 q 106 -53 111 21 l 103 -83 l 100 -114 l 99 -146 q 96 -175 97 -158 q 97 -228 94 -207 q 97 -233 97 -229 q 97 -235 97 -235 l 97 -236 q 97 -237 97 -236 q 99 -242 97 -240 q 101 -246 100 -244 q 106 -246 103 -247 q 111 -246 107 -246 l 111 -244 l 113 -244 l 124 -240 l 138 -233 q 250 -181 149 -228 q 261 -179 263 -175 q 244 -193 260 -186 q 199 -215 229 -201 q 158 -235 169 -229 q 219 -208 179 -225 q 226 -210 226 -207 q 385 -135 326 -161 q 394 -133 394 -129 q 382 -144 392 -139 q 232 -215 310 -178 q 157 -253 185 -239 l 121 -269 q 100 -278 106 -278 q 115 -274 106 -278 l 124 -271 l 125 -271 l 129 -269 l 135 -265 l 189 -243 q 296 -194 253 -214 q 308 -192 307 -189 q 300 -201 308 -196 q 440 -136 378 -164 q 450 -133 450 -132 q 440 -144 450 -139 q 369 -185 410 -162 q 506 -122 439 -153 q 544 -119 546 -104 q 500 -160 543 -136 q 492 -165 496 -162 q 311 -253 390 -214 l 222 -296 l 178 -318 l 156 -328 q 121 -343 131 -340 q 88 -350 103 -350 q 54 -342 69 -350 q 13 -286 26 -325 q 4 -251 7 -271 q 1 -224 1 -239 q 1 -171 0 -201 q 4 -119 1 -161 q 5 -104 4 -114 q 6 -86 6 -94 q 7 -69 7 -78 q 17 31 14 3 q 22 94 18 57 q 3 -99 11 -1 q -3 -197 -3 -185 q 0 -251 -3 -228 q 8 -286 3 -271 q 22 -318 14 -304 q 47 -343 33 -333 q 79 -356 61 -353 q 149 -339 108 -358 l 157 -335 l 163 -332 l 174 -328 l 196 -318 q 239 -299 231 -301 q 411 -222 326 -258 m 51 -100 q 46 -203 46 -187 q 47 -228 46 -215 q 49 -240 47 -235 q 50 -251 50 -246 q 67 -290 56 -278 q 86 -301 75 -300 q 108 -299 96 -303 q 129 -289 114 -296 l 153 -276 q 204 -250 171 -267 q 250 -226 238 -233 q 181 -260 221 -242 q 146 -276 163 -268 l 129 -285 q 115 -292 117 -290 q 86 -297 97 -299 q 64 -278 72 -294 q 54 -250 58 -268 q 53 -243 53 -247 q 51 -233 51 -235 q 50 -215 51 -226 q 51 -140 49 -189 q 53 -106 51 -135 q 57 -62 56 -78 q 58 -44 57 -60 q 60 -23 60 -29 q 61 -6 60 -17 q 63 14 63 6 q 67 53 63 18 q 69 90 68 72 q 81 197 75 139 q 94 319 88 256 q 107 425 101 382 q 121 579 114 490 q 96 378 113 514 q 71 174 79 243 l 67 128 q 68 108 68 119 q 51 -100 61 25 m 93 -29 q 90 -54 92 -43 q 81 -157 89 -65 q 85 -160 82 -157 l 88 -94 q 90 -60 89 -82 q 93 -29 92 -37 z "},"M":{"ha":758,"x_min":47,"x_max":710,"o":"m 69 15 q 58 24 64 15 q 51 44 53 33 q 50 274 47 142 q 52 383 50 306 q 56 504 54 461 q 50 776 51 747 q 64 804 50 806 q 75 794 69 803 q 78 788 78 793 l 78 782 q 79 775 79 779 q 83 743 81 765 q 86 708 85 721 q 89 704 88 707 q 89 767 89 740 q 89 769 89 768 q 88 772 89 771 q 90 804 82 800 q 90 820 90 807 q 90 840 90 833 q 101 861 90 863 q 121 836 117 861 q 121 829 121 832 q 122 769 122 803 q 140 769 129 788 q 149 746 147 760 q 153 693 151 722 q 157 690 154 692 q 175 661 171 688 q 178 654 176 657 q 201 576 188 624 q 213 574 206 581 q 228 553 221 568 q 240 522 236 539 q 267 421 254 461 q 269 414 268 417 q 304 328 288 358 q 314 310 310 317 q 317 306 314 310 l 319 301 l 319 301 l 321 301 l 321 301 q 322 303 321 301 q 324 306 322 303 q 335 321 329 311 q 346 343 336 324 q 357 365 354 357 q 379 410 368 386 q 461 601 400 454 q 503 704 476 638 q 540 794 531 771 q 549 801 546 807 q 547 785 551 796 q 517 710 539 765 q 540 760 519 717 q 546 764 544 767 q 586 864 571 828 q 592 963 589 915 q 604 1003 594 996 q 610 1003 607 1004 q 615 999 613 1003 q 618 989 617 994 q 621 976 621 985 l 621 968 q 619 957 621 963 q 619 942 619 950 q 619 927 619 935 q 619 913 619 919 q 619 898 619 906 q 619 883 619 890 l 619 882 q 623 890 621 885 q 625 897 625 896 l 628 932 q 633 994 632 976 q 644 1057 638 1031 q 657 1085 649 1078 q 668 1083 664 1090 q 671 1035 676 1071 q 663 949 667 1007 q 667 961 664 951 q 674 976 671 971 q 699 999 690 1015 q 694 940 708 979 q 690 928 693 936 q 686 918 688 921 q 686 910 686 914 q 686 868 686 890 q 686 865 686 867 q 686 864 686 864 q 685 849 692 863 q 685 825 685 826 q 695 818 690 826 q 703 793 700 810 q 704 758 706 776 q 701 706 704 744 q 696 647 697 668 q 696 639 697 643 q 689 201 689 397 q 697 -236 689 -42 q 696 -246 697 -244 q 689 -240 693 -249 q 688 -228 688 -235 q 683 -144 686 -210 q 683 -203 683 -165 q 679 -208 682 -208 q 682 -256 681 -226 q 685 -312 683 -286 q 688 -361 686 -339 q 686 -369 688 -368 q 682 -365 685 -371 l 679 -356 q 664 -64 668 -151 q 664 -167 664 -160 q 665 -218 664 -194 q 667 -269 665 -233 q 663 -280 667 -281 q 657 -271 660 -279 q 665 -407 665 -390 q 664 -415 665 -414 q 660 -411 663 -418 q 657 -404 658 -408 q 647 -333 653 -374 q 650 -397 647 -353 q 654 -465 653 -442 q 646 -499 656 -499 q 622 -458 632 -500 q 619 -440 621 -450 q 593 267 593 -143 q 593 324 593 286 q 596 -356 589 25 q 594 -362 597 -361 q 590 -360 593 -365 q 589 -350 589 -356 q 585 -197 586 -256 q 578 -191 582 -197 q 571 -174 574 -185 q 567 -153 568 -164 q 575 543 560 53 q 575 545 575 544 q 575 546 575 546 q 570 533 575 543 q 563 517 565 522 q 494 363 521 418 q 454 286 475 324 l 444 268 q 432 247 438 256 q 415 225 424 235 q 410 219 411 221 q 403 213 407 215 q 390 201 397 207 q 326 176 361 179 q 261 193 292 174 q 236 217 249 203 q 225 229 231 222 l 222 233 l 221 236 l 217 242 q 194 283 206 260 q 174 329 183 303 q 174 281 174 293 q 181 -3 175 129 q 179 -10 181 -8 q 172 -4 175 -12 l 171 1 q 170 15 171 7 q 169 28 169 22 q 169 42 169 35 q 168 56 168 50 q 168 44 168 53 q 167 30 168 36 q 167 18 167 24 q 166 14 167 15 q 164 14 165 13 q 167 -30 164 7 q 171 -86 169 -67 q 169 -92 171 -90 q 163 -83 165 -92 q 149 108 150 94 q 150 -26 149 19 q 147 -35 150 -35 q 142 -29 143 -35 q 147 -118 146 -85 q 146 -124 149 -122 q 140 -117 143 -124 q 131 -71 135 -93 q 136 -157 132 -110 q 125 -181 138 -182 q 103 -150 110 -179 q 103 -143 103 -147 q 76 322 81 42 q 76 340 76 328 q 76 360 76 353 q 79 -89 75 192 q 75 -93 81 -99 l 72 -86 q 71 -38 72 -72 q 69 15 69 -4 m 647 -125 q 654 -221 651 -175 q 644 51 647 -49 q 642 325 640 200 q 647 621 643 469 q 648 692 647 646 q 650 757 649 739 q 635 397 638 563 l 635 357 q 638 339 638 350 q 640 165 639 292 q 643 -29 640 39 q 647 -125 643 -37 m 674 106 q 676 104 675 107 q 676 142 676 122 q 675 183 675 161 q 675 221 675 206 q 675 209 675 217 q 675 199 675 201 q 674 106 674 126 m 576 618 q 578 636 576 631 q 575 632 576 635 q 572 625 574 628 q 510 468 533 526 q 439 311 471 375 q 426 288 431 296 q 411 263 418 272 q 433 300 418 272 q 451 336 444 321 q 488 411 468 368 q 553 563 494 428 q 576 618 563 585 m 585 840 q 503 631 547 746 q 582 811 561 761 q 583 813 582 813 q 585 840 583 822 m 428 488 q 385 388 404 431 q 390 397 386 390 q 394 406 393 403 q 431 485 411 442 q 428 488 429 485 m 228 382 q 188 504 207 443 q 211 422 200 458 q 238 340 226 369 q 256 303 246 319 q 265 285 260 294 q 271 276 269 276 q 276 268 274 269 q 301 244 288 251 q 335 244 317 238 q 360 261 349 249 q 361 267 360 264 q 367 274 364 269 q 386 310 374 286 q 406 349 394 324 q 443 428 425 388 q 510 592 474 499 q 574 764 521 622 q 478 521 551 706 q 428 400 447 444 q 400 342 414 369 q 385 314 393 326 q 369 286 376 296 q 361 274 365 279 q 353 264 357 268 q 331 251 343 256 q 307 250 318 247 q 286 265 296 254 q 279 275 283 268 q 269 289 275 282 q 254 318 261 301 q 228 382 242 343 m 128 129 q 139 4 131 90 q 125 361 125 247 q 125 410 125 365 q 125 476 125 454 q 124 478 125 478 q 124 479 124 479 q 121 490 122 483 q 118 499 119 496 q 117 408 118 443 l 117 382 q 121 371 121 378 q 124 251 122 332 q 128 129 125 171 m 157 219 q 161 218 160 219 l 158 293 q 158 279 158 285 l 157 219 m 122 632 q 121 635 121 633 q 121 614 121 631 q 122 608 122 611 q 122 632 122 622 z "},"N":{"ha":611,"x_min":32,"x_max":574,"o":"m 49 -112 q 38 -101 43 -112 q 33 -75 33 -89 q 42 109 36 4 q 52 317 47 214 q 60 501 57 421 q 63 850 60 717 q 76 883 64 883 q 88 872 83 883 q 92 863 90 869 l 92 856 q 92 846 92 850 q 97 724 92 839 q 99 760 97 735 q 100 792 96 783 q 106 928 103 868 q 118 956 107 956 q 136 925 132 954 q 136 914 136 919 q 135 878 136 904 q 135 838 135 851 q 151 840 140 857 q 160 808 158 828 q 163 738 161 772 q 172 732 167 739 q 181 711 178 725 q 185 682 185 697 q 179 594 182 647 q 189 560 185 579 q 203 497 194 538 q 215 443 213 457 q 236 424 222 450 q 258 358 249 399 q 293 207 276 272 q 297 197 296 201 q 344 53 318 125 q 372 -11 360 14 q 388 -39 379 -26 l 390 -44 q 392 -44 390 -44 l 392 -44 l 393 -43 l 394 -39 q 396 -32 394 -36 q 400 -15 399 -25 q 408 19 404 1 q 419 93 415 54 q 442 397 436 207 q 447 706 447 550 q 450 721 447 721 q 457 694 457 718 q 456 575 457 617 q 460 658 458 621 l 463 667 l 464 665 q 461 883 464 736 q 463 894 461 894 q 468 874 468 892 q 471 460 472 653 q 479 750 479 633 q 481 765 479 763 q 486 760 483 767 q 488 753 488 757 q 485 946 485 917 q 486 958 485 956 q 490 954 488 960 q 493 940 492 949 q 500 839 497 890 q 497 1025 500 929 q 507 1074 496 1078 q 529 1003 524 1067 q 531 988 531 996 q 539 488 542 747 q 531 236 536 329 q 499 -15 521 94 q 489 -57 494 -39 q 486 -67 488 -64 l 485 -72 l 483 -78 q 472 -103 478 -93 q 481 -85 476 -94 q 485 -75 482 -79 q 486 -67 485 -71 q 496 -36 492 -53 q 508 25 501 -12 q 525 147 518 86 q 540 390 535 239 q 551 865 550 621 q 554 876 551 876 q 560 857 560 876 q 557 642 558 740 q 568 621 563 642 q 574 578 574 600 q 565 331 572 456 q 543 82 560 188 q 533 19 539 50 q 519 -43 525 -21 q 510 -76 515 -61 l 508 -81 l 507 -86 q 503 -94 506 -89 q 501 -99 503 -97 q 490 -122 497 -111 q 463 -162 478 -147 q 425 -187 446 -181 q 381 -187 404 -194 q 340 -167 360 -182 q 331 -158 336 -164 q 327 -155 331 -158 q 322 -150 324 -151 q 306 -131 308 -135 q 290 -110 303 -126 q 289 -107 290 -108 l 288 -106 l 286 -101 q 282 -94 283 -99 q 228 26 256 -50 q 171 204 197 110 q 158 -150 167 89 q 154 -158 157 -160 q 149 -143 149 -157 q 149 -122 149 -135 q 150 -96 150 -108 q 150 -74 150 -83 q 146 -122 150 -82 q 142 -126 144 -126 q 139 -254 140 -208 q 138 -261 139 -260 q 133 -257 135 -264 l 132 -250 q 136 -6 135 -142 q 125 -176 126 -132 q 121 -185 124 -186 q 115 -178 118 -185 q 113 -292 115 -247 q 107 -296 113 -304 l 106 -289 q 100 -229 103 -265 q 96 -339 99 -287 q 85 -367 94 -367 q 65 -329 71 -365 q 65 -315 65 -322 q 76 272 65 -215 q 76 319 76 318 q 49 -244 65 0 q 43 -249 47 -257 q 42 -239 40 -244 q 49 -112 46 -160 m 446 224 q 431 64 440 133 q 435 94 432 76 q 450 221 444 150 q 446 224 449 221 m 257 157 q 206 342 228 250 q 272 94 235 211 q 315 -24 300 11 q 329 -51 322 -37 q 338 -64 332 -54 l 342 -71 l 343 -74 l 344 -76 q 360 -97 351 -87 q 379 -114 369 -108 q 400 -121 390 -122 q 419 -111 411 -121 q 428 -92 424 -100 q 439 -69 433 -81 l 440 -62 l 443 -57 q 447 -42 444 -49 q 460 21 453 -21 q 476 149 469 81 q 490 408 488 260 q 489 682 492 517 q 483 296 489 451 q 469 103 479 186 q 456 8 464 53 q 444 -37 450 -18 q 439 -58 442 -47 q 432 -75 436 -67 q 424 -92 428 -83 q 413 -106 417 -101 q 396 -111 406 -112 q 379 -104 388 -110 q 365 -92 372 -99 q 354 -78 361 -86 q 349 -69 353 -75 q 346 -65 349 -68 q 342 -58 343 -61 q 331 -37 336 -49 q 290 57 311 -1 q 274 107 276 96 l 265 132 l 257 157 m 129 558 q 125 581 126 575 q 125 546 125 557 q 129 525 125 539 q 129 558 129 547 m 156 135 l 157 232 q 156 213 156 225 q 151 136 154 186 q 156 135 153 136 m 125 319 q 126 378 126 346 q 119 408 124 392 q 119 395 119 406 q 119 379 119 385 l 118 347 q 121 332 121 340 q 119 166 122 274 q 115 25 117 58 q 115 -136 115 22 q 121 99 118 -56 q 125 319 124 253 z "},"O":{"ha":560,"x_min":26,"x_max":561,"o":"m 61 124 q 32 304 39 206 q 28 483 26 379 q 39 663 31 586 q 42 690 40 676 q 47 710 44 701 q 57 732 51 726 q 67 724 64 738 q 68 708 68 717 q 69 689 71 703 l 68 675 q 67 656 67 660 q 63 529 63 603 q 64 406 63 463 q 66 510 64 453 q 72 614 68 567 q 108 819 82 729 q 124 858 115 842 l 135 879 l 149 864 q 156 844 157 854 q 154 839 156 840 q 151 838 153 838 q 146 843 150 839 q 142 847 143 846 q 132 786 140 825 q 117 713 124 750 q 111 664 114 692 q 138 742 121 704 q 221 865 174 819 q 240 896 217 872 q 268 917 253 907 q 306 933 286 928 q 368 939 338 942 q 399 932 385 936 q 428 919 414 928 q 506 842 476 894 q 536 756 525 807 q 539 736 538 746 l 543 717 q 544 697 543 708 q 546 690 546 694 q 547 683 546 686 q 547 676 547 681 q 529 372 560 540 q 494 226 514 294 q 442 83 471 146 q 403 14 424 46 q 392 -3 401 11 q 381 -19 386 -12 q 350 -53 365 -39 q 308 -82 331 -71 q 253 -96 282 -96 q 196 -82 224 -96 q 154 -53 175 -72 q 135 -33 144 -43 q 119 -11 128 -22 q 93 32 106 8 q 61 124 75 72 m 439 301 q 454 376 449 343 q 467 453 461 417 q 474 529 471 492 q 474 605 475 567 q 469 681 474 643 q 456 754 464 725 q 422 822 443 797 q 361 857 396 854 q 326 853 344 858 q 292 838 308 849 q 239 782 264 818 q 275 822 257 807 q 319 850 296 842 q 368 854 344 858 q 411 829 392 849 q 456 736 442 800 q 471 624 467 681 q 456 399 476 522 q 433 288 447 343 q 403 179 419 228 q 353 69 381 117 q 346 57 350 63 q 342 51 346 56 q 338 44 339 46 l 329 32 q 321 19 325 25 q 282 -17 301 -6 q 238 -24 260 -29 q 196 3 217 -18 q 188 14 193 7 q 179 25 181 24 q 164 50 169 38 q 140 104 150 74 q 113 211 124 147 q 100 324 103 265 q 117 175 104 242 q 165 36 135 88 q 210 -17 186 1 q 238 -31 224 -28 q 268 -31 251 -35 q 296 -15 282 -26 q 321 8 308 -6 q 342 38 331 19 q 351 53 344 42 q 361 68 356 58 q 390 128 376 96 q 399 156 392 136 q 439 301 421 218 m 135 467 q 129 489 132 476 q 129 439 129 461 q 142 422 135 443 q 154 332 153 389 q 175 158 157 233 q 178 147 176 150 q 206 75 189 104 q 224 46 214 60 q 242 28 233 35 q 249 24 246 25 q 251 24 250 24 l 253 24 q 256 25 253 24 q 264 30 260 26 q 274 39 268 33 q 283 51 278 43 q 289 58 286 54 l 294 67 q 406 389 364 171 q 425 563 424 485 q 422 649 426 607 q 418 690 422 665 l 415 711 q 411 731 413 722 q 401 765 407 751 q 395 778 399 772 q 388 790 392 785 q 369 807 379 801 q 353 813 363 811 q 343 811 349 813 q 331 808 336 810 q 306 793 318 803 q 293 782 299 788 q 282 768 288 775 q 260 737 271 754 q 250 728 250 719 q 258 751 249 736 q 276 776 267 765 q 296 797 285 788 q 338 821 317 815 q 307 808 324 818 q 278 783 292 799 q 269 781 269 775 q 239 732 254 760 q 215 676 225 706 q 194 561 194 618 q 192 550 193 550 q 188 571 186 556 q 194 628 189 600 q 210 683 200 656 q 263 783 233 746 q 301 821 281 807 q 344 838 324 835 q 383 829 365 840 q 417 796 403 818 q 369 839 399 829 q 307 831 342 849 q 276 808 290 822 q 250 779 263 796 q 210 708 229 750 q 206 699 208 703 q 203 694 204 696 q 201 694 201 693 q 201 710 197 696 q 172 601 179 654 q 178 490 165 543 q 178 475 182 475 q 169 494 174 479 q 160 615 153 551 q 161 503 150 556 q 203 397 171 443 q 214 381 208 389 q 223 369 219 374 q 230 359 226 364 q 235 351 233 354 q 236 344 238 346 q 228 344 235 342 q 192 368 213 349 q 150 426 165 392 q 135 467 142 444 m 438 540 q 414 354 433 456 q 421 390 417 368 q 440 538 436 468 q 438 540 439 536 m 146 740 q 117 656 128 699 q 124 649 121 658 q 126 635 125 643 q 163 747 138 690 q 204 818 182 789 q 232 851 218 836 q 267 879 249 868 q 310 899 288 892 q 358 906 333 907 q 408 893 385 904 q 447 864 429 882 q 475 828 464 849 q 493 789 486 810 q 511 711 504 757 q 519 635 517 671 q 521 596 519 628 q 521 558 521 561 q 476 258 517 425 q 449 165 463 207 q 488 307 469 226 q 514 450 506 385 q 510 746 535 613 q 485 824 500 792 q 424 892 461 867 q 401 903 413 899 q 376 911 389 908 q 325 911 351 915 q 242 872 282 903 q 185 810 211 847 q 146 740 164 779 z "},"P":{"ha":667,"x_min":14,"x_max":739,"o":"m 40 631 q 28 639 33 633 q 19 672 15 651 q 28 696 21 683 q 42 717 32 704 q 71 753 54 736 q 54 757 53 740 q 76 797 56 774 q 144 857 104 828 q 150 879 136 861 q 189 914 164 900 q 296 968 243 946 q 303 971 299 969 q 486 1028 396 1014 q 594 1029 547 1036 q 656 1010 629 1024 q 689 989 675 1000 q 717 956 706 974 q 736 894 733 928 q 732 842 738 869 q 718 800 728 822 q 703 765 710 779 q 621 646 674 710 q 439 451 539 547 q 428 447 429 443 q 438 464 429 454 q 497 524 465 492 q 454 485 476 506 q 447 483 447 479 q 336 378 392 426 q 328 375 328 371 q 335 388 326 379 q 540 596 446 486 q 393 453 485 538 q 383 449 385 446 q 386 458 381 451 q 304 383 346 418 q 296 107 303 264 q 289 103 294 99 q 286 111 286 106 q 287 135 286 119 q 288 157 288 150 q 285 141 286 151 q 283 125 283 131 q 279 122 282 121 q 278 39 279 68 q 272 35 276 29 q 269 42 269 38 q 272 201 272 113 q 263 89 264 113 q 259 83 263 83 q 254 88 256 83 q 251 14 254 44 q 246 10 251 6 l 243 15 q 239 54 242 32 q 235 -18 238 17 q 218 -35 233 -44 q 203 -4 204 -26 q 207 328 203 25 q 206 328 207 328 q 188 42 200 174 q 182 39 186 35 q 179 46 179 42 q 186 128 183 93 q 178 131 182 128 q 173 141 175 135 q 171 153 171 147 q 179 329 172 199 q 186 531 186 460 q 181 758 182 690 q 117 697 142 728 q 89 676 99 676 q 83 693 79 676 q 86 704 82 697 l 90 710 q 97 718 93 715 q 197 815 132 765 q 104 742 142 778 q 67 697 83 721 q 53 675 57 683 q 49 653 47 663 q 56 633 49 653 q 50 629 57 631 q 45 630 47 629 q 40 631 43 631 m 392 560 q 394 578 388 564 q 410 601 400 592 q 482 679 449 642 q 517 718 503 703 q 549 757 535 740 q 600 838 582 801 q 608 857 606 849 q 613 874 611 865 q 614 881 614 878 q 614 883 614 882 q 614 885 614 883 q 613 892 614 889 q 607 897 610 896 q 593 906 601 903 q 571 911 583 908 q 547 913 560 913 q 493 909 522 914 q 436 896 464 904 q 263 814 354 871 q 250 807 257 811 q 251 801 251 803 q 251 751 251 779 q 271 751 258 767 q 278 732 276 743 q 282 686 281 710 q 299 677 290 689 q 306 650 307 665 q 304 589 306 635 q 304 585 304 588 q 306 481 306 538 q 392 560 350 521 m 253 403 q 254 404 253 403 q 256 406 256 406 q 256 409 256 407 q 256 413 256 411 q 256 575 257 499 q 251 649 254 594 q 249 453 250 583 l 249 431 q 252 421 251 426 q 253 403 253 415 m 218 676 q 219 786 218 738 q 203 775 211 781 q 204 774 204 774 q 208 768 207 772 l 208 763 q 208 757 208 760 q 214 714 211 742 q 218 676 217 686 m 207 353 q 207 356 207 354 q 208 381 208 378 q 208 413 208 394 q 207 353 207 386 m 253 115 q 256 361 256 172 q 254 360 256 361 q 253 291 254 338 q 251 221 251 244 q 252 163 251 200 q 253 115 253 126 m 286 294 q 289 293 288 294 l 289 356 l 289 344 l 286 294 m 304 399 q 332 426 326 421 q 304 403 319 415 q 304 400 304 401 q 304 399 304 399 m 306 450 q 476 625 401 540 q 533 689 500 650 q 585 756 565 726 q 625 826 610 792 q 638 861 635 846 q 639 892 642 879 q 635 904 638 899 q 628 913 632 910 q 619 919 624 917 q 628 913 624 917 q 633 904 632 910 q 639 893 638 900 q 639 881 639 888 q 633 850 639 868 q 628 833 631 842 q 619 817 622 824 q 601 785 611 801 q 506 665 572 739 q 306 471 415 565 q 306 450 306 467 m 697 789 q 685 767 692 778 q 658 724 674 746 q 661 721 661 724 q 693 775 679 747 q 706 806 699 789 q 717 840 713 824 q 708 814 714 828 q 697 789 704 803 m 342 935 q 221 869 285 910 q 385 946 307 921 q 474 969 431 961 q 565 976 526 979 q 607 969 588 975 q 626 965 615 969 q 651 951 642 960 q 674 929 664 942 q 683 907 679 918 q 686 882 686 896 q 679 839 686 863 q 672 818 676 828 q 664 800 667 806 q 644 764 656 782 q 549 636 618 718 q 421 493 482 556 q 592 682 514 585 q 663 790 639 742 q 676 821 671 807 q 686 856 682 839 q 688 892 689 874 q 675 931 686 913 q 644 961 664 949 q 604 978 626 972 q 564 983 585 982 q 486 978 529 986 q 342 935 415 967 z "}}}
